<svg width="39" height="38" viewBox="0 0 39 38" fill="none" xmlns="http://www.w3.org/2000/svg">
  <g clip-path="url(#clip0_27_2)">
    <rect x="4" y="4" width="30.9056" height="31.9137" rx="15.4528" fill="#0A1333" />
    <g opacity="0.2" clip-path="url(#clip1_27_2)">
      <path
        d="M34.9046 19.9574C34.9046 28.7695 27.9861 35.9137 19.4523 35.9137C19.3693 35.9137 19.2853 35.9127 19.2032 35.9117H19.1984C19.1202 35.9107 19.041 35.9087 18.9628 35.9047C18.9561 35.9057 18.9493 35.9047 18.9416 35.9047C18.8721 35.9028 18.8006 35.8998 18.7311 35.8958C18.5477 35.8868 18.3642 35.8748 18.1818 35.8599C18.1258 35.8559 18.0707 35.8499 18.0147 35.8449C17.9163 35.836 17.8187 35.825 17.7203 35.814C17.6411 35.8051 17.5629 35.7951 17.4847 35.7841C17.4779 35.7841 17.4712 35.7831 17.4634 35.7811C17.3872 35.7722 17.3109 35.7612 17.2356 35.7492C17.1429 35.7363 17.0493 35.7213 16.9566 35.7054C16.889 35.6944 16.8214 35.6824 16.7548 35.6705C16.6833 35.6575 16.6109 35.6435 16.5395 35.6286C16.5211 35.6256 16.5047 35.6216 16.4864 35.6176C16.4169 35.6047 16.3483 35.5907 16.2798 35.5748C16.2248 35.5638 16.1707 35.5518 16.1176 35.5389C16.0654 35.5279 16.0152 35.5159 15.9631 35.503C15.911 35.491 15.8608 35.479 15.8096 35.4661C15.7372 35.4471 15.6638 35.4292 15.5914 35.4103C15.4215 35.3644 15.2525 35.3165 15.0845 35.2657C15.0179 35.2458 14.9523 35.2258 14.8866 35.2039C14.877 35.2019 14.8673 35.1989 14.8576 35.1949C14.791 35.174 14.7244 35.152 14.6588 35.1291C14.5699 35.0992 14.4811 35.0693 14.3933 35.0374C14.3334 35.0155 14.2726 34.9935 14.2127 34.9706C14.1364 34.9437 14.0621 34.9148 13.9858 34.8849C13.9192 34.8589 13.8526 34.832 13.786 34.8051C13.7792 34.8031 13.7725 34.8001 13.7647 34.7961C13.619 34.7363 13.4732 34.6735 13.3283 34.6097C13.1835 34.5469 13.0406 34.4791 12.8987 34.4103C12.8282 34.3754 12.7568 34.3405 12.6863 34.3056C12.6168 34.2697 12.5454 34.2338 12.4758 34.198C12.4063 34.1611 12.3368 34.1242 12.2673 34.0863C12.1901 34.0444 12.1148 34.0035 12.0404 33.9597C11.9777 33.9258 11.9168 33.8899 11.856 33.854C11.7884 33.8151 11.7208 33.7742 11.6533 33.7344C11.5857 33.6925 11.5191 33.6526 11.4515 33.6097C11.4476 33.6078 11.4428 33.6048 11.4389 33.6018C11.3762 33.5629 11.3153 33.523 11.2526 33.4831C11.156 33.4213 11.0614 33.3575 10.9668 33.2937C10.8664 33.2249 10.767 33.1561 10.6675 33.0853C10.6646 33.0833 10.6608 33.0814 10.6579 33.0784C10.598 33.0345 10.5362 32.9906 10.4773 32.9468C10.4136 32.8999 10.3508 32.8531 10.2881 32.8052C10.2253 32.7583 10.1635 32.7105 10.1008 32.6616C9.91156 32.5131 9.72522 32.3596 9.54178 32.2C9.48675 32.1532 9.43172 32.1053 9.37669 32.0565C9.3178 32.0036 9.25987 31.9518 9.20097 31.898C9.13339 31.8371 9.06677 31.7743 9.00016 31.7115C8.95285 31.6657 8.90554 31.6198 8.85727 31.5739C8.80224 31.5201 8.7472 31.4673 8.69314 31.4124C8.63618 31.3556 8.57921 31.2978 8.52322 31.239C8.48653 31.2021 8.45081 31.1642 8.41315 31.1253C8.34171 31.0495 8.27026 30.9728 8.19882 30.894C8.15248 30.8442 8.1071 30.7923 8.06172 30.7415C8.00283 30.6747 7.94297 30.6079 7.88504 30.5401C7.83291 30.4803 7.7827 30.4205 7.73153 30.3587C7.68036 30.2988 7.63112 30.238 7.58188 30.1752C7.53071 30.1144 7.48244 30.0516 7.43417 29.9898C7.38493 29.928 7.33666 29.8652 7.28838 29.8024C7.19184 29.6757 7.09819 29.5481 7.00647 29.4195C6.90992 29.2849 6.81723 29.1503 6.72455 29.0128C6.684 28.9519 6.64442 28.8901 6.60387 28.8283C6.60387 28.8283 6.6058 28.8293 6.60676 28.8303C5.10739 26.5174 4.17475 23.7757 4.02221 20.8187C4.00772 20.5326 4 20.2465 4 19.9574C4 11.1442 10.9185 4 19.4533 4C20.9208 4 22.34 4.21136 23.6859 4.60516C25.2557 5.06675 26.7232 5.77758 28.0459 6.69379C28.0614 6.70376 28.0768 6.71473 28.0923 6.72569C28.1811 6.7875 28.2699 6.85031 28.3568 6.91412C28.4244 6.96197 28.491 7.01182 28.5576 7.06266C28.6049 7.09856 28.6513 7.13445 28.6996 7.17034C28.8984 7.32287 29.0925 7.48139 29.2827 7.64389C29.3204 7.67679 29.359 7.70969 29.3966 7.7416C29.6476 7.95993 29.8929 8.18624 30.1304 8.42152C30.169 8.4604 30.2086 8.50028 30.2472 8.53916C30.336 8.62789 30.4239 8.71762 30.5088 8.80934C30.5494 8.85221 30.589 8.89408 30.6286 8.93695C30.8023 9.12438 30.9723 9.31679 31.1364 9.51419C31.1634 9.54609 31.1914 9.57899 31.2175 9.6109C31.5911 10.0635 31.9426 10.5391 32.265 11.0346C32.2998 11.0884 32.3345 11.1402 32.3683 11.1951C32.5624 11.4981 32.7468 11.8092 32.9187 12.1262C32.9515 12.1851 32.9833 12.2439 33.0133 12.3027C33.0818 12.4313 33.1484 12.5609 33.2131 12.6905C33.2421 12.7473 33.2691 12.8042 33.2962 12.862C33.4091 13.0953 33.5163 13.3326 33.6176 13.5718C33.6418 13.6287 33.6659 13.6865 33.6891 13.7443C33.7876 13.9836 33.8793 14.2248 33.9662 14.4701C33.9845 14.5199 34.0019 14.5718 34.0203 14.6226C34.0444 14.6944 34.0685 14.7662 34.0917 14.839C34.112 14.8998 34.1322 14.9626 34.1516 15.0244C34.1718 15.0862 34.1902 15.149 34.2085 15.2108C34.223 15.2597 34.2384 15.3075 34.252 15.3574C34.2742 15.4341 34.2964 15.5109 34.3176 15.5887C34.334 15.6515 34.3514 15.7153 34.3688 15.7781C34.3852 15.8409 34.4016 15.9047 34.4171 15.9685C34.4499 16.0961 34.4798 16.2237 34.5078 16.3523C34.5204 16.4062 34.5319 16.458 34.5426 16.5119C34.5551 16.5677 34.5667 16.6235 34.5773 16.6794C34.5947 16.7601 34.6102 16.8419 34.6246 16.9236C34.6372 16.9924 34.6497 17.0612 34.6613 17.131C34.669 17.1699 34.6748 17.2107 34.6816 17.2496C34.6893 17.2925 34.6961 17.3354 34.7028 17.3782C34.7115 17.4271 34.7183 17.4759 34.725 17.5258C34.7357 17.5916 34.7453 17.6574 34.754 17.7242C34.7675 17.8288 34.781 17.9335 34.7926 18.0392C34.7975 18.0821 34.8032 18.1239 34.8071 18.1668C34.8177 18.2685 34.8283 18.3692 34.837 18.4709C34.8419 18.5287 34.8477 18.5855 34.8515 18.6434C34.866 18.8318 34.8776 19.0212 34.8863 19.2106C34.8892 19.2824 34.893 19.3562 34.895 19.428C34.895 19.4359 34.8959 19.4429 34.895 19.4499C34.8979 19.5307 34.8998 19.6124 34.9017 19.6932V19.6982C34.9027 19.7829 34.9037 19.8696 34.9037 19.9554L34.9046 19.9574Z"
        fill="#354378" />
      <path
        d="M19.6678 25.6376C21.0946 25.4703 22.1194 24.1403 21.9569 22.6671C21.7943 21.1938 20.5059 20.1351 19.0791 20.3025C17.6524 20.4698 16.6275 21.7998 16.7901 23.273C16.9526 24.7463 18.241 25.8049 19.6678 25.6376Z"
        fill="url(#paint0_linear_27_2)" />
      <path
        d="M18.4348 25.4743C17.4134 24.6817 17.089 23.2122 17.7271 22.0268C18.3653 20.8404 19.745 20.3499 20.9364 20.8275C20.8417 20.7537 20.7413 20.6859 20.6351 20.6241C19.38 19.9033 17.7976 20.3699 17.0996 21.6659C16.4016 22.962 16.8534 24.596 18.1085 25.3168C18.2147 25.3776 18.3238 25.4294 18.4348 25.4743Z"
        fill="black" />
      <path
        d="M25.9676 8.86519C25.731 9.30385 25.1961 9.46137 24.7713 9.21812C24.3465 8.97386 24.194 8.42154 24.4296 7.98288C24.6661 7.54422 25.201 7.3867 25.6258 7.62996C26.0506 7.87421 26.2031 8.42653 25.9676 8.86519Z"
        fill="url(#paint1_linear_27_2)" />
      <path
        d="M24.6418 8.10495C24.8581 7.70318 25.3244 7.53768 25.7279 7.69919C25.6961 7.67427 25.6623 7.65133 25.6256 7.6304C25.2008 7.38614 24.665 7.54466 24.4294 7.98332C24.1928 8.42199 24.3464 8.9753 24.7712 9.21856C24.8069 9.23949 24.8445 9.25644 24.8812 9.2714C24.5356 9.00321 24.4255 8.50573 24.6418 8.10495Z"
        fill="black" />
      <path
        d="M30.4105 15.1077C29.9731 15.9202 28.9797 16.2133 28.1928 15.7617C27.406 15.31 27.1221 14.2842 27.5595 13.4716C27.9968 12.6591 28.9903 12.366 29.7771 12.8176C30.564 13.2693 30.8478 14.2951 30.4105 15.1077Z"
        fill="url(#paint2_linear_27_2)" />
      <path
        d="M27.9533 13.6972C28.354 12.9534 29.2191 12.6454 29.9663 12.9445C29.9065 12.8986 29.8437 12.8557 29.7771 12.8169C28.9902 12.3652 27.9968 12.6573 27.5594 13.4709C27.1221 14.2834 27.4049 15.3093 28.1928 15.7609C28.2594 15.7988 28.3279 15.8317 28.3974 15.8596C27.7564 15.3621 27.5536 14.4409 27.9533 13.6972Z"
        fill="black" />
      <path
        d="M21.8736 14.4321C21.9577 13.3995 21.2152 12.4922 20.2152 12.4057C19.2152 12.3191 18.3364 13.086 18.2523 14.1186C18.1682 15.1512 18.9106 16.0585 19.9106 16.145C20.9106 16.2316 21.7895 15.4647 21.8736 14.4321Z"
        fill="url(#paint3_linear_27_2)" />
      <path
        d="M18.9146 13.6171C19.3606 12.7886 20.3251 12.4457 21.1583 12.7786C21.0917 12.7268 21.0222 12.6799 20.9479 12.6371C20.0703 12.1336 18.9638 12.4596 18.4763 13.3659C17.9887 14.2721 18.3044 15.4146 19.182 15.9181C19.2564 15.9609 19.3326 15.9968 19.4099 16.0277C18.6964 15.4734 18.4695 14.4466 18.9156 13.6181L18.9146 13.6171Z"
        fill="black" />
      <path
        d="M11.748 17.695C11.9034 16.375 10.9931 15.1753 9.71469 15.0153C8.43633 14.8554 7.27404 15.7958 7.11864 17.1158C6.96325 18.4358 7.8736 19.6355 9.15196 19.7955C10.4303 19.9554 11.5926 19.015 11.748 17.695Z"
        fill="url(#paint4_linear_27_2)" />
      <path
        d="M7.95837 16.5589C8.53089 15.4951 9.76862 15.0555 10.8364 15.4832C10.7515 15.4174 10.6617 15.3556 10.5661 15.3007C9.44036 14.6547 8.02112 15.0734 7.3955 16.2349C6.76988 17.3973 7.17538 18.8629 8.30015 19.5089C8.39573 19.5637 8.49324 19.6106 8.59268 19.6505C7.67645 18.9396 7.38585 17.6216 7.95837 16.5579V16.5589Z"
        fill="black" />
      <path
        d="M20.0314 33.8322C20.0821 32.934 19.4181 32.1636 18.5483 32.1115C17.6785 32.0593 16.9323 32.7451 16.8816 33.6433C16.8309 34.5414 17.4949 35.3118 18.3647 35.364C19.2345 35.4162 19.9807 34.7304 20.0314 33.8322Z"
        fill="url(#paint5_linear_27_2)" />
      <path
        d="M17.457 33.1627C17.8441 32.4429 18.6812 32.1448 19.4043 32.4349C19.3464 32.3901 19.2856 32.3492 19.2209 32.3113C18.4591 31.8737 17.4985 32.1568 17.0756 32.9434C16.6528 33.73 16.926 34.722 17.6877 35.1586C17.7524 35.1955 17.819 35.2274 17.8857 35.2544C17.2658 34.7728 17.0689 33.8815 17.456 33.1617L17.457 33.1627Z"
        fill="black" />
      <path
        d="M13.2376 32.4703C12.9663 32.9738 12.3513 33.1552 11.8638 32.8751C11.3762 32.5949 11.2005 31.9599 11.4718 31.4564C11.7431 30.9529 12.3581 30.7715 12.8457 31.0516C13.3332 31.3318 13.5089 31.9668 13.2376 32.4703Z"
        fill="url(#paint6_linear_27_2)" />
      <path
        d="M11.7162 31.597C11.9643 31.1364 12.5001 30.9459 12.9636 31.1314C12.9269 31.1025 12.8883 31.0765 12.8468 31.0526C12.3592 30.7725 11.7442 30.9539 11.4729 31.4574C11.2016 31.9608 11.3773 32.5959 11.8649 32.8761C11.9064 32.9 11.9489 32.9199 11.9913 32.9369C11.5945 32.6288 11.4681 32.0575 11.7162 31.597Z"
        fill="black" />
      <path
        d="M18.4128 10.8964C19.7714 10.6729 20.6973 9.35454 20.4809 7.95166C20.2645 6.54878 18.9878 5.59266 17.6292 5.81611C16.2706 6.03956 15.3447 7.35796 15.5611 8.76084C15.7775 10.1637 17.0543 11.1198 18.4128 10.8964Z"
        fill="url(#paint7_linear_27_2)" />
      <path
        d="M16.4458 7.45144C17.058 6.31491 18.3797 5.84434 19.5209 6.30195C19.4301 6.23116 19.3336 6.16636 19.2322 6.10754C18.0292 5.41764 16.5125 5.86428 15.8444 7.10649C15.1763 8.34871 15.6088 9.91493 16.8118 10.6048C16.9141 10.6637 17.0184 10.7135 17.1246 10.7554C16.1456 9.99569 15.8347 8.58798 16.4468 7.45144H16.4458Z"
        fill="black" />
      <path
        d="M8.82513 22.9312C8.94296 21.9959 8.30417 21.1394 7.39836 21.0181C6.49254 20.8968 5.66271 21.5567 5.54489 22.492C5.42706 23.4273 6.06585 24.2839 6.97167 24.4052C7.87748 24.5264 8.70731 23.8665 8.82513 22.9312Z"
        fill="url(#paint8_linear_27_2)" />
      <path
        d="M6.13767 22.1108C6.54413 21.3561 7.42174 21.044 8.17963 21.3481C8.11978 21.3012 8.05605 21.2584 7.98751 21.2195C7.18906 20.7609 6.18208 21.058 5.73893 21.8825C5.29482 22.707 5.58253 23.7468 6.38097 24.2044C6.44855 24.2433 6.51807 24.2762 6.58854 24.3041C5.93878 23.7996 5.73217 22.8655 6.13864 22.1108H6.13767Z"
        fill="black" />
      <path
        d="M16.2239 20.1131C15.8222 20.8598 14.9099 21.128 14.1867 20.7133C13.4636 20.2985 13.2039 19.3564 13.6055 18.6097C14.0072 17.863 14.9195 17.5948 15.6427 18.0095C16.3658 18.4242 16.6255 19.3664 16.2239 20.1131Z"
        fill="url(#paint9_linear_27_2)" />
      <path
        d="M13.9676 18.818C14.3354 18.1351 15.13 17.852 15.8164 18.1271C15.7614 18.0843 15.7044 18.0454 15.6427 18.0105C14.9195 17.5957 14.0081 17.8639 13.6055 18.6107C13.2039 19.3574 13.4636 20.2985 14.1867 20.7142C14.2485 20.7491 14.3113 20.779 14.375 20.805C13.787 20.3484 13.5997 19.5019 13.9676 18.819V18.818Z"
        fill="black" />
      <path
        d="M27.4368 29.5965C27.0284 30.3552 26.1016 30.6283 25.3678 30.2066C24.6331 29.7849 24.3685 28.8278 24.7769 28.0691C25.1853 27.3104 26.1122 27.0373 26.8459 27.459C27.5807 27.8807 27.8452 28.8378 27.4368 29.5965Z"
        fill="url(#paint10_linear_27_2)" />
      <path
        d="M25.1438 28.2805C25.5175 27.5866 26.3246 27.2994 27.0226 27.5786C26.9676 27.5357 26.9087 27.4959 26.8459 27.46C26.1112 27.0382 25.1844 27.3114 24.7769 28.0701C24.3685 28.8288 24.6331 29.7859 25.3678 30.2076C25.4306 30.2435 25.4943 30.2734 25.559 30.2993C24.9613 29.8347 24.7711 28.9753 25.1448 28.2815L25.1438 28.2805Z"
        fill="black" />
      <path
        d="M20.2315 29.9856C19.9207 30.5638 19.2139 30.7722 18.654 30.4502C18.094 30.1291 17.8922 29.3994 18.2041 28.8211C18.5149 28.2429 19.2217 28.0345 19.7816 28.3565C20.3416 28.6776 20.5434 29.4073 20.2315 29.9856Z"
        fill="url(#paint11_linear_27_2)" />
      <path
        d="M18.484 28.9822C18.7689 28.4528 19.3839 28.2345 19.9158 28.4468C19.8733 28.4139 19.8289 28.384 19.7816 28.3561C19.2217 28.0351 18.5159 28.2424 18.2041 28.8207C17.8922 29.3989 18.094 30.1277 18.654 30.4497C18.7013 30.4766 18.7505 30.5006 18.7997 30.5195C18.344 30.1656 18.1992 29.5106 18.484 28.9812V28.9822Z"
        fill="black" />
      <path
        d="M11.8108 27.5806C11.6099 27.9544 11.1533 28.089 10.7912 27.8806C10.4292 27.6733 10.2988 27.2017 10.5006 26.8278C10.7014 26.454 11.1581 26.3194 11.5201 26.5278C11.8822 26.7351 12.0125 27.2067 11.8108 27.5806Z"
        fill="url(#paint12_linear_27_2)" />
      <path
        d="M10.6813 26.9329C10.8657 26.5909 11.2634 26.4493 11.6071 26.5869C11.5801 26.566 11.5511 26.546 11.5203 26.5281C11.1582 26.3207 10.7015 26.4553 10.5007 26.8282C10.2999 27.202 10.4302 27.6736 10.7913 27.881C10.8222 27.8989 10.8531 27.9139 10.885 27.9258C10.5905 27.6975 10.4969 27.2738 10.6813 26.9319V26.9329Z"
        fill="black" />
      <path
        d="M31.8355 23.6029C31.5777 24.0815 30.9927 24.2539 30.5292 23.9878C30.0658 23.7216 29.8988 23.1174 30.1566 22.6389C30.4144 22.1603 30.9994 21.9878 31.4629 22.254C31.9263 22.5202 32.0933 23.1244 31.8355 23.6029Z"
        fill="url(#paint13_linear_27_2)" />
      <path
        d="M30.3883 22.7715C30.6239 22.3338 31.1336 22.1523 31.5739 22.3288C31.5391 22.3019 31.5015 22.276 31.4629 22.254C30.9994 21.9878 30.4144 22.1603 30.1566 22.6389C29.8988 23.1174 30.0658 23.7216 30.5292 23.9878C30.5688 24.0107 30.6084 24.0296 30.6499 24.0456C30.2724 23.7525 30.1527 23.2101 30.3883 22.7715Z"
        fill="black" />
      <path
        d="M14.7841 12.2353C14.7929 11.3159 14.0781 10.5638 13.1877 10.5555C12.2973 10.5472 11.5683 11.2858 11.5596 12.2053C11.5508 13.1247 12.2655 13.8768 13.156 13.8852C14.0464 13.8935 14.7753 13.1548 14.7841 12.2353Z"
        fill="url(#paint14_linear_27_2)" />
      <path
        d="M12.1504 11.635C12.5463 10.8993 13.4017 10.5952 14.1412 10.8913C14.0823 10.8454 14.0205 10.8036 13.9539 10.7657C13.1758 10.319 12.1939 10.6081 11.7614 11.4117C11.3288 12.2152 11.6088 13.2292 12.387 13.6758C12.4526 13.7137 12.5202 13.7456 12.5888 13.7735C11.9554 13.282 11.7536 12.3708 12.1495 11.635H12.1504Z"
        fill="black" />
      <path
        d="M25.7762 19.1098C25.5522 19.5265 25.0425 19.6771 24.6389 19.4448C24.2353 19.2135 24.0896 18.6871 24.3145 18.2704C24.5385 17.8536 25.0483 17.7031 25.4518 17.9354C25.8554 18.1667 26.0012 18.6931 25.7762 19.1098Z"
        fill="url(#paint15_linear_27_2)" />
      <path
        d="M24.7443 19.4952C24.4161 19.24 24.3118 18.7674 24.5165 18.3856C24.7212 18.0037 25.1653 17.8462 25.5486 17.9997C25.5177 17.9758 25.4858 17.9539 25.452 17.9349C25.0484 17.7037 24.5387 17.8532 24.3147 18.2699C24.0907 18.6867 24.2355 19.2131 24.6391 19.4443C24.6729 19.4643 24.7086 19.4802 24.7443 19.4952Z"
        fill="black" />
      <path
        d="M9.18766 12.227C8.96271 12.6447 8.45294 12.7953 8.04841 12.563C7.64388 12.3307 7.49809 11.8043 7.72305 11.3866C7.948 10.9688 8.45777 10.8183 8.8623 11.0506C9.26683 11.2829 9.41261 11.8093 9.18766 12.227Z"
        fill="url(#paint16_linear_27_2)" />
      <path
        d="M7.9247 11.5022C8.13034 11.1204 8.57542 10.9619 8.95871 11.1154C8.92782 11.0915 8.89596 11.0696 8.8612 11.0496C8.45667 10.8173 7.9469 10.9679 7.72195 11.3856C7.49699 11.8033 7.64278 12.3297 8.04731 12.562C8.08207 12.5819 8.11682 12.5989 8.15255 12.6129C7.82332 12.3576 7.71905 11.8841 7.9247 11.5012V11.5022Z"
        fill="black" />
      <g style="mix-blend-mode:multiply" opacity="0.56">
        <path
          d="M28.045 6.6924C29.6921 9.22967 30.6528 12.2814 30.6528 15.5644C30.6528 24.3775 23.7342 31.5217 15.2005 31.5217C12.0202 31.5217 9.06588 30.5297 6.60876 28.8289C9.38159 33.1009 14.0998 35.9133 19.4543 35.9133C27.989 35.9133 34.9066 28.7691 34.9066 19.956C34.9066 14.4268 32.183 9.55468 28.046 6.69141L28.045 6.6924Z"
          fill="#354378" />
      </g>
      <g style="mix-blend-mode:screen" opacity="0.13">
        <path
          d="M26.1207 12.2937C26.1207 15.6036 24.9225 18.6264 22.9491 20.9214C21.9334 22.1038 20.7111 23.0938 19.3402 23.8306C19.1799 23.9183 19.0168 24.002 18.8507 24.0808C17.2345 24.8614 15.432 25.2971 13.529 25.2971C12.1407 25.2971 10.8064 25.0648 9.5571 24.6361C9.55613 24.6361 9.55517 24.6361 9.5542 24.6341C9.48855 24.6132 9.42386 24.5902 9.36014 24.5653C9.22112 24.5165 9.08305 24.4636 8.94596 24.4078C8.94306 24.4068 8.9392 24.4058 8.9363 24.4038C8.42267 24.1964 7.92546 23.9542 7.44659 23.682C6.14707 22.9403 4.98851 21.9682 4.02111 20.8197C4.00663 20.5336 3.9989 20.2475 3.9989 19.9584C3.99987 11.1442 10.9184 4 19.4531 4C20.9207 4 22.3399 4.21136 23.6858 4.60516C24.4369 5.66193 25.0374 6.84134 25.4555 8.10748C25.7519 9.00973 25.9546 9.95485 26.0531 10.9339C26.0985 11.3815 26.1216 11.8351 26.1216 12.2937H26.1207Z"
          fill="#CDCDCD" />
      </g>
    </g>
    <path
      d="M28.1558 34.0398C27.2404 32.2566 24.2927 31.7976 23.6987 30.898C23.1048 29.9984 23.7487 30.1246 21.341 28.3894C18.9333 26.6542 19.4974 26.211 19.4974 26.211C19.4603 26.1793 19.0113 26.0354 18.7271 25.9466C18.4465 25.8459 18.0014 25.6898 17.9534 25.693C17.9534 25.693 18.1567 26.3939 15.2219 26.3363C12.2863 26.2787 12.8791 26.5675 11.8865 26.9348C10.8939 27.302 8.24848 25.8845 6.49225 26.7713C5.57447 27.2352 4.26097 27.1109 3.09973 26.8394L15.0617 37.5954L30.8616 36.154C29.7676 35.6689 28.6342 34.9721 28.1558 34.0398Z"
      fill="url(#paint17_linear_27_2)" />
    <g clip-path="url(#clip2_27_2)">
      <g clip-path="url(#clip3_27_2)">
        <path d="M21.5323 39.1762L17.5265 37.8322L17.4883 20.4746L21.493 21.8183L21.5323 39.1762Z"
          fill="url(#paint18_linear_27_2)" />
        <path d="M21.4859 21.8158L17.4802 20.4718L7.56902 34.4912L11.5748 35.8352L21.4859 21.8158Z"
          fill="url(#paint19_linear_27_2)" />
      </g>
    </g>
    <g filter="url(#filter0_i_27_2)">
      <path
        d="M21.5018 19.7238L20.0528 19.3078L18.6437 18.7649C18.6437 18.7649 17.908 19.0426 17.6135 20.0224L21.6185 21.3661C21.938 20.3947 21.5008 19.7235 21.5008 19.7235L21.5018 19.7238Z"
        fill="url(#paint20_linear_27_2)" />
    </g>
    <g filter="url(#filter1_i_27_2)">
      <path
        d="M22.6035 16.6634C22.6363 16.5801 23.402 16.6352 23.4642 16.7007C23.9003 17.1614 24.4509 17.8379 24.3021 19.2711C24.2258 20.0055 23.4544 20.3866 22.757 20.1526L21.6129 19.7687C21.5027 19.7317 21.4451 19.6084 21.4876 19.5004L22.6035 16.6634Z"
        fill="url(#paint21_linear_27_2)" />
    </g>
    <g filter="url(#filter2_i_27_2)">
      <path
        d="M19.3822 15.5826C19.4031 15.4953 18.7523 15.0751 18.6647 15.0905C18.0496 15.1984 17.2191 15.4115 16.5237 16.6614C16.1674 17.3018 16.5745 18.0783 17.2719 18.3123L18.416 18.6961C18.5263 18.7331 18.643 18.6683 18.6702 18.5551L19.3822 15.5826Z"
        fill="url(#paint22_linear_27_2)" />
    </g>
    <g filter="url(#filter3_i_27_2)">
      <path
        d="M21.6487 20.0647C22.0067 20.1807 22.3877 20.0032 22.5188 19.6508C22.9012 18.6235 23.6568 16.4415 24.1354 14.0601C24.9177 10.1675 21.2841 8.9484 19.7013 12.5724C19.3865 13.2931 19.1074 14.0145 18.8646 14.6965C18.0682 16.9334 19.3973 19.3052 21.6487 20.0647Z"
        fill="#F9FBFC" />
    </g>
    <g filter="url(#filter4_i_27_2)">
      <path
        d="M22.5408 13.0959C23.2849 13.0391 23.8419 12.372 23.785 11.606C23.728 10.84 23.0787 10.2651 22.3346 10.3219C21.5905 10.3787 21.0335 11.0458 21.0904 11.8118C21.1474 12.5778 21.7967 13.1528 22.5408 13.0959Z"
        fill="url(#paint23_linear_27_2)" />
    </g>
    <g filter="url(#filter5_i_27_2)">
      <path
        d="M21.2905 15.3534C21.6559 15.4759 22.0479 15.2707 22.1661 14.8949C22.2844 14.5191 22.0841 14.1151 21.7187 13.9925C21.3533 13.8699 20.9613 14.0752 20.843 14.4509C20.7248 14.8267 20.9251 15.2308 21.2905 15.3534Z"
        fill="url(#paint24_linear_27_2)" />
    </g>
  </g>
  <path
    d="M19.364 0C8.67507 0 0 8.4905 0 18.952C0 29.4135 8.67507 37.904 19.364 37.904C30.0529 37.904 38.728 29.4135 38.728 18.952C38.728 8.4905 30.0529 0 19.364 0ZM19.364 34.1136C10.8051 34.1136 3.8728 27.3288 3.8728 18.952C3.8728 10.5752 10.8051 3.7904 19.364 3.7904C27.9229 3.7904 34.8552 10.5752 34.8552 18.952C34.8552 27.3288 27.9229 34.1136 19.364 34.1136Z"
    fill="white" />
  <defs>
    <filter id="filter0_i_27_2" x="17.6135" y="18.7646" width="4.12183" height="42.6016"
      filterUnits="userSpaceOnUse" color-interpolation-filters="sRGB">
      <feFlood flood-opacity="0" result="BackgroundImageFix" />
      <feBlend mode="normal" in="SourceGraphic" in2="BackgroundImageFix" result="shape" />
      <feColorMatrix in="SourceAlpha" type="matrix"
        values="0 0 0 0 0 0 0 0 0 0 0 0 0 0 0 0 0 0 127 0" result="hardAlpha" />
      <feOffset dy="40" />
      <feGaussianBlur stdDeviation="20" />
      <feComposite in2="hardAlpha" operator="arithmetic" k2="-1" k3="1" />
      <feColorMatrix type="matrix" values="0 0 0 0 0 0 0 0 0 0 0 0 0 0 0 0 0 0 0.25 0" />
      <feBlend mode="normal" in2="shape" result="effect1_innerShadow_27_2" />
    </filter>
    <filter id="filter1_i_27_2" x="21.4735" y="16.6211" width="2.85339" height="3.60059"
      filterUnits="userSpaceOnUse" color-interpolation-filters="sRGB">
      <feFlood flood-opacity="0" result="BackgroundImageFix" />
      <feBlend mode="normal" in="SourceGraphic" in2="BackgroundImageFix" result="shape" />
      <feColorMatrix in="SourceAlpha" type="matrix"
        values="0 0 0 0 0 0 0 0 0 0 0 0 0 0 0 0 0 0 127 0" result="hardAlpha" />
      <feOffset dx="40" dy="-20" />
      <feGaussianBlur stdDeviation="18" />
      <feComposite in2="hardAlpha" operator="arithmetic" k2="-1" k3="1" />
      <feColorMatrix type="matrix" values="0 0 0 0 0 0 0 0 0 0 0 0 0 0 0 0 0 0 0.25 0" />
      <feBlend mode="normal" in2="shape" result="effect1_innerShadow_27_2" />
    </filter>
    <filter id="filter2_i_27_2" x="16.3922" y="15.0898" width="2.99048" height="3.61719"
      filterUnits="userSpaceOnUse" color-interpolation-filters="sRGB">
      <feFlood flood-opacity="0" result="BackgroundImageFix" />
      <feBlend mode="normal" in="SourceGraphic" in2="BackgroundImageFix" result="shape" />
      <feColorMatrix in="SourceAlpha" type="matrix"
        values="0 0 0 0 0 0 0 0 0 0 0 0 0 0 0 0 0 0 127 0" result="hardAlpha" />
      <feOffset dx="40" dy="-20" />
      <feGaussianBlur stdDeviation="18" />
      <feComposite in2="hardAlpha" operator="arithmetic" k2="-1" k3="1" />
      <feColorMatrix type="matrix" values="0 0 0 0 0 0 0 0 0 0 0 0 0 0 0 0 0 0 0.25 0" />
      <feBlend mode="normal" in2="shape" result="effect1_innerShadow_27_2" />
    </filter>
    <filter id="filter3_i_27_2" x="18.6322" y="10.4072" width="37.6121" height="13.6924"
      filterUnits="userSpaceOnUse" color-interpolation-filters="sRGB">
      <feFlood flood-opacity="0" result="BackgroundImageFix" />
      <feBlend mode="normal" in="SourceGraphic" in2="BackgroundImageFix" result="shape" />
      <feColorMatrix in="SourceAlpha" type="matrix"
        values="0 0 0 0 0 0 0 0 0 0 0 0 0 0 0 0 0 0 127 0" result="hardAlpha" />
      <feOffset dx="32" dy="4" />
      <feGaussianBlur stdDeviation="20" />
      <feComposite in2="hardAlpha" operator="arithmetic" k2="-1" k3="1" />
      <feColorMatrix type="matrix" values="0 0 0 0 0 0 0 0 0 0 0 0 0 0 0 0 0 0 0.25 0" />
      <feBlend mode="normal" in2="shape" result="effect1_innerShadow_27_2" />
    </filter>
    <filter id="filter4_i_27_2" x="21.0864" y="10.3184" width="2.70251" height="14.7812"
      filterUnits="userSpaceOnUse" color-interpolation-filters="sRGB">
      <feFlood flood-opacity="0" result="BackgroundImageFix" />
      <feBlend mode="normal" in="SourceGraphic" in2="BackgroundImageFix" result="shape" />
      <feColorMatrix in="SourceAlpha" type="matrix"
        values="0 0 0 0 0 0 0 0 0 0 0 0 0 0 0 0 0 0 127 0" result="hardAlpha" />
      <feOffset dy="12" />
      <feGaussianBlur stdDeviation="10" />
      <feComposite in2="hardAlpha" operator="arithmetic" k2="-1" k3="1" />
      <feColorMatrix type="matrix" values="0 0 0 0 0 0 0 0 0 0 0 0 0 0 0 0 0 0 0.25 0" />
      <feBlend mode="normal" in2="shape" result="effect1_innerShadow_27_2" />
    </filter>
    <filter id="filter5_i_27_2" x="20.8091" y="13.957" width="1.39099" height="13.4316"
      filterUnits="userSpaceOnUse" color-interpolation-filters="sRGB">
      <feFlood flood-opacity="0" result="BackgroundImageFix" />
      <feBlend mode="normal" in="SourceGraphic" in2="BackgroundImageFix" result="shape" />
      <feColorMatrix in="SourceAlpha" type="matrix"
        values="0 0 0 0 0 0 0 0 0 0 0 0 0 0 0 0 0 0 127 0" result="hardAlpha" />
      <feOffset dy="12" />
      <feGaussianBlur stdDeviation="10" />
      <feComposite in2="hardAlpha" operator="arithmetic" k2="-1" k3="1" />
      <feColorMatrix type="matrix" values="0 0 0 0 0 0 0 0 0 0 0 0 0 0 0 0 0 0 0.25 0" />
      <feBlend mode="normal" in2="shape" result="effect1_innerShadow_27_2" />
    </filter>
    <linearGradient id="paint0_linear_27_2" x1="19.0791" y1="20.3025" x2="19.7043" y2="25.6333"
      gradientUnits="userSpaceOnUse">
      <stop stop-color="#1A1A1A" />
      <stop offset="0.0001" stop-color="#242424" />
      <stop offset="1" />
    </linearGradient>
    <linearGradient id="paint1_linear_27_2" x1="25.1986" y1="7.51562" x2="25.1986" y2="9.33245"
      gradientUnits="userSpaceOnUse">
      <stop stop-color="#1A1A1A" />
      <stop offset="0.0001" stop-color="#242424" />
      <stop offset="1" />
    </linearGradient>
    <linearGradient id="paint2_linear_27_2" x1="28.985" y1="12.6055" x2="28.985" y2="15.9738"
      gradientUnits="userSpaceOnUse">
      <stop stop-color="#1A1A1A" />
      <stop offset="0.0001" stop-color="#242424" />
      <stop offset="1" />
    </linearGradient>
    <linearGradient id="paint3_linear_27_2" x1="18.2523" y1="14.1186" x2="21.8751" y2="14.4137"
      gradientUnits="userSpaceOnUse">
      <stop stop-color="#1A1A1A" />
      <stop offset="0.0001" stop-color="#242424" />
      <stop offset="1" />
    </linearGradient>
    <linearGradient id="paint4_linear_27_2" x1="7.11864" y1="17.1158" x2="11.752" y2="17.6612"
      gradientUnits="userSpaceOnUse">
      <stop stop-color="#1A1A1A" />
      <stop offset="0.0001" stop-color="#242424" />
      <stop offset="1" />
    </linearGradient>
    <linearGradient id="paint5_linear_27_2" x1="16.8816" y1="33.6433" x2="20.032" y2="33.8211"
      gradientUnits="userSpaceOnUse">
      <stop stop-color="#1A1A1A" />
      <stop offset="0.0001" stop-color="#242424" />
      <stop offset="1" />
    </linearGradient>
    <linearGradient id="paint6_linear_27_2" x1="12.3547" y1="30.9199" x2="12.3547" y2="33.0068"
      gradientUnits="userSpaceOnUse">
      <stop stop-color="#1A1A1A" />
      <stop offset="0.0001" stop-color="#242424" />
      <stop offset="1" />
    </linearGradient>
    <linearGradient id="paint7_linear_27_2" x1="17.6292" y1="5.81611" x2="18.4634" y2="10.8881"
      gradientUnits="userSpaceOnUse">
      <stop stop-color="#1A1A1A" />
      <stop offset="0.0001" stop-color="#242424" />
      <stop offset="1" />
    </linearGradient>
    <linearGradient id="paint8_linear_27_2" x1="5.54489" y1="22.492" x2="8.82836" y2="22.9057"
      gradientUnits="userSpaceOnUse">
      <stop stop-color="#1A1A1A" />
      <stop offset="0.0001" stop-color="#242424" />
      <stop offset="1" />
    </linearGradient>
    <linearGradient id="paint9_linear_27_2" x1="14.9147" y1="17.8145" x2="14.9147" y2="20.9083"
      gradientUnits="userSpaceOnUse">
      <stop stop-color="#1A1A1A" />
      <stop offset="0.0001" stop-color="#242424" />
      <stop offset="1" />
    </linearGradient>
    <linearGradient id="paint10_linear_27_2" x1="26.1069" y1="27.2607" x2="26.1069" y2="30.4048"
      gradientUnits="userSpaceOnUse">
      <stop stop-color="#1A1A1A" />
      <stop offset="0.0001" stop-color="#242424" />
      <stop offset="1" />
    </linearGradient>
    <linearGradient id="paint11_linear_27_2" x1="19.2178" y1="28.2051" x2="19.2178" y2="30.6016"
      gradientUnits="userSpaceOnUse">
      <stop stop-color="#1A1A1A" />
      <stop offset="0.0001" stop-color="#242424" />
      <stop offset="1" />
    </linearGradient>
    <linearGradient id="paint12_linear_27_2" x1="11.1557" y1="26.4297" x2="11.1557" y2="27.9787"
      gradientUnits="userSpaceOnUse">
      <stop stop-color="#1A1A1A" />
      <stop offset="0.0001" stop-color="#242424" />
      <stop offset="1" />
    </linearGradient>
    <linearGradient id="paint13_linear_27_2" x1="30.9961" y1="22.1289" x2="30.9961" y2="24.1129"
      gradientUnits="userSpaceOnUse">
      <stop stop-color="#1A1A1A" />
      <stop offset="0.0001" stop-color="#242424" />
      <stop offset="1" />
    </linearGradient>
    <linearGradient id="paint14_linear_27_2" x1="11.5596" y1="12.2053" x2="14.7841" y2="12.236"
      gradientUnits="userSpaceOnUse">
      <stop stop-color="#1A1A1A" />
      <stop offset="0.0001" stop-color="#242424" />
      <stop offset="1" />
    </linearGradient>
    <linearGradient id="paint15_linear_27_2" x1="25.0454" y1="17.8262" x2="25.0454" y2="19.554"
      gradientUnits="userSpaceOnUse">
      <stop stop-color="#1A1A1A" />
      <stop offset="0.0001" stop-color="#242424" />
      <stop offset="1" />
    </linearGradient>
    <linearGradient id="paint16_linear_27_2" x1="8.45535" y1="10.9414" x2="8.45535" y2="12.6722"
      gradientUnits="userSpaceOnUse">
      <stop stop-color="#1A1A1A" />
      <stop offset="0.0001" stop-color="#242424" />
      <stop offset="1" />
    </linearGradient>
    <linearGradient id="paint17_linear_27_2" x1="18.729" y1="25.9405" x2="15.4201" y2="35.6536"
      gradientUnits="userSpaceOnUse">
      <stop stop-color="white" />
      <stop offset="1" stop-color="white" />
    </linearGradient>
    <linearGradient id="paint18_linear_27_2" x1="17.8855" y1="35.9504" x2="21.6288" y2="22.06"
      gradientUnits="userSpaceOnUse">
      <stop stop-color="white" />
      <stop offset="1" stop-color="#3C8764" />
    </linearGradient>
    <linearGradient id="paint19_linear_27_2" x1="10.9588" y1="35.9841" x2="17.9081" y2="20.6744"
      gradientUnits="userSpaceOnUse">
      <stop offset="0.151042" stop-color="white" />
      <stop offset="0.536458" stop-color="#3482E6" />
      <stop offset="0.817708" stop-color="#57C4F1" />
      <stop offset="1" stop-color="#53B27D" />
    </linearGradient>
    <linearGradient id="paint20_linear_27_2" x1="19.4214" y1="18.1575" x2="19.8808" y2="21.846"
      gradientUnits="userSpaceOnUse">
      <stop stop-color="#BDF7A3" />
      <stop offset="1" stop-color="#009EE0" />
    </linearGradient>
    <linearGradient id="paint21_linear_27_2" x1="22.0641" y1="19.6521" x2="24.7185" y2="16.4261"
      gradientUnits="userSpaceOnUse">
      <stop stop-color="#3482E6" />
      <stop offset="0.296875" stop-color="#57C4F1" />
      <stop offset="1" stop-color="#53B27D" />
    </linearGradient>
    <linearGradient id="paint22_linear_27_2" x1="16.6619" y1="17.8396" x2="19.3163" y2="14.6136"
      gradientUnits="userSpaceOnUse">
      <stop stop-color="#3482E6" />
      <stop offset="0.296875" stop-color="#57C4F1" />
      <stop offset="1" stop-color="#53B27D" />
    </linearGradient>
    <linearGradient id="paint23_linear_27_2" x1="21.8015" y1="8.24582" x2="22.8381" y2="13.6355"
      gradientUnits="userSpaceOnUse">
      <stop stop-color="#BDF7A3" />
      <stop offset="1" stop-color="#009EE0" />
    </linearGradient>
    <linearGradient id="paint24_linear_27_2" x1="21.2574" y1="11.8721" x2="21.9679" y2="19.6775"
      gradientUnits="userSpaceOnUse">
      <stop stop-color="#BDF7A3" />
      <stop offset="1" stop-color="#009EE0" />
    </linearGradient>
    <clipPath id="clip0_27_2">
      <rect x="4" y="4" width="30.9056" height="31.9137" rx="15.4528" fill="white" />
    </clipPath>
    <clipPath id="clip1_27_2">
      <rect width="30.9056" height="31.9137" fill="white" transform="translate(4 4)" />
    </clipPath>
    <clipPath id="clip2_27_2">
      <rect width="20.0839" height="20.6122" fill="white"
        transform="matrix(0.94806 0.318092 -0.300148 0.953893 11.3356 13.6016)" />
    </clipPath>
    <clipPath id="clip3_27_2">
      <rect width="14.7282" height="16.4468" fill="white"
        transform="matrix(0.94806 0.318092 -0.300148 0.953893 12.5055 18.8027)" />
    </clipPath>
  </defs>
</svg>
  