<svg width="184" height="140" viewBox="0 0 184 140" fill="none" xmlns="http://www.w3.org/2000/svg">
  <mask id="mask0_663_11157" style="mask-type:luminance" maskUnits="userSpaceOnUse" x="0" y="36"
    width="184" height="183">
    <path
      d="M19.2775 183.632C49.8062 223.429 107.114 230.714 147.277 199.904C187.441 169.093 195.251 111.855 164.723 72.0585C134.194 32.2617 76.8863 24.9766 36.7228 55.7867C-3.4408 86.5968 -11.2513 143.835 19.2775 183.632Z"
      fill="white" />
  </mask>
  <g mask="url(#mask0_663_11157)">
    <path d="M100.191 99.0572C103.913 98.3351 107.743 97.8593 111.641 97.6702" stroke="white"
      stroke-width="12.56" stroke-linecap="round" stroke-linejoin="round" />
    <path
      d="M29.9132 195.198C66.9012 229.076 124.602 226.278 158.792 188.949C192.981 151.62 190.713 93.8957 153.725 60.0184C116.737 26.141 59.0358 28.939 24.8462 66.2679C-9.34338 103.597 -7.07482 161.321 29.9132 195.198Z"
      fill="#3B76DB" />
    <path
      d="M174.185 87.6552C171.031 129.919 136.651 164.315 93.3437 166.415C50.0368 168.516 13.0885 137.578 6.63122 95.7802C2.33623 107.034 0.188073 119.286 0.688857 132.028C2.6677 182.38 45.0697 221.216 95.4014 218.775C145.733 216.335 184.927 173.542 182.948 123.19C182.447 110.447 179.345 98.4115 174.185 87.6552Z"
      fill="#3062B8" />
    <path
      d="M154.413 82.4621C148.293 102.876 120.208 112.962 91.3116 114.711C62.3696 115.786 33.6201 108.476 25.9204 88.693C18.0801 69.2654 45.2287 40.2683 88.2839 38.1612C131.341 36.0926 160.679 62.3311 154.374 82.464L154.413 82.4621Z"
      fill="#458AED" />
  </g>
</svg>
  