<svg width="37" height="37" viewBox="0 0 37 37" fill="none" xmlns="http://www.w3.org/2000/svg">
  <g clip-path="url(#clip0_27_2)">
    <rect x="3" y="4" width="30.9056" height="31.9137" rx="15.4528" fill="#0A1333" />
    <g opacity="0.2" clip-path="url(#clip1_27_2)">
      <path
        d="M33.9046 19.9574C33.9046 28.7695 26.9861 35.9137 18.4523 35.9137C18.3693 35.9137 18.2853 35.9127 18.2032 35.9117H18.1984C18.1202 35.9107 18.041 35.9087 17.9628 35.9047C17.9561 35.9057 17.9493 35.9047 17.9416 35.9047C17.8721 35.9028 17.8006 35.8998 17.7311 35.8958C17.5477 35.8868 17.3642 35.8748 17.1818 35.8599C17.1258 35.8559 17.0707 35.8499 17.0147 35.8449C16.9163 35.836 16.8187 35.825 16.7203 35.814C16.6411 35.8051 16.5629 35.7951 16.4847 35.7841C16.4779 35.7841 16.4712 35.7831 16.4634 35.7811C16.3872 35.7722 16.3109 35.7612 16.2356 35.7492C16.1429 35.7363 16.0493 35.7213 15.9566 35.7054C15.889 35.6944 15.8214 35.6824 15.7548 35.6705C15.6833 35.6575 15.6109 35.6435 15.5395 35.6286C15.5211 35.6256 15.5047 35.6216 15.4864 35.6176C15.4169 35.6047 15.3483 35.5907 15.2798 35.5748C15.2248 35.5638 15.1707 35.5518 15.1176 35.5389C15.0654 35.5279 15.0152 35.5159 14.9631 35.503C14.911 35.491 14.8608 35.479 14.8096 35.4661C14.7372 35.4471 14.6638 35.4292 14.5914 35.4103C14.4215 35.3644 14.2525 35.3165 14.0845 35.2657C14.0179 35.2458 13.9523 35.2258 13.8866 35.2039C13.877 35.2019 13.8673 35.1989 13.8576 35.1949C13.791 35.174 13.7244 35.152 13.6588 35.1291C13.5699 35.0992 13.4811 35.0693 13.3933 35.0374C13.3334 35.0155 13.2726 34.9935 13.2127 34.9706C13.1364 34.9437 13.0621 34.9148 12.9858 34.8849C12.9192 34.8589 12.8526 34.832 12.786 34.8051C12.7792 34.8031 12.7725 34.8001 12.7647 34.7961C12.619 34.7363 12.4732 34.6735 12.3283 34.6097C12.1835 34.5469 12.0406 34.4791 11.8987 34.4103C11.8282 34.3754 11.7568 34.3405 11.6863 34.3056C11.6168 34.2697 11.5454 34.2338 11.4758 34.198C11.4063 34.1611 11.3368 34.1242 11.2673 34.0863C11.1901 34.0444 11.1148 34.0035 11.0404 33.9597C10.9777 33.9258 10.9168 33.8899 10.856 33.854C10.7884 33.8151 10.7208 33.7742 10.6533 33.7344C10.5857 33.6925 10.5191 33.6526 10.4515 33.6097C10.4476 33.6078 10.4428 33.6048 10.4389 33.6018C10.3762 33.5629 10.3153 33.523 10.2526 33.4831C10.156 33.4213 10.0614 33.3575 9.96681 33.2937C9.86641 33.2249 9.76696 33.1561 9.66752 33.0853C9.66462 33.0833 9.66076 33.0814 9.65786 33.0784C9.59801 33.0345 9.53622 32.9906 9.47732 32.9468C9.4136 32.8999 9.35085 32.8531 9.28809 32.8052C9.22534 32.7583 9.16355 32.7105 9.10079 32.6616C8.91156 32.5131 8.72522 32.3596 8.54178 32.2C8.48675 32.1532 8.43172 32.1053 8.37669 32.0565C8.3178 32.0036 8.25987 31.9518 8.20097 31.898C8.13339 31.8371 8.06677 31.7743 8.00016 31.7115C7.95285 31.6657 7.90554 31.6198 7.85727 31.5739C7.80224 31.5201 7.7472 31.4673 7.69314 31.4124C7.63618 31.3556 7.57921 31.2978 7.52322 31.239C7.48653 31.2021 7.45081 31.1642 7.41315 31.1253C7.34171 31.0495 7.27026 30.9728 7.19882 30.894C7.15248 30.8442 7.1071 30.7923 7.06172 30.7415C7.00283 30.6747 6.94297 30.6079 6.88504 30.5401C6.83291 30.4803 6.7827 30.4205 6.73153 30.3587C6.68036 30.2988 6.63112 30.238 6.58188 30.1752C6.53071 30.1144 6.48244 30.0516 6.43417 29.9898C6.38493 29.928 6.33666 29.8652 6.28838 29.8024C6.19184 29.6757 6.09819 29.5481 6.00647 29.4195C5.90992 29.2849 5.81723 29.1503 5.72455 29.0128C5.684 28.9519 5.64442 28.8901 5.60387 28.8283C5.60387 28.8283 5.6058 28.8293 5.60676 28.8303C4.10739 26.5174 3.17475 23.7757 3.02221 20.8187C3.00772 20.5326 3 20.2465 3 19.9574C3 11.1442 9.91854 4 18.4533 4C19.9208 4 21.34 4.21136 22.6859 4.60516C24.2557 5.06675 25.7232 5.77758 27.0459 6.69379C27.0614 6.70376 27.0768 6.71473 27.0923 6.72569C27.1811 6.7875 27.2699 6.85031 27.3568 6.91412C27.4244 6.96197 27.491 7.01182 27.5576 7.06266C27.6049 7.09856 27.6513 7.13445 27.6996 7.17034C27.8984 7.32287 28.0925 7.48139 28.2827 7.64389C28.3204 7.67679 28.359 7.70969 28.3966 7.7416C28.6476 7.95993 28.8929 8.18624 29.1304 8.42152C29.169 8.4604 29.2086 8.50028 29.2472 8.53916C29.336 8.62789 29.4239 8.71762 29.5088 8.80934C29.5494 8.85221 29.589 8.89408 29.6286 8.93695C29.8023 9.12438 29.9723 9.31679 30.1364 9.51419C30.1634 9.54609 30.1914 9.57899 30.2175 9.6109C30.5911 10.0635 30.9426 10.5391 31.265 11.0346C31.2998 11.0884 31.3345 11.1402 31.3683 11.1951C31.5624 11.4981 31.7468 11.8092 31.9187 12.1262C31.9515 12.1851 31.9833 12.2439 32.0133 12.3027C32.0818 12.4313 32.1484 12.5609 32.2131 12.6905C32.2421 12.7473 32.2691 12.8042 32.2962 12.862C32.4091 13.0953 32.5163 13.3326 32.6176 13.5718C32.6418 13.6287 32.6659 13.6865 32.6891 13.7443C32.7876 13.9836 32.8793 14.2248 32.9662 14.4701C32.9845 14.5199 33.0019 14.5718 33.0203 14.6226C33.0444 14.6944 33.0685 14.7662 33.0917 14.839C33.112 14.8998 33.1322 14.9626 33.1516 15.0244C33.1718 15.0862 33.1902 15.149 33.2085 15.2108C33.223 15.2597 33.2384 15.3075 33.252 15.3574C33.2742 15.4341 33.2964 15.5109 33.3176 15.5887C33.334 15.6515 33.3514 15.7153 33.3688 15.7781C33.3852 15.8409 33.4016 15.9047 33.4171 15.9685C33.4499 16.0961 33.4798 16.2237 33.5078 16.3523C33.5204 16.4062 33.5319 16.458 33.5426 16.5119C33.5551 16.5677 33.5667 16.6235 33.5773 16.6794C33.5947 16.7601 33.6102 16.8419 33.6246 16.9236C33.6372 16.9924 33.6497 17.0612 33.6613 17.131C33.669 17.1699 33.6748 17.2107 33.6816 17.2496C33.6893 17.2925 33.6961 17.3354 33.7028 17.3782C33.7115 17.4271 33.7183 17.4759 33.725 17.5258C33.7357 17.5916 33.7453 17.6574 33.754 17.7242C33.7675 17.8288 33.781 17.9335 33.7926 18.0392C33.7975 18.0821 33.8032 18.1239 33.8071 18.1668C33.8177 18.2685 33.8283 18.3692 33.837 18.4709C33.8419 18.5287 33.8477 18.5855 33.8515 18.6434C33.866 18.8318 33.8776 19.0212 33.8863 19.2106C33.8892 19.2824 33.893 19.3562 33.895 19.428C33.895 19.4359 33.8959 19.4429 33.895 19.4499C33.8979 19.5307 33.8998 19.6124 33.9017 19.6932V19.6982C33.9027 19.7829 33.9037 19.8696 33.9037 19.9554L33.9046 19.9574Z"
        fill="#354378" />
      <path
        d="M18.6678 25.6376C20.0946 25.4703 21.1194 24.1403 20.9569 22.6671C20.7943 21.1938 19.5059 20.1351 18.0791 20.3025C16.6524 20.4698 15.6275 21.7998 15.7901 23.273C15.9526 24.7463 17.241 25.8049 18.6678 25.6376Z"
        fill="url(#paint0_linear_27_2)" />
      <path
        d="M17.4348 25.4743C16.4134 24.6817 16.089 23.2122 16.7271 22.0268C17.3653 20.8404 18.745 20.3499 19.9364 20.8275C19.8417 20.7537 19.7413 20.6859 19.6351 20.6241C18.38 19.9033 16.7976 20.3699 16.0996 21.6659C15.4016 22.962 15.8534 24.596 17.1085 25.3168C17.2147 25.3776 17.3238 25.4294 17.4348 25.4743Z"
        fill="black" />
      <path
        d="M24.9676 8.86519C24.731 9.30385 24.1961 9.46137 23.7713 9.21812C23.3465 8.97386 23.194 8.42154 23.4296 7.98288C23.6661 7.54422 24.201 7.3867 24.6258 7.62996C25.0506 7.87421 25.2031 8.42653 24.9676 8.86519Z"
        fill="url(#paint1_linear_27_2)" />
      <path
        d="M23.6418 8.10495C23.8581 7.70318 24.3244 7.53768 24.7279 7.69919C24.6961 7.67427 24.6623 7.65133 24.6256 7.6304C24.2008 7.38614 23.665 7.54466 23.4294 7.98332C23.1928 8.42199 23.3464 8.9753 23.7712 9.21856C23.8069 9.23949 23.8445 9.25644 23.8812 9.2714C23.5356 9.00321 23.4255 8.50573 23.6418 8.10495Z"
        fill="black" />
      <path
        d="M29.4105 15.1077C28.9731 15.9202 27.9797 16.2133 27.1928 15.7617C26.406 15.31 26.1221 14.2842 26.5595 13.4716C26.9968 12.6591 27.9903 12.366 28.7771 12.8176C29.564 13.2693 29.8478 14.2951 29.4105 15.1077Z"
        fill="url(#paint2_linear_27_2)" />
      <path
        d="M26.9533 13.6972C27.354 12.9534 28.2191 12.6454 28.9663 12.9445C28.9065 12.8986 28.8437 12.8557 28.7771 12.8169C27.9902 12.3652 26.9968 12.6573 26.5594 13.4709C26.1221 14.2834 26.4049 15.3093 27.1928 15.7609C27.2594 15.7988 27.3279 15.8317 27.3974 15.8596C26.7564 15.3621 26.5536 14.4409 26.9533 13.6972Z"
        fill="black" />
      <path
        d="M20.8736 14.4321C20.9577 13.3995 20.2152 12.4922 19.2152 12.4057C18.2152 12.3191 17.3364 13.086 17.2523 14.1186C17.1682 15.1512 17.9106 16.0585 18.9106 16.145C19.9106 16.2316 20.7895 15.4647 20.8736 14.4321Z"
        fill="url(#paint3_linear_27_2)" />
      <path
        d="M17.9146 13.6171C18.3606 12.7886 19.3251 12.4457 20.1583 12.7786C20.0917 12.7268 20.0222 12.6799 19.9479 12.6371C19.0703 12.1336 17.9638 12.4596 17.4763 13.3659C16.9887 14.2721 17.3044 15.4146 18.182 15.9181C18.2564 15.9609 18.3326 15.9968 18.4099 16.0277C17.6964 15.4734 17.4695 14.4466 17.9156 13.6181L17.9146 13.6171Z"
        fill="black" />
      <path
        d="M10.748 17.695C10.9034 16.375 9.99306 15.1753 8.71469 15.0153C7.43633 14.8554 6.27404 15.7958 6.11864 17.1158C5.96325 18.4358 6.8736 19.6355 8.15196 19.7955C9.43033 19.9554 10.5926 19.015 10.748 17.695Z"
        fill="url(#paint4_linear_27_2)" />
      <path
        d="M6.95837 16.5589C7.53089 15.4951 8.76862 15.0555 9.83643 15.4832C9.75147 15.4174 9.66168 15.3556 9.5661 15.3007C8.44036 14.6547 7.02112 15.0734 6.3955 16.2349C5.76988 17.3973 6.17538 18.8629 7.30015 19.5089C7.39573 19.5637 7.49324 19.6106 7.59268 19.6505C6.67645 18.9396 6.38585 17.6216 6.95837 16.5579V16.5589Z"
        fill="black" />
      <path
        d="M19.0314 33.8322C19.0821 32.934 18.4181 32.1636 17.5483 32.1115C16.6785 32.0593 15.9323 32.7451 15.8816 33.6433C15.8309 34.5414 16.4949 35.3118 17.3647 35.364C18.2345 35.4162 18.9807 34.7304 19.0314 33.8322Z"
        fill="url(#paint5_linear_27_2)" />
      <path
        d="M16.457 33.1627C16.8441 32.4429 17.6812 32.1448 18.4043 32.4349C18.3464 32.3901 18.2856 32.3492 18.2209 32.3113C17.4591 31.8737 16.4985 32.1568 16.0756 32.9434C15.6528 33.73 15.926 34.722 16.6877 35.1586C16.7524 35.1955 16.819 35.2274 16.8857 35.2544C16.2658 34.7728 16.0689 33.8815 16.456 33.1617L16.457 33.1627Z"
        fill="black" />
      <path
        d="M12.2376 32.4703C11.9663 32.9738 11.3513 33.1552 10.8638 32.8751C10.3762 32.5949 10.2005 31.9599 10.4718 31.4564C10.7431 30.9529 11.3581 30.7715 11.8457 31.0516C12.3332 31.3318 12.5089 31.9668 12.2376 32.4703Z"
        fill="url(#paint6_linear_27_2)" />
      <path
        d="M10.7162 31.597C10.9643 31.1364 11.5001 30.9459 11.9636 31.1314C11.9269 31.1025 11.8883 31.0765 11.8468 31.0526C11.3592 30.7725 10.7442 30.9539 10.4729 31.4574C10.2016 31.9608 10.3773 32.5959 10.8649 32.8761C10.9064 32.9 10.9489 32.9199 10.9913 32.9369C10.5945 32.6288 10.4681 32.0575 10.7162 31.597Z"
        fill="black" />
      <path
        d="M17.4128 10.8964C18.7714 10.6729 19.6973 9.35454 19.4809 7.95166C19.2645 6.54878 17.9878 5.59266 16.6292 5.81611C15.2706 6.03956 14.3447 7.35796 14.5611 8.76084C14.7775 10.1637 16.0543 11.1198 17.4128 10.8964Z"
        fill="url(#paint7_linear_27_2)" />
      <path
        d="M15.4458 7.45144C16.058 6.31491 17.3797 5.84434 18.5209 6.30195C18.4301 6.23116 18.3336 6.16636 18.2322 6.10754C17.0292 5.41764 15.5125 5.86428 14.8444 7.10649C14.1763 8.34871 14.6088 9.91493 15.8118 10.6048C15.9141 10.6637 16.0184 10.7135 16.1246 10.7554C15.1456 9.99569 14.8347 8.58798 15.4468 7.45144H15.4458Z"
        fill="black" />
      <path
        d="M7.82513 22.9312C7.94296 21.9959 7.30417 21.1394 6.39836 21.0181C5.49254 20.8968 4.66271 21.5567 4.54489 22.492C4.42706 23.4273 5.06585 24.2839 5.97167 24.4052C6.87748 24.5264 7.70731 23.8665 7.82513 22.9312Z"
        fill="url(#paint8_linear_27_2)" />
      <path
        d="M5.13767 22.1108C5.54413 21.3561 6.42174 21.044 7.17963 21.3481C7.11978 21.3012 7.05605 21.2584 6.98751 21.2195C6.18906 20.7609 5.18208 21.058 4.73893 21.8825C4.29482 22.707 4.58253 23.7468 5.38097 24.2044C5.44855 24.2433 5.51807 24.2762 5.58854 24.3041C4.93878 23.7996 4.73217 22.8655 5.13864 22.1108H5.13767Z"
        fill="black" />
      <path
        d="M15.2239 20.1131C14.8222 20.8598 13.9099 21.128 13.1867 20.7133C12.4636 20.2985 12.2039 19.3564 12.6055 18.6097C13.0072 17.863 13.9195 17.5948 14.6427 18.0095C15.3658 18.4242 15.6255 19.3664 15.2239 20.1131Z"
        fill="url(#paint9_linear_27_2)" />
      <path
        d="M12.9676 18.818C13.3354 18.1351 14.13 17.852 14.8164 18.1271C14.7614 18.0843 14.7044 18.0454 14.6427 18.0105C13.9195 17.5957 13.0081 17.8639 12.6055 18.6107C12.2039 19.3574 12.4636 20.2985 13.1867 20.7142C13.2485 20.7491 13.3113 20.779 13.375 20.805C12.787 20.3484 12.5997 19.5019 12.9676 18.819V18.818Z"
        fill="black" />
      <path
        d="M26.4368 29.5965C26.0284 30.3552 25.1016 30.6283 24.3678 30.2066C23.6331 29.7849 23.3685 28.8278 23.7769 28.0691C24.1853 27.3104 25.1122 27.0373 25.8459 27.459C26.5807 27.8807 26.8452 28.8378 26.4368 29.5965Z"
        fill="url(#paint10_linear_27_2)" />
      <path
        d="M24.1438 28.2805C24.5175 27.5866 25.3246 27.2994 26.0226 27.5786C25.9676 27.5357 25.9087 27.4959 25.8459 27.46C25.1112 27.0382 24.1844 27.3114 23.7769 28.0701C23.3685 28.8288 23.6331 29.7859 24.3678 30.2076C24.4306 30.2435 24.4943 30.2734 24.559 30.2993C23.9613 29.8347 23.7711 28.9753 24.1448 28.2815L24.1438 28.2805Z"
        fill="black" />
      <path
        d="M19.2315 29.9856C18.9207 30.5638 18.2139 30.7722 17.654 30.4502C17.094 30.1291 16.8922 29.3994 17.2041 28.8211C17.5149 28.2429 18.2217 28.0345 18.7816 28.3565C19.3416 28.6776 19.5434 29.4073 19.2315 29.9856Z"
        fill="url(#paint11_linear_27_2)" />
      <path
        d="M17.484 28.9822C17.7689 28.4528 18.3839 28.2345 18.9158 28.4468C18.8733 28.4139 18.8289 28.384 18.7816 28.3561C18.2217 28.0351 17.5159 28.2424 17.2041 28.8207C16.8922 29.3989 17.094 30.1277 17.654 30.4497C17.7013 30.4766 17.7505 30.5006 17.7997 30.5195C17.344 30.1656 17.1992 29.5106 17.484 28.9812V28.9822Z"
        fill="black" />
      <path
        d="M10.8108 27.5806C10.6099 27.9544 10.1533 28.089 9.79122 27.8806C9.42917 27.6733 9.29883 27.2017 9.50061 26.8278C9.70143 26.454 10.1581 26.3194 10.5201 26.5278C10.8822 26.7351 11.0125 27.2067 10.8108 27.5806Z"
        fill="url(#paint12_linear_27_2)" />
      <path
        d="M9.68126 26.9329C9.86566 26.5909 10.2634 26.4493 10.6071 26.5869C10.5801 26.566 10.5511 26.546 10.5203 26.5281C10.1582 26.3207 9.70153 26.4553 9.50072 26.8282C9.2999 27.202 9.43024 27.6736 9.79132 27.881C9.82222 27.8989 9.85311 27.9139 9.88497 27.9258C9.59051 27.6975 9.49686 27.2738 9.68126 26.9319V26.9329Z"
        fill="black" />
      <path
        d="M30.8355 23.6029C30.5777 24.0815 29.9927 24.2539 29.5292 23.9878C29.0658 23.7216 28.8988 23.1174 29.1566 22.6389C29.4144 22.1603 29.9994 21.9878 30.4629 22.254C30.9263 22.5202 31.0933 23.1244 30.8355 23.6029Z"
        fill="url(#paint13_linear_27_2)" />
      <path
        d="M29.3883 22.7715C29.6239 22.3338 30.1336 22.1523 30.5739 22.3288C30.5391 22.3019 30.5015 22.276 30.4629 22.254C29.9994 21.9878 29.4144 22.1603 29.1566 22.6389C28.8988 23.1174 29.0658 23.7216 29.5292 23.9878C29.5688 24.0107 29.6084 24.0296 29.6499 24.0456C29.2724 23.7525 29.1527 23.2101 29.3883 22.7715Z"
        fill="black" />
      <path
        d="M13.7841 12.2353C13.7929 11.3159 13.0781 10.5638 12.1877 10.5555C11.2973 10.5472 10.5683 11.2858 10.5596 12.2053C10.5508 13.1247 11.2655 13.8768 12.156 13.8852C13.0464 13.8935 13.7753 13.1548 13.7841 12.2353Z"
        fill="url(#paint14_linear_27_2)" />
      <path
        d="M11.1504 11.635C11.5463 10.8993 12.4017 10.5952 13.1412 10.8913C13.0823 10.8454 13.0205 10.8036 12.9539 10.7657C12.1758 10.319 11.1939 10.6081 10.7614 11.4117C10.3288 12.2152 10.6088 13.2292 11.387 13.6758C11.4526 13.7137 11.5202 13.7456 11.5888 13.7735C10.9554 13.282 10.7536 12.3708 11.1495 11.635H11.1504Z"
        fill="black" />
      <path
        d="M24.7762 19.1098C24.5522 19.5265 24.0425 19.6771 23.6389 19.4448C23.2353 19.2135 23.0896 18.6871 23.3145 18.2704C23.5385 17.8536 24.0483 17.7031 24.4518 17.9354C24.8554 18.1667 25.0012 18.6931 24.7762 19.1098Z"
        fill="url(#paint15_linear_27_2)" />
      <path
        d="M23.7443 19.4952C23.4161 19.24 23.3118 18.7674 23.5165 18.3856C23.7212 18.0037 24.1653 17.8462 24.5486 17.9997C24.5177 17.9758 24.4858 17.9539 24.452 17.9349C24.0484 17.7037 23.5387 17.8532 23.3147 18.2699C23.0907 18.6867 23.2355 19.2131 23.6391 19.4443C23.6729 19.4643 23.7086 19.4802 23.7443 19.4952Z"
        fill="black" />
      <path
        d="M8.18766 12.227C7.96271 12.6447 7.45294 12.7953 7.04841 12.563C6.64388 12.3307 6.49809 11.8043 6.72305 11.3866C6.948 10.9688 7.45777 10.8183 7.8623 11.0506C8.26683 11.2829 8.41261 11.8093 8.18766 12.227Z"
        fill="url(#paint16_linear_27_2)" />
      <path
        d="M6.9247 11.5022C7.13034 11.1204 7.57542 10.9619 7.95871 11.1154C7.92782 11.0915 7.89596 11.0696 7.8612 11.0496C7.45667 10.8173 6.9469 10.9679 6.72195 11.3856C6.49699 11.8033 6.64278 12.3297 7.04731 12.562C7.08207 12.5819 7.11682 12.5989 7.15255 12.6129C6.82332 12.3576 6.71905 11.8841 6.9247 11.5012V11.5022Z"
        fill="black" />
      <g style="mix-blend-mode:multiply" opacity="0.56">
        <path
          d="M27.045 6.6924C28.6921 9.22967 29.6528 12.2814 29.6528 15.5644C29.6528 24.3775 22.7342 31.5217 14.2005 31.5217C11.0202 31.5217 8.06588 30.5297 5.60876 28.8289C8.38159 33.1009 13.0998 35.9133 18.4543 35.9133C26.989 35.9133 33.9066 28.7691 33.9066 19.956C33.9066 14.4268 31.183 9.55468 27.046 6.69141L27.045 6.6924Z"
          fill="#354378" />
      </g>
      <g style="mix-blend-mode:screen" opacity="0.13">
        <path
          d="M25.1207 12.2937C25.1207 15.6036 23.9225 18.6264 21.9491 20.9214C20.9334 22.1038 19.7111 23.0938 18.3402 23.8306C18.1799 23.9183 18.0168 24.002 17.8507 24.0808C16.2345 24.8614 14.432 25.2971 12.529 25.2971C11.1407 25.2971 9.80641 25.0648 8.5571 24.6361C8.55613 24.6361 8.55517 24.6361 8.5542 24.6341C8.48855 24.6132 8.42386 24.5902 8.36014 24.5653C8.22112 24.5165 8.08305 24.4636 7.94596 24.4078C7.94306 24.4068 7.9392 24.4058 7.9363 24.4038C7.42267 24.1964 6.92546 23.9542 6.44659 23.682C5.14707 22.9403 3.98851 21.9682 3.02111 20.8197C3.00663 20.5336 2.9989 20.2475 2.9989 19.9584C2.99987 11.1442 9.91841 4 18.4531 4C19.9207 4 21.3399 4.21136 22.6858 4.60516C23.4369 5.66193 24.0374 6.84134 24.4555 8.10748C24.7519 9.00973 24.9546 9.95485 25.0531 10.9339C25.0985 11.3815 25.1216 11.8351 25.1216 12.2937H25.1207Z"
          fill="#CDCDCD" />
      </g>
    </g>
    <path
      d="M14.9915 23.6234L9.77601 18.648L8 20.3304L14.9915 27L30 12.6823L28.2365 11L14.9915 23.6234Z"
      fill="white" />
  </g>
  <path
    d="M18.5 0C8.288 0 0 8.288 0 18.5C0 28.712 8.288 37 18.5 37C28.712 37 37 28.712 37 18.5C37 8.288 28.712 0 18.5 0ZM18.5 33.3C10.323 33.3 3.7 26.677 3.7 18.5C3.7 10.323 10.323 3.7 18.5 3.7C26.677 3.7 33.3 10.323 33.3 18.5C33.3 26.677 26.677 33.3 18.5 33.3Z"
    fill="white" />
  <defs>
    <linearGradient id="paint0_linear_27_2" x1="18.0791" y1="20.3025" x2="18.7043" y2="25.6333"
      gradientUnits="userSpaceOnUse">
      <stop stop-color="#1A1A1A" />
      <stop offset="0.0001" stop-color="#242424" />
      <stop offset="1" />
    </linearGradient>
    <linearGradient id="paint1_linear_27_2" x1="24.1986" y1="7.51562" x2="24.1986" y2="9.33245"
      gradientUnits="userSpaceOnUse">
      <stop stop-color="#1A1A1A" />
      <stop offset="0.0001" stop-color="#242424" />
      <stop offset="1" />
    </linearGradient>
    <linearGradient id="paint2_linear_27_2" x1="27.985" y1="12.6055" x2="27.985" y2="15.9738"
      gradientUnits="userSpaceOnUse">
      <stop stop-color="#1A1A1A" />
      <stop offset="0.0001" stop-color="#242424" />
      <stop offset="1" />
    </linearGradient>
    <linearGradient id="paint3_linear_27_2" x1="17.2523" y1="14.1186" x2="20.8751" y2="14.4137"
      gradientUnits="userSpaceOnUse">
      <stop stop-color="#1A1A1A" />
      <stop offset="0.0001" stop-color="#242424" />
      <stop offset="1" />
    </linearGradient>
    <linearGradient id="paint4_linear_27_2" x1="6.11864" y1="17.1158" x2="10.752" y2="17.6612"
      gradientUnits="userSpaceOnUse">
      <stop stop-color="#1A1A1A" />
      <stop offset="0.0001" stop-color="#242424" />
      <stop offset="1" />
    </linearGradient>
    <linearGradient id="paint5_linear_27_2" x1="15.8816" y1="33.6433" x2="19.032" y2="33.8211"
      gradientUnits="userSpaceOnUse">
      <stop stop-color="#1A1A1A" />
      <stop offset="0.0001" stop-color="#242424" />
      <stop offset="1" />
    </linearGradient>
    <linearGradient id="paint6_linear_27_2" x1="11.3547" y1="30.9199" x2="11.3547" y2="33.0068"
      gradientUnits="userSpaceOnUse">
      <stop stop-color="#1A1A1A" />
      <stop offset="0.0001" stop-color="#242424" />
      <stop offset="1" />
    </linearGradient>
    <linearGradient id="paint7_linear_27_2" x1="16.6292" y1="5.81611" x2="17.4634" y2="10.8881"
      gradientUnits="userSpaceOnUse">
      <stop stop-color="#1A1A1A" />
      <stop offset="0.0001" stop-color="#242424" />
      <stop offset="1" />
    </linearGradient>
    <linearGradient id="paint8_linear_27_2" x1="4.54489" y1="22.492" x2="7.82836" y2="22.9057"
      gradientUnits="userSpaceOnUse">
      <stop stop-color="#1A1A1A" />
      <stop offset="0.0001" stop-color="#242424" />
      <stop offset="1" />
    </linearGradient>
    <linearGradient id="paint9_linear_27_2" x1="13.9147" y1="17.8145" x2="13.9147" y2="20.9083"
      gradientUnits="userSpaceOnUse">
      <stop stop-color="#1A1A1A" />
      <stop offset="0.0001" stop-color="#242424" />
      <stop offset="1" />
    </linearGradient>
    <linearGradient id="paint10_linear_27_2" x1="25.1069" y1="27.2607" x2="25.1069" y2="30.4048"
      gradientUnits="userSpaceOnUse">
      <stop stop-color="#1A1A1A" />
      <stop offset="0.0001" stop-color="#242424" />
      <stop offset="1" />
    </linearGradient>
    <linearGradient id="paint11_linear_27_2" x1="18.2178" y1="28.2051" x2="18.2178" y2="30.6016"
      gradientUnits="userSpaceOnUse">
      <stop stop-color="#1A1A1A" />
      <stop offset="0.0001" stop-color="#242424" />
      <stop offset="1" />
    </linearGradient>
    <linearGradient id="paint12_linear_27_2" x1="10.1557" y1="26.4297" x2="10.1557" y2="27.9787"
      gradientUnits="userSpaceOnUse">
      <stop stop-color="#1A1A1A" />
      <stop offset="0.0001" stop-color="#242424" />
      <stop offset="1" />
    </linearGradient>
    <linearGradient id="paint13_linear_27_2" x1="29.9961" y1="22.1289" x2="29.9961" y2="24.1129"
      gradientUnits="userSpaceOnUse">
      <stop stop-color="#1A1A1A" />
      <stop offset="0.0001" stop-color="#242424" />
      <stop offset="1" />
    </linearGradient>
    <linearGradient id="paint14_linear_27_2" x1="10.5596" y1="12.2053" x2="13.7841" y2="12.236"
      gradientUnits="userSpaceOnUse">
      <stop stop-color="#1A1A1A" />
      <stop offset="0.0001" stop-color="#242424" />
      <stop offset="1" />
    </linearGradient>
    <linearGradient id="paint15_linear_27_2" x1="24.0454" y1="17.8262" x2="24.0454" y2="19.554"
      gradientUnits="userSpaceOnUse">
      <stop stop-color="#1A1A1A" />
      <stop offset="0.0001" stop-color="#242424" />
      <stop offset="1" />
    </linearGradient>
    <linearGradient id="paint16_linear_27_2" x1="7.45535" y1="10.9414" x2="7.45535" y2="12.6722"
      gradientUnits="userSpaceOnUse">
      <stop stop-color="#1A1A1A" />
      <stop offset="0.0001" stop-color="#242424" />
      <stop offset="1" />
    </linearGradient>
    <clipPath id="clip0_27_2">
      <rect x="3" y="4" width="30.9056" height="31.9137" rx="15.4528" fill="white" />
    </clipPath>
    <clipPath id="clip1_27_2">
      <rect width="30.9056" height="31.9137" fill="white" transform="translate(3 4)" />
    </clipPath>
  </defs>
</svg>
  