<svg width="28" height="133" viewBox="0 0 28 133" fill="none" xmlns="http://www.w3.org/2000/svg">
  <path style="mix-blend-mode:screen" fill-rule="evenodd" clip-rule="evenodd"
    d="M14.9569 74.2152C14.9569 74.8496 14.4776 75.3645 13.8871 75.3645C13.2967 75.3645 12.8174 74.8496 12.8174 74.2152C12.8174 73.5809 13.2967 73.0659 13.8871 73.0659C14.4776 73.0659 14.9569 73.5809 14.9569 74.2152Z"
    fill="url(#paint0_radial_748_12234)" />
  <path style="mix-blend-mode:screen" fill-rule="evenodd" clip-rule="evenodd"
    d="M17.7958 117.06C17.7958 117.694 17.3164 118.209 16.726 118.209C16.1356 118.209 15.6562 117.694 15.6562 117.06C15.6562 116.426 16.1356 115.911 16.726 115.911C17.3164 115.911 17.7958 116.426 17.7958 117.06Z"
    fill="url(#paint1_radial_748_12234)" />
  <path style="mix-blend-mode:screen"
    d="M11.4823 88.978C11.6953 88.978 11.8679 88.7925 11.8679 88.5637C11.8679 88.3349 11.6953 88.1494 11.4823 88.1494C11.2693 88.1494 11.0967 88.3349 11.0967 88.5637C11.0967 88.7925 11.2693 88.978 11.4823 88.978Z"
    fill="url(#paint2_radial_748_12234)" />
  <path style="mix-blend-mode:screen"
    d="M11.9741 59.9064C12.2472 59.9064 12.4686 59.6685 12.4686 59.3751C12.4686 59.0816 12.2472 58.8438 11.9741 58.8438C11.7009 58.8438 11.4795 59.0816 11.4795 59.3751C11.4795 59.6685 11.7009 59.9064 11.9741 59.9064Z"
    fill="url(#paint3_radial_748_12234)" />
  <path style="mix-blend-mode:screen"
    d="M11.4819 76.4716C11.755 76.4716 11.9764 76.2337 11.9764 75.9403C11.9764 75.6468 11.755 75.4089 11.4819 75.4089C11.2087 75.4089 10.9873 75.6468 10.9873 75.9403C10.9873 76.2337 11.2087 76.4716 11.4819 76.4716Z"
    fill="url(#paint4_radial_748_12234)" />
  <path style="mix-blend-mode:screen"
    d="M11.0893 116.73C11.3624 116.73 11.5839 116.492 11.5839 116.198C11.5839 115.905 11.3624 115.667 11.0893 115.667C10.8162 115.667 10.5947 115.905 10.5947 116.198C10.5947 116.492 10.8162 116.73 11.0893 116.73Z"
    fill="url(#paint5_radial_748_12234)" />
  <path style="mix-blend-mode:screen"
    d="M19.7485 43.9379C20.0216 43.9379 20.243 43.7 20.243 43.4066C20.243 43.1131 20.0216 42.8752 19.7485 42.8752C19.4753 42.8752 19.2539 43.1131 19.2539 43.4066C19.2539 43.7 19.4753 43.9379 19.7485 43.9379Z"
    fill="url(#paint6_radial_748_12234)" />
  <path style="mix-blend-mode:screen" opacity="0.2" fill-rule="evenodd" clip-rule="evenodd"
    d="M13.8872 55.5835C13.8872 57.6784 12.3076 59.3754 10.3577 59.3754C8.4077 59.3754 6.82812 57.6784 6.82812 55.5835C6.82812 53.4885 8.4077 51.7915 10.3577 51.7915C12.3076 51.7915 13.8872 53.4885 13.8872 55.5835Z"
    fill="url(#paint7_radial_748_12234)" />
  <path style="mix-blend-mode:screen" opacity="0.4"
    d="M20.4494 124.763C24.5707 124.763 27.9116 121.174 27.9116 116.746C27.9116 112.319 24.5707 108.729 20.4494 108.729C16.3282 108.729 12.9873 112.319 12.9873 116.746C12.9873 121.174 16.3282 124.763 20.4494 124.763Z"
    fill="url(#paint8_radial_748_12234)" />
  <path style="mix-blend-mode:screen" opacity="0.41" fill-rule="evenodd" clip-rule="evenodd"
    d="M5.2617 91.0006C5.2617 92.3466 4.24642 93.4373 2.99365 93.4373C1.74088 93.4373 0.725586 92.3466 0.725586 91.0006C0.725586 89.6547 1.74088 88.564 2.99365 88.564C4.24642 88.564 5.2617 89.6547 5.2617 91.0006Z"
    fill="url(#paint9_radial_748_12234)" />
  <path style="mix-blend-mode:screen" opacity="0.5" fill-rule="evenodd" clip-rule="evenodd"
    d="M6.96947 80.5538C6.96947 81.2607 6.43567 81.8342 5.77769 81.8342C5.11972 81.8342 4.58594 81.2607 4.58594 80.5538C4.58594 79.8469 5.11972 79.2734 5.77769 79.2734C6.43567 79.2734 6.96947 79.8469 6.96947 80.5538Z"
    fill="url(#paint10_radial_748_12234)" />
  <path style="mix-blend-mode:screen" fill-rule="evenodd" clip-rule="evenodd"
    d="M8.14664 14.7421C8.15535 14.2552 8.5301 13.869 8.98328 13.8783C9.43645 13.8877 9.79594 14.2903 9.78723 14.7772C9.77851 15.2641 9.40377 15.6503 8.95059 15.6409C8.49742 15.6315 8.13792 15.2289 8.14664 14.7421Z"
    fill="url(#paint11_radial_748_12234)" />
  <path style="mix-blend-mode:screen" fill-rule="evenodd" clip-rule="evenodd"
    d="M10.7189 3.78092C10.721 3.60536 10.8583 3.46491 11.0217 3.4696C11.1851 3.47428 11.3158 3.61941 11.3115 3.79496C11.3071 3.97051 11.172 4.11096 11.0086 4.10628C10.8452 4.10394 10.7145 3.95881 10.7189 3.78092Z"
    fill="url(#paint12_radial_748_12234)" />
  <path style="mix-blend-mode:screen" fill-rule="evenodd" clip-rule="evenodd"
    d="M9.84774 26.1695C9.8521 25.9448 10.0242 25.7669 10.2334 25.7716C10.4425 25.7763 10.6081 25.9612 10.6038 26.1859C10.5994 26.4106 10.4273 26.5885 10.2181 26.5838C10.009 26.5791 9.84338 26.3942 9.84774 26.1695Z"
    fill="url(#paint13_radial_748_12234)" />
  <path style="mix-blend-mode:screen" fill-rule="evenodd" clip-rule="evenodd"
    d="M10.46 13.4666C10.4644 13.2419 10.6365 13.064 10.8457 13.0687C11.0548 13.0734 11.2204 13.2583 11.2161 13.483C11.2117 13.7077 11.0396 13.8856 10.8304 13.8809C10.6213 13.8762 10.4557 13.6913 10.46 13.4666Z"
    fill="url(#paint14_radial_748_12234)" />
  <path style="mix-blend-mode:screen" fill-rule="evenodd" clip-rule="evenodd"
    d="M3.65829 38.2969C3.66264 38.0722 3.83477 37.8943 4.04393 37.899C4.25308 37.9037 4.41866 38.0886 4.4143 38.3133C4.40994 38.538 4.23783 38.7159 4.02867 38.7113C3.81952 38.7066 3.65393 38.5216 3.65829 38.2969Z"
    fill="url(#paint15_radial_748_12234)" />
  <path style="mix-blend-mode:screen" opacity="0.2" fill-rule="evenodd" clip-rule="evenodd"
    d="M8.7046 29.056C8.7351 27.4479 9.97044 26.1723 11.4672 26.2027C12.964 26.2355 14.1514 27.5626 14.1231 29.1707C14.0926 30.7788 12.8573 32.0545 11.3605 32.024C9.86368 31.9913 8.67627 30.6641 8.7046 29.056Z"
    fill="url(#paint16_radial_748_12234)" />
  <path style="mix-blend-mode:screen" opacity="0.41" fill-rule="evenodd" clip-rule="evenodd"
    d="M15.8217 2.01824C15.8413 0.985983 16.6343 0.164388 17.5973 0.185455C18.5581 0.206521 19.3229 1.05855 19.3033 2.09314C19.2837 3.1254 18.4906 3.94698 17.5276 3.92591C16.5668 3.90485 15.802 3.05284 15.8217 2.01824Z"
    fill="url(#paint17_radial_748_12234)" />
  <path style="mix-blend-mode:screen" opacity="0.5" fill-rule="evenodd" clip-rule="evenodd"
    d="M14.3664 10.0072C14.3772 9.4642 14.7934 9.03351 15.2989 9.04287C15.8043 9.05224 16.2052 9.50165 16.1965 10.0447C16.1856 10.5877 15.7695 11.0184 15.264 11.0091C14.7585 10.9974 14.3576 10.5503 14.3664 10.0072Z"
    fill="url(#paint18_radial_748_12234)" />
  <path style="mix-blend-mode:screen" opacity="0.5" fill-rule="evenodd" clip-rule="evenodd"
    d="M7.61204 131.6C7.61204 132.307 7.07826 132.88 6.42029 132.88C5.76231 132.88 5.22852 132.307 5.22852 131.6C5.22852 130.893 5.76231 130.32 6.42029 130.32C7.07826 130.32 7.61204 130.893 7.61204 131.6Z"
    fill="url(#paint19_radial_748_12234)" />
  <defs>
    <radialGradient id="paint0_radial_748_12234" cx="0" cy="0" r="1" gradientUnits="userSpaceOnUse"
      gradientTransform="translate(13.8871 74.2152) scale(0.108936 0.117036)">
      <stop offset="0.02" stop-color="#4A70B7" />
      <stop offset="0.35" stop-color="#496EB4" />
      <stop offset="0.5" stop-color="#466AAD" />
      <stop offset="0.61" stop-color="#4162A1" />
      <stop offset="0.7" stop-color="#39578F" />
      <stop offset="0.78" stop-color="#304977" />
      <stop offset="0.85" stop-color="#24375B" />
      <stop offset="0.92" stop-color="#172239" />
      <stop offset="0.97" stop-color="#070B12" />
      <stop offset="1" />
    </radialGradient>
    <radialGradient id="paint1_radial_748_12234" cx="0" cy="0" r="1" gradientUnits="userSpaceOnUse"
      gradientTransform="translate(16.726 117.06) scale(1.06976 1.1493)">
      <stop offset="0.02" stop-color="#4A70B7" />
      <stop offset="0.35" stop-color="#496EB4" />
      <stop offset="0.5" stop-color="#466AAD" />
      <stop offset="0.61" stop-color="#4162A1" />
      <stop offset="0.7" stop-color="#39578F" />
      <stop offset="0.78" stop-color="#304977" />
      <stop offset="0.85" stop-color="#24375B" />
      <stop offset="0.92" stop-color="#172239" />
      <stop offset="0.97" stop-color="#070B12" />
      <stop offset="1" />
    </radialGradient>
    <radialGradient id="paint2_radial_748_12234" cx="0" cy="0" r="1" gradientUnits="userSpaceOnUse"
      gradientTransform="translate(11.4823 88.5637) scale(0.385632 0.414311)">
      <stop offset="0.02" stop-color="#4A70B7" />
      <stop offset="0.35" stop-color="#496EB4" />
      <stop offset="0.5" stop-color="#466AAD" />
      <stop offset="0.61" stop-color="#4162A1" />
      <stop offset="0.7" stop-color="#39578F" />
      <stop offset="0.78" stop-color="#304977" />
      <stop offset="0.85" stop-color="#24375B" />
      <stop offset="0.92" stop-color="#172239" />
      <stop offset="0.97" stop-color="#070B12" />
      <stop offset="1" />
    </radialGradient>
    <radialGradient id="paint3_radial_748_12234" cx="0" cy="0" r="1" gradientUnits="userSpaceOnUse"
      gradientTransform="translate(11.9741 59.3751) scale(0.108937 0.117037)">
      <stop offset="0.02" stop-color="#614A96" />
      <stop offset="0.37" stop-color="#5F4893" />
      <stop offset="0.52" stop-color="#5A458C" />
      <stop offset="0.64" stop-color="#523F80" />
      <stop offset="0.73" stop-color="#47366E" />
      <stop offset="0.82" stop-color="#382A56" />
      <stop offset="0.89" stop-color="#251C3A" />
      <stop offset="0.96" stop-color="#100C18" />
      <stop offset="1" />
    </radialGradient>
    <radialGradient id="paint4_radial_748_12234" cx="0" cy="0" r="1" gradientUnits="userSpaceOnUse"
      gradientTransform="translate(11.4819 75.9403) scale(0.494569 0.53134)">
      <stop offset="0.02" stop-color="#614A96" />
      <stop offset="0.37" stop-color="#5F4893" />
      <stop offset="0.52" stop-color="#5A458C" />
      <stop offset="0.64" stop-color="#523F80" />
      <stop offset="0.73" stop-color="#47366E" />
      <stop offset="0.82" stop-color="#382A56" />
      <stop offset="0.89" stop-color="#251C3A" />
      <stop offset="0.96" stop-color="#100C18" />
      <stop offset="1" />
    </radialGradient>
    <radialGradient id="paint5_radial_748_12234" cx="0" cy="0" r="1" gradientUnits="userSpaceOnUse"
      gradientTransform="translate(11.0893 116.198) scale(0.494575 0.531333)">
      <stop offset="0.02" stop-color="#614A96" />
      <stop offset="0.37" stop-color="#5F4893" />
      <stop offset="0.52" stop-color="#5A458C" />
      <stop offset="0.64" stop-color="#523F80" />
      <stop offset="0.73" stop-color="#47366E" />
      <stop offset="0.82" stop-color="#382A56" />
      <stop offset="0.89" stop-color="#251C3A" />
      <stop offset="0.96" stop-color="#100C18" />
      <stop offset="1" />
    </radialGradient>
    <radialGradient id="paint6_radial_748_12234" cx="0" cy="0" r="1" gradientUnits="userSpaceOnUse"
      gradientTransform="translate(19.7485 43.4066) scale(0.494569 0.53134)">
      <stop offset="0.02" stop-color="#614A96" />
      <stop offset="0.37" stop-color="#5F4893" />
      <stop offset="0.52" stop-color="#5A458C" />
      <stop offset="0.64" stop-color="#523F80" />
      <stop offset="0.73" stop-color="#47366E" />
      <stop offset="0.82" stop-color="#382A56" />
      <stop offset="0.89" stop-color="#251C3A" />
      <stop offset="0.96" stop-color="#100C18" />
      <stop offset="1" />
    </radialGradient>
    <radialGradient id="paint7_radial_748_12234" cx="0" cy="0" r="1" gradientUnits="userSpaceOnUse"
      gradientTransform="translate(10.3577 55.5835) scale(3.52954 3.79196)">
      <stop offset="0.02" stop-color="#4C427C" />
      <stop offset="0.2" stop-color="#493F78" />
      <stop offset="0.38" stop-color="#42396C" />
      <stop offset="0.55" stop-color="#362E58" />
      <stop offset="0.72" stop-color="#24203C" />
      <stop offset="0.9" stop-color="#0F0D18" />
      <stop offset="1" />
    </radialGradient>
    <radialGradient id="paint8_radial_748_12234" cx="0" cy="0" r="1" gradientUnits="userSpaceOnUse"
      gradientTransform="translate(20.4494 116.746) scale(7.46214 8.01695)">
      <stop offset="0.02" stop-color="#4C427C" />
      <stop offset="0.22" stop-color="#3B3360" />
      <stop offset="0.75" stop-color="#100E1B" />
      <stop offset="1" />
    </radialGradient>
    <radialGradient id="paint9_radial_748_12234" cx="0" cy="0" r="1" gradientUnits="userSpaceOnUse"
      gradientTransform="translate(2.99364 91.0007) scale(2.26806 2.43669)">
      <stop offset="0.02" stop-color="#4C427C" />
      <stop offset="0.2" stop-color="#493F78" />
      <stop offset="0.38" stop-color="#42396C" />
      <stop offset="0.55" stop-color="#362E58" />
      <stop offset="0.72" stop-color="#24203C" />
      <stop offset="0.9" stop-color="#0F0D18" />
      <stop offset="1" />
    </radialGradient>
    <radialGradient id="paint10_radial_748_12234" cx="0" cy="0" r="1" gradientUnits="userSpaceOnUse"
      gradientTransform="translate(5.77552 80.5538) scale(1.19176 1.28037)">
      <stop offset="0.02" stop-color="#4C427C" />
      <stop offset="0.2" stop-color="#493F78" />
      <stop offset="0.38" stop-color="#42396C" />
      <stop offset="0.55" stop-color="#362E58" />
      <stop offset="0.72" stop-color="#24203C" />
      <stop offset="0.9" stop-color="#0F0D18" />
      <stop offset="1" />
    </radialGradient>
    <radialGradient id="paint11_radial_748_12234" cx="0" cy="0" r="1" gradientUnits="userSpaceOnUse"
      gradientTransform="translate(8.95743 14.7408) rotate(-178.786) scale(0.821408 0.882419)">
      <stop offset="0.02" stop-color="#4A70B7" />
      <stop offset="0.35" stop-color="#496EB4" />
      <stop offset="0.5" stop-color="#466AAD" />
      <stop offset="0.61" stop-color="#4162A1" />
      <stop offset="0.7" stop-color="#39578F" />
      <stop offset="0.78" stop-color="#304977" />
      <stop offset="0.85" stop-color="#24375B" />
      <stop offset="0.92" stop-color="#172239" />
      <stop offset="0.97" stop-color="#070B12" />
      <stop offset="1" />
    </radialGradient>
    <radialGradient id="paint12_radial_748_12234" cx="0" cy="0" r="1" gradientUnits="userSpaceOnUse"
      gradientTransform="translate(11.0059 3.76944) rotate(-178.786) scale(0.296319 0.318331)">
      <stop offset="0.02" stop-color="#4A70B7" />
      <stop offset="0.35" stop-color="#496EB4" />
      <stop offset="0.5" stop-color="#466AAD" />
      <stop offset="0.61" stop-color="#4162A1" />
      <stop offset="0.7" stop-color="#39578F" />
      <stop offset="0.78" stop-color="#304977" />
      <stop offset="0.85" stop-color="#24375B" />
      <stop offset="0.92" stop-color="#172239" />
      <stop offset="0.97" stop-color="#070B12" />
      <stop offset="1" />
    </radialGradient>
    <radialGradient id="paint13_radial_748_12234" cx="0" cy="0" r="1" gradientUnits="userSpaceOnUse"
      gradientTransform="translate(10.2161 26.1597) rotate(-178.786) scale(0.379113 0.407269)">
      <stop offset="0.02" stop-color="#614A96" />
      <stop offset="0.37" stop-color="#5F4893" />
      <stop offset="0.52" stop-color="#5A458C" />
      <stop offset="0.64" stop-color="#523F80" />
      <stop offset="0.73" stop-color="#47366E" />
      <stop offset="0.82" stop-color="#382A56" />
      <stop offset="0.89" stop-color="#251C3A" />
      <stop offset="0.96" stop-color="#100C18" />
      <stop offset="1" />
    </radialGradient>
    <radialGradient id="paint14_radial_748_12234" cx="0" cy="0" r="1" gradientUnits="userSpaceOnUse"
      gradientTransform="translate(10.8286 13.4556) rotate(-178.786) scale(0.379113 0.407276)">
      <stop offset="0.02" stop-color="#614A96" />
      <stop offset="0.37" stop-color="#5F4893" />
      <stop offset="0.52" stop-color="#5A458C" />
      <stop offset="0.64" stop-color="#523F80" />
      <stop offset="0.73" stop-color="#47366E" />
      <stop offset="0.82" stop-color="#382A56" />
      <stop offset="0.89" stop-color="#251C3A" />
      <stop offset="0.96" stop-color="#100C18" />
      <stop offset="1" />
    </radialGradient>
    <radialGradient id="paint15_radial_748_12234" cx="0" cy="0" r="1" gradientUnits="userSpaceOnUse"
      gradientTransform="translate(4.02719 38.2871) rotate(-178.786) scale(0.379107 0.407276)">
      <stop offset="0.02" stop-color="#614A96" />
      <stop offset="0.37" stop-color="#5F4893" />
      <stop offset="0.52" stop-color="#5A458C" />
      <stop offset="0.64" stop-color="#523F80" />
      <stop offset="0.73" stop-color="#47366E" />
      <stop offset="0.82" stop-color="#382A56" />
      <stop offset="0.89" stop-color="#251C3A" />
      <stop offset="0.96" stop-color="#100C18" />
      <stop offset="1" />
    </radialGradient>
    <radialGradient id="paint16_radial_748_12234" cx="0" cy="0" r="1" gradientUnits="userSpaceOnUse"
      gradientTransform="translate(11.4027 29.0976) rotate(-178.786) scale(2.70824 2.90942)">
      <stop offset="0.02" stop-color="#4C427C" />
      <stop offset="0.2" stop-color="#493F78" />
      <stop offset="0.38" stop-color="#42396C" />
      <stop offset="0.55" stop-color="#362E58" />
      <stop offset="0.72" stop-color="#24203C" />
      <stop offset="0.9" stop-color="#0F0D18" />
      <stop offset="1" />
    </radialGradient>
    <radialGradient id="paint17_radial_748_12234" cx="0" cy="0" r="1" gradientUnits="userSpaceOnUse"
      gradientTransform="translate(17.5536 2.03748) rotate(-178.786) scale(1.74085 1.87017)">
      <stop offset="0.02" stop-color="#4C427C" />
      <stop offset="0.2" stop-color="#493F78" />
      <stop offset="0.38" stop-color="#42396C" />
      <stop offset="0.55" stop-color="#362E58" />
      <stop offset="0.72" stop-color="#24203C" />
      <stop offset="0.9" stop-color="#0F0D18" />
      <stop offset="1" />
    </radialGradient>
    <radialGradient id="paint18_radial_748_12234" cx="0" cy="0" r="1" gradientUnits="userSpaceOnUse"
      gradientTransform="translate(15.2696 10.0101) rotate(-178.786) scale(0.915095 0.983067)">
      <stop offset="0.02" stop-color="#4C427C" />
      <stop offset="0.2" stop-color="#493F78" />
      <stop offset="0.38" stop-color="#42396C" />
      <stop offset="0.55" stop-color="#362E58" />
      <stop offset="0.72" stop-color="#24203C" />
      <stop offset="0.9" stop-color="#0F0D18" />
      <stop offset="1" />
    </radialGradient>
    <radialGradient id="paint19_radial_748_12234" cx="0" cy="0" r="1" gradientUnits="userSpaceOnUse"
      gradientTransform="translate(6.42028 131.6) scale(1.19176 1.28036)">
      <stop offset="0.02" stop-color="#4C427C" />
      <stop offset="0.2" stop-color="#493F78" />
      <stop offset="0.38" stop-color="#42396C" />
      <stop offset="0.55" stop-color="#362E58" />
      <stop offset="0.72" stop-color="#24203C" />
      <stop offset="0.9" stop-color="#0F0D18" />
      <stop offset="1" />
    </radialGradient>
  </defs>
</svg>
  