<svg width="37" height="37" viewBox="0 0 37 37" fill="none" xmlns="http://www.w3.org/2000/svg">
  <g clip-path="url(#clip0_739_10503)">
    <rect width="37" height="37" rx="18.5" fill="#0F0D18" />
    <g opacity="0.2" clip-path="url(#clip1_739_10503)">
      <path
        d="M36.9988 18.5006C36.9988 28.7172 28.716 37 18.4994 37C18.4 37 18.2995 36.9988 18.2012 36.9977H18.1954C18.1018 36.9965 18.007 36.9942 17.9134 36.9896C17.9053 36.9908 17.8972 36.9896 17.888 36.9896C17.8048 36.9873 17.7192 36.9838 17.636 36.9792C17.4164 36.9688 17.1968 36.9549 16.9783 36.9376C16.9113 36.933 16.8454 36.926 16.7784 36.9202C16.6605 36.9098 16.5437 36.8971 16.4258 36.8844C16.331 36.874 16.2374 36.8625 16.1438 36.8497C16.1357 36.8497 16.1276 36.8486 16.1184 36.8463C16.0271 36.8359 15.9357 36.8232 15.8456 36.8093C15.7346 36.7943 15.6225 36.7769 15.5115 36.7584C15.4306 36.7457 15.3497 36.7318 15.27 36.718C15.1844 36.7029 15.0977 36.6868 15.0122 36.6694C14.9903 36.666 14.9706 36.6613 14.9486 36.6567C14.8654 36.6417 14.7834 36.6255 14.7013 36.607C14.6354 36.5943 14.5707 36.5804 14.5071 36.5654C14.4447 36.5527 14.3846 36.5388 14.3222 36.5238C14.2598 36.5099 14.1997 36.4961 14.1384 36.481C14.0517 36.4591 13.9639 36.4383 13.8772 36.4163C13.6737 36.3631 13.4715 36.3076 13.2703 36.2487C13.1906 36.2256 13.112 36.2025 13.0334 36.177C13.0218 36.1747 13.0103 36.1713 12.9987 36.1666C12.919 36.1424 12.8392 36.1169 12.7606 36.0903C12.6543 36.0557 12.5479 36.021 12.4428 35.984C12.3711 35.9586 12.2983 35.9332 12.2266 35.9066C12.1353 35.8754 12.0463 35.8418 11.955 35.8072C11.8752 35.7771 11.7955 35.7459 11.7157 35.7147C11.7076 35.7124 11.6995 35.7089 11.6903 35.7043C11.5158 35.6349 11.3412 35.5621 11.1678 35.4881C10.9945 35.4153 10.8234 35.3367 10.6535 35.257C10.5691 35.2165 10.4836 35.1761 10.3992 35.1356C10.316 35.094 10.2305 35.0524 10.1472 35.0108C10.064 34.968 9.98079 34.9252 9.89757 34.8813C9.8051 34.8328 9.71494 34.7854 9.62594 34.7345C9.55081 34.6952 9.47799 34.6536 9.40517 34.612C9.32426 34.5669 9.24335 34.5195 9.16244 34.4733C9.08153 34.4248 9.00178 34.3785 8.92087 34.3288C8.91625 34.3265 8.91047 34.323 8.90585 34.3196C8.83072 34.2745 8.7579 34.2283 8.68277 34.182C8.56718 34.1104 8.45391 34.0364 8.34063 33.9624C8.22043 33.8827 8.10137 33.8029 7.98232 33.7208C7.97885 33.7185 7.97423 33.7162 7.97076 33.7128C7.8991 33.6619 7.82512 33.611 7.75462 33.5602C7.67833 33.5059 7.6032 33.4515 7.52807 33.3961C7.45294 33.3417 7.37896 33.2862 7.30383 33.2296C7.07729 33.0574 6.85421 32.8794 6.63459 32.6945C6.56871 32.6401 6.50283 32.5846 6.43694 32.528C6.36644 32.4668 6.29709 32.4066 6.22658 32.3442C6.14567 32.2737 6.06592 32.2009 5.98616 32.1281C5.92952 32.0749 5.87289 32.0217 5.8151 31.9686C5.74921 31.9062 5.68333 31.8449 5.6186 31.7813C5.55041 31.7154 5.48221 31.6484 5.41517 31.5802C5.37125 31.5374 5.32848 31.4935 5.2834 31.4484C5.19787 31.3606 5.11234 31.2716 5.0268 31.1803C4.97132 31.1225 4.917 31.0624 4.86267 31.0034C4.79217 30.926 4.7205 30.8486 4.65115 30.77C4.58874 30.7006 4.52863 30.6313 4.46737 30.5596C4.40611 30.4902 4.34716 30.4197 4.28821 30.3469C4.22695 30.2764 4.16916 30.2036 4.11137 30.1319C4.05242 30.0603 3.99463 29.9874 3.93683 29.9146C3.82125 29.7678 3.70913 29.6199 3.59933 29.4708C3.48374 29.3147 3.37278 29.1587 3.26182 28.9992C3.21327 28.9287 3.16588 28.857 3.11733 28.7854C3.11733 28.7854 3.11965 28.7865 3.1208 28.7877C1.32576 26.1061 0.209209 22.9275 0.0265846 19.4992C0.00924682 19.1675 0 18.8358 0 18.5006C0 8.28284 8.28284 0 18.5006 0C20.2575 0 21.9566 0.245041 23.5678 0.701603C25.4473 1.23676 27.2041 2.06089 28.7877 3.12311C28.8062 3.13467 28.8247 3.14739 28.8431 3.1601C28.9495 3.23176 29.0558 3.30458 29.1599 3.37856C29.2408 3.43404 29.3205 3.49183 29.4003 3.55078C29.4569 3.59239 29.5124 3.634 29.5702 3.67561C29.8083 3.85246 30.0406 4.03624 30.2683 4.22464C30.3134 4.26278 30.3596 4.30093 30.4047 4.33792C30.7052 4.59105 30.9988 4.85343 31.2832 5.12621C31.3294 5.17129 31.3768 5.21752 31.423 5.2626C31.5294 5.36547 31.6345 5.4695 31.7362 5.57583C31.7848 5.62554 31.8322 5.67408 31.8796 5.72378C32.0876 5.94108 32.2911 6.16416 32.4876 6.39302C32.5199 6.43001 32.5534 6.46815 32.5846 6.50514C33.032 7.0299 33.4527 7.58124 33.8387 8.1557C33.8804 8.21811 33.922 8.27822 33.9624 8.34179C34.1947 8.69317 34.4155 9.05379 34.6213 9.42136C34.6606 9.48955 34.6987 9.55775 34.7345 9.62594C34.8166 9.77505 34.8963 9.92531 34.9738 10.0756C35.0085 10.1415 35.0408 10.2073 35.0732 10.2744C35.2084 10.5448 35.3367 10.8199 35.4581 11.0973C35.487 11.1632 35.5159 11.2303 35.5436 11.2973C35.6615 11.5747 35.7713 11.8544 35.8754 12.1388C35.8973 12.1966 35.9181 12.2567 35.9401 12.3156C35.969 12.3988 35.9979 12.4821 36.0256 12.5664C36.0499 12.6369 36.0742 12.7098 36.0973 12.7814C36.1216 12.8531 36.1435 12.9259 36.1655 12.9976C36.1828 13.0542 36.2013 13.1097 36.2175 13.1675C36.2441 13.2565 36.2707 13.3455 36.2961 13.4356C36.3157 13.5085 36.3365 13.5824 36.3573 13.6552C36.377 13.7281 36.3966 13.802 36.4151 13.876C36.4544 14.024 36.4903 14.1719 36.5238 14.321C36.5388 14.3834 36.5527 14.4435 36.5654 14.506C36.5804 14.5707 36.5943 14.6354 36.607 14.7001C36.6278 14.7938 36.6463 14.8885 36.6637 14.9833C36.6787 15.0631 36.6937 15.1428 36.7076 15.2237C36.7168 15.2688 36.7238 15.3162 36.7318 15.3613C36.7411 15.411 36.7492 15.4607 36.7573 15.5104C36.7677 15.567 36.7758 15.6237 36.7839 15.6815C36.7966 15.7577 36.8081 15.834 36.8185 15.9115C36.8347 16.0328 36.8509 16.1542 36.8648 16.2767C36.8705 16.3264 36.8775 16.375 36.8821 16.4247C36.8948 16.5426 36.9075 16.6593 36.9179 16.7772C36.9237 16.8442 36.9306 16.9101 36.9353 16.9772C36.9526 17.1956 36.9665 17.4152 36.9769 17.6348C36.9804 17.7181 36.985 17.8036 36.9873 17.8868C36.9873 17.8961 36.9884 17.9042 36.9873 17.9123C36.9908 18.0059 36.9931 18.1007 36.9954 18.1943V18.2001C36.9965 18.2983 36.9977 18.3989 36.9977 18.4983L36.9988 18.5006Z"
        fill="#354378" />
      <path
        d="M18.7554 25.0857C20.4635 24.8913 21.6907 23.3491 21.4963 21.6411C21.302 19.933 19.7598 18.7058 18.0517 18.9001C16.3437 19.0944 15.1165 20.6366 15.3108 22.3447C15.5051 24.0528 17.0473 25.28 18.7554 25.0857Z"
        fill="url(#paint0_linear_739_10503)" />
      <path
        d="M17.2806 24.897C16.0577 23.9781 15.6693 22.2744 16.4333 20.9001C17.1973 19.5246 18.8491 18.956 20.2754 19.5096C20.1621 19.4241 20.0419 19.3455 19.9148 19.2738C18.4121 18.4381 16.5177 18.9791 15.682 20.4817C14.8463 21.9843 15.3873 23.8787 16.8899 24.7144C17.017 24.7849 17.1476 24.845 17.2806 24.897Z"
        fill="black" />
      <path
        d="M26.299 5.64156C26.0158 6.15013 25.3755 6.33276 24.8669 6.05073C24.3583 5.76755 24.1757 5.1272 24.4577 4.61863C24.7409 4.11005 25.3813 3.92743 25.8898 4.20946C26.3984 4.49264 26.581 5.13298 26.299 5.64156Z"
        fill="url(#paint1_linear_739_10503)" />
      <path
        d="M24.7116 4.75967C24.9705 4.29386 25.5288 4.10199 26.0119 4.28924C25.9738 4.26034 25.9333 4.23375 25.8894 4.20948C25.3808 3.9263 24.7393 4.11008 24.4573 4.61865C24.1741 5.12723 24.3579 5.76873 24.8665 6.05076C24.9092 6.07503 24.9543 6.09468 24.9982 6.11202C24.5844 5.80109 24.4527 5.22432 24.7116 4.75967Z"
        fill="black" />
      <path
        d="M31.6182 12.8785C31.0946 13.8205 29.9052 14.1604 28.9632 13.6368C28.0212 13.1132 27.6814 11.9238 28.205 10.9818C28.7286 10.0397 29.9179 9.69992 30.86 10.2235C31.802 10.7471 32.1418 11.9365 31.6182 12.8785Z"
        fill="url(#paint2_linear_739_10503)" />
      <path
        d="M28.6768 11.2429C29.1565 10.3806 30.1921 10.0235 31.0867 10.3702C31.0151 10.3171 30.9399 10.2674 30.8602 10.2223C29.9182 9.69869 28.7288 10.0374 28.2052 10.9805C27.6816 11.9226 28.0203 13.1119 28.9634 13.6355C29.0432 13.6794 29.1253 13.7176 29.2085 13.75C28.441 13.1732 28.1983 12.1052 28.6768 11.2429Z"
        fill="black" />
      <path
        d="M21.3973 12.0955C21.4978 10.8984 20.6088 9.84635 19.4116 9.74582C18.2144 9.64529 17.1624 10.5343 17.0619 11.7315C16.9614 12.9287 17.8504 13.9807 19.0476 14.0812C20.2447 14.1817 21.2967 13.2927 21.3973 12.0955Z"
        fill="url(#paint3_linear_739_10503)" />
      <path
        d="M17.8548 11.1496C18.3888 10.1891 19.5435 9.7915 20.541 10.1776C20.4613 10.1174 20.3781 10.0631 20.2891 10.0134C19.2384 9.42971 17.9138 9.80768 17.3301 10.8583C16.7464 11.909 17.1243 13.2336 18.175 13.8173C18.264 13.867 18.3553 13.9086 18.4478 13.9445C17.5936 13.3018 17.322 12.1113 17.856 11.1508L17.8548 11.1496Z"
        fill="black" />
      <path
        d="M9.2749 15.8791C9.46064 14.3487 8.37057 12.9575 6.84017 12.7718C5.30976 12.586 3.91854 13.6761 3.7328 15.2065C3.54706 16.7369 4.63713 18.1281 6.16753 18.3139C7.69794 18.4996 9.08916 17.4095 9.2749 15.8791Z"
        fill="url(#paint4_linear_739_10503)" />
      <path
        d="M4.7388 14.5615C5.42422 13.3282 6.90602 12.8184 8.1844 13.3143C8.08268 13.238 7.97519 13.1664 7.86076 13.1028C6.51304 12.3538 4.81393 12.8392 4.06494 14.1858C3.31595 15.5335 3.80141 17.2326 5.14797 17.9816C5.2624 18.0452 5.37914 18.0995 5.4982 18.1458C4.40129 17.3216 4.05338 15.7936 4.7388 14.5603V14.5615Z"
        fill="black" />
      <path
        d="M19.1922 34.5864C19.2528 33.5451 18.4577 32.6518 17.4164 32.5912C16.3751 32.5306 15.4818 33.3256 15.4212 34.367C15.3606 35.4083 16.1557 36.3016 17.197 36.3621C18.2383 36.4227 19.1316 35.6277 19.1922 34.5864Z"
        fill="url(#paint5_linear_739_10503)" />
      <path
        d="M16.1097 33.81C16.5732 32.9755 17.5754 32.6299 18.4411 32.9662C18.3718 32.9142 18.2989 32.8668 18.2215 32.8229C17.3095 32.3155 16.1594 32.6437 15.6532 33.5557C15.1469 34.4677 15.474 35.6177 16.386 36.124C16.4634 36.1668 16.5432 36.2038 16.6229 36.235C15.8809 35.6767 15.6451 34.6434 16.1086 33.8088L16.1097 33.81Z"
        fill="black" />
      <path
        d="M11.0588 33.0077C10.734 33.5914 9.99768 33.8018 9.41397 33.477C8.83027 33.1522 8.6199 32.4159 8.9447 31.8322C9.26949 31.2485 10.0058 31.0381 10.5895 31.3629C11.1732 31.6877 11.3835 32.424 11.0588 33.0077Z"
        fill="url(#paint6_linear_739_10503)" />
      <path
        d="M9.23695 31.9952C9.534 31.4612 10.1755 31.2405 10.7303 31.4554C10.6864 31.4219 10.6402 31.3919 10.5905 31.3641C10.0067 31.0393 9.27047 31.2497 8.94568 31.8334C8.62088 32.4171 8.83125 33.1534 9.41495 33.4782C9.46465 33.5059 9.51551 33.529 9.56637 33.5487C9.09131 33.1915 8.9399 32.5292 9.23695 31.9952Z"
        fill="black" />
      <path
        d="M17.2542 7.99534C18.8807 7.73628 19.9892 6.20776 19.7301 4.58129C19.4711 2.95483 17.9425 1.84633 16.3161 2.10539C14.6896 2.36445 13.5811 3.89297 13.8402 5.51944C14.0992 7.14591 15.6278 8.25441 17.2542 7.99534Z"
        fill="url(#paint7_linear_739_10503)" />
      <path
        d="M14.8998 4.00174C15.6326 2.68407 17.215 2.13851 18.5812 2.66904C18.4726 2.58698 18.357 2.51185 18.2356 2.44365C16.7954 1.6438 14.9796 2.16162 14.1797 3.60182C13.3799 5.04201 13.8977 6.85785 15.3379 7.6577C15.4604 7.7259 15.5853 7.78369 15.7124 7.83224C14.5404 6.95148 14.1682 5.31941 14.901 4.00174H14.8998Z"
        fill="black" />
      <path
        d="M5.77573 21.9501C5.91657 20.8657 5.15166 19.8724 4.06726 19.7316C2.98286 19.5908 1.9896 20.3557 1.84876 21.4401C1.70792 22.5245 2.47283 23.5177 3.55724 23.6586C4.64164 23.7994 5.63489 23.0345 5.77573 21.9501Z"
        fill="url(#paint8_linear_739_10503)" />
      <path
        d="M2.55837 20.9972C3.04499 20.1222 4.09566 19.7604 5.003 20.1129C4.93134 20.0586 4.85505 20.0089 4.77299 19.9638C3.8171 19.4321 2.61154 19.7766 2.08101 20.7325C1.54931 21.6884 1.89376 22.8939 2.84965 23.4244C2.93056 23.4695 3.01378 23.5077 3.09816 23.54C2.32027 22.9552 2.07292 21.8721 2.55953 20.9972H2.55837Z"
        fill="black" />
      <path
        d="M14.6343 18.6809C14.1534 19.5466 13.0611 19.8575 12.1954 19.3767C11.3297 18.8958 11.0187 17.8036 11.4996 16.9378C11.9804 16.0721 13.0727 15.7612 13.9384 16.242C14.8042 16.7228 15.1151 17.8151 14.6343 18.6809Z"
        fill="url(#paint9_linear_739_10503)" />
      <path
        d="M11.933 17.1795C12.3734 16.3877 13.3247 16.0594 14.1465 16.3785C14.0806 16.3288 14.0124 16.2837 13.9384 16.2432C13.0727 15.7624 11.9816 16.0733 11.4996 16.9391C11.0187 17.8048 11.3297 18.8959 12.1954 19.3779C12.2694 19.4184 12.3445 19.453 12.4208 19.4831C11.7169 18.9537 11.4926 17.9724 11.933 17.1806V17.1795Z"
        fill="black" />
      <path
        d="M28.0578 29.6765C27.5688 30.5561 26.4592 30.8728 25.5808 30.3839C24.7012 29.8949 24.3845 28.7853 24.8734 27.9057C25.3623 27.0261 26.4719 26.7094 27.3504 27.1983C28.23 27.6873 28.5467 28.7969 28.0578 29.6765Z"
        fill="url(#paint10_linear_739_10503)" />
      <path
        d="M25.3126 28.1508C25.7599 27.3464 26.7262 27.0135 27.5619 27.3371C27.496 27.2874 27.4255 27.2412 27.3504 27.1996C26.4708 26.7106 25.3612 27.0273 24.8734 27.9069C24.3845 28.7865 24.7012 29.8962 25.5808 30.3851C25.6559 30.4267 25.7322 30.4614 25.8096 30.4914C25.0942 29.9528 24.8665 28.9565 25.3138 28.152L25.3126 28.1508Z"
        fill="black" />
      <path
        d="M19.432 30.1275C19.0598 30.7979 18.2137 31.0395 17.5433 30.6661C16.8729 30.2939 16.6314 29.4479 17.0047 28.7775C17.3769 28.1071 18.223 27.8655 18.8934 28.2388C19.5638 28.611 19.8053 29.4571 19.432 30.1275Z"
        fill="url(#paint11_linear_739_10503)" />
      <path
        d="M17.3399 28.9647C17.6809 28.3509 18.4172 28.0978 19.054 28.344C19.0032 28.3059 18.95 28.2712 18.8934 28.2388C18.223 27.8666 17.378 28.107 17.0047 28.7774C16.6314 29.4478 16.8729 30.2928 17.5433 30.6661C17.6 30.6973 17.6589 30.7251 17.7179 30.747C17.1723 30.3367 16.9989 29.5773 17.3399 28.9635V28.9647Z"
        fill="black" />
      <path
        d="M9.35016 27.3394C9.10975 27.7729 8.56303 27.9289 8.12958 27.6873C7.69614 27.4469 7.5401 26.9002 7.78167 26.4667C8.02209 26.0333 8.56881 25.8773 9.00225 26.1188C9.4357 26.3592 9.59174 26.906 9.35016 27.3394Z"
        fill="url(#paint12_linear_739_10503)" />
      <path
        d="M7.99804 26.5881C8.21881 26.1916 8.69502 26.0275 9.1065 26.187C9.07414 26.1627 9.03946 26.1396 9.00248 26.1188C8.56903 25.8784 8.02231 26.0344 7.7819 26.4667C7.54148 26.9002 7.69752 27.4469 8.12981 27.6873C8.16679 27.7081 8.20378 27.7254 8.24192 27.7393C7.88939 27.4746 7.77727 26.9834 7.99804 26.5869V26.5881Z"
        fill="black" />
      <path
        d="M33.324 22.7275C33.0154 23.2823 32.315 23.4823 31.7602 23.1737C31.2054 22.865 31.0054 22.1646 31.314 21.6098C31.6226 21.055 32.3231 20.855 32.8779 21.1636C33.4327 21.4722 33.6327 22.1727 33.324 22.7275Z"
        fill="url(#paint13_linear_739_10503)" />
      <path
        d="M31.5914 21.7635C31.8735 21.2561 32.4837 21.0457 33.0108 21.2503C32.9692 21.2191 32.9241 21.1891 32.8779 21.1636C32.3231 20.855 31.6226 21.055 31.314 21.6098C31.0054 22.1646 31.2054 22.865 31.7602 23.1737C31.8076 23.2002 31.855 23.2222 31.9047 23.2407C31.4527 22.9009 31.3094 22.2721 31.5914 21.7635Z"
        fill="black" />
      <path
        d="M12.9098 9.54931C12.9199 8.4833 12.0638 7.61098 10.9978 7.60093C9.93181 7.59088 9.05949 8.44691 9.04944 9.51293C9.03939 10.5789 9.89542 11.4513 10.9614 11.4613C12.0275 11.4714 12.8998 10.6153 12.9098 9.54931Z"
        fill="url(#paint14_linear_739_10503)" />
      <path
        d="M9.75811 8.85245C10.232 7.99943 11.2561 7.6469 12.1415 7.99018C12.071 7.93702 11.997 7.88847 11.9172 7.84455C10.9856 7.32673 9.81012 7.66192 9.2923 8.59354C8.77448 9.52516 9.10968 10.7007 10.0413 11.2185C10.1199 11.2624 10.2008 11.2994 10.2829 11.3318C9.52463 10.7619 9.28305 9.70547 9.75695 8.85245H9.75811Z"
        fill="black" />
      <path
        d="M26.0699 17.518C25.8018 18.0011 25.1915 18.1757 24.7084 17.9064C24.2252 17.6382 24.0507 17.0279 24.32 16.5448C24.5881 16.0616 25.1984 15.8871 25.6816 16.1564C26.1647 16.4246 26.3393 17.0349 26.0699 17.518Z"
        fill="url(#paint15_linear_739_10503)" />
      <path
        d="M24.8348 17.9653C24.4418 17.6694 24.317 17.1215 24.562 16.6788C24.8071 16.2361 25.3388 16.0535 25.7976 16.2315C25.7606 16.2038 25.7225 16.1783 25.682 16.1564C25.1989 15.8882 24.5886 16.0616 24.3204 16.5448C24.0523 17.0279 24.2257 17.6382 24.7088 17.9063C24.7493 17.9295 24.792 17.948 24.8348 17.9653Z"
        fill="black" />
      <path
        d="M6.21009 9.5381C5.94078 10.0224 5.33049 10.1969 4.84619 9.92762C4.36188 9.65831 4.18735 9.04802 4.45666 8.56372C4.72598 8.07941 5.33627 7.90488 5.82057 8.17419C6.30487 8.44351 6.47941 9.0538 6.21009 9.5381Z"
        fill="url(#paint16_linear_739_10503)" />
      <path
        d="M4.69842 8.69773C4.94461 8.25504 5.47746 8.07126 5.93634 8.24926C5.89935 8.22152 5.8612 8.19609 5.81959 8.17297C5.33529 7.90366 4.725 8.07819 4.45569 8.5625C4.18637 9.0468 4.36091 9.65709 4.84521 9.9264C4.88682 9.94952 4.92843 9.96917 4.9712 9.98535C4.57705 9.68945 4.45222 9.14042 4.69842 8.69657V8.69773Z"
        fill="black" />
      <g style="mix-blend-mode:multiply" opacity="0.56">
        <path
          d="M28.7864 3.12201C30.7583 6.06365 31.9084 9.60172 31.9084 13.4079C31.9084 23.6257 23.6256 31.9085 13.409 31.9085C9.6016 31.9085 6.06469 30.7584 3.12305 28.7866C6.44266 33.7394 12.0913 37 18.5017 37C28.7194 37 37.0011 28.7172 37.0011 18.4995C37.0011 12.0891 33.7404 6.44046 28.7876 3.12085L28.7864 3.12201Z"
          fill="#354378" />
      </g>
      <g style="mix-blend-mode:screen" opacity="0.13">
        <path
          d="M26.4831 9.61554C26.4831 13.453 25.0487 16.9575 22.6861 19.6183C21.4701 20.9891 20.0068 22.1369 18.3655 22.9911C18.1737 23.0928 17.9783 23.1899 17.7795 23.2812C15.8446 24.1862 13.6866 24.6913 11.4084 24.6913C9.74633 24.6913 8.14894 24.422 6.65327 23.925C6.65211 23.925 6.65096 23.925 6.6498 23.9227C6.5712 23.8984 6.49376 23.8718 6.41747 23.8429C6.25103 23.7863 6.08574 23.725 5.92161 23.6603C5.91815 23.6591 5.91352 23.658 5.91005 23.6557C5.29514 23.4153 4.69988 23.1344 4.12657 22.8188C2.5708 21.9589 1.18377 20.8319 0.0256081 19.5004C0.00827026 19.1687 -0.000976562 18.8369 -0.000976562 18.5017C0.00017929 8.28284 8.28302 0 18.5008 0C20.2577 0 21.9568 0.245041 23.568 0.701603C24.4673 1.92681 25.1862 3.29418 25.6867 4.76211C26.0415 5.80816 26.2843 6.90391 26.4022 8.03896C26.4565 8.55793 26.4842 9.08385 26.4842 9.61554H26.4831Z"
          fill="#CDCDCD" />
      </g>
    </g>
  </g>
  <defs>
    <linearGradient id="paint0_linear_739_10503" x1="18.0517" y1="18.9001" x2="18.7554" y2="25.0857"
      gradientUnits="userSpaceOnUse">
      <stop stop-color="#1A1A1A" />
      <stop offset="0.0001" stop-color="#242424" />
      <stop offset="1" />
    </linearGradient>
    <linearGradient id="paint1_linear_739_10503" x1="25.3784" y1="4.0769" x2="25.3784" y2="6.18328"
      gradientUnits="userSpaceOnUse">
      <stop stop-color="#1A1A1A" />
      <stop offset="0.0001" stop-color="#242424" />
      <stop offset="1" />
    </linearGradient>
    <linearGradient id="paint2_linear_739_10503" x1="29.9116" y1="9.97754" x2="29.9116" y2="13.8827"
      gradientUnits="userSpaceOnUse">
      <stop stop-color="#1A1A1A" />
      <stop offset="0.0001" stop-color="#242424" />
      <stop offset="1" />
    </linearGradient>
    <linearGradient id="paint3_linear_739_10503" x1="17.0619" y1="11.7315" x2="21.3973" y2="12.0955"
      gradientUnits="userSpaceOnUse">
      <stop stop-color="#1A1A1A" />
      <stop offset="0.0001" stop-color="#242424" />
      <stop offset="1" />
    </linearGradient>
    <linearGradient id="paint4_linear_739_10503" x1="3.7328" y1="15.2065" x2="9.2749" y2="15.8791"
      gradientUnits="userSpaceOnUse">
      <stop stop-color="#1A1A1A" />
      <stop offset="0.0001" stop-color="#242424" />
      <stop offset="1" />
    </linearGradient>
    <linearGradient id="paint5_linear_739_10503" x1="15.4212" y1="34.367" x2="19.1922" y2="34.5864"
      gradientUnits="userSpaceOnUse">
      <stop stop-color="#1A1A1A" />
      <stop offset="0.0001" stop-color="#242424" />
      <stop offset="1" />
    </linearGradient>
    <linearGradient id="paint6_linear_739_10503" x1="10.0017" y1="31.2102" x2="10.0017" y2="33.6297"
      gradientUnits="userSpaceOnUse">
      <stop stop-color="#1A1A1A" />
      <stop offset="0.0001" stop-color="#242424" />
      <stop offset="1" />
    </linearGradient>
    <linearGradient id="paint7_linear_739_10503" x1="16.3161" y1="2.10539" x2="17.2542" y2="7.99534"
      gradientUnits="userSpaceOnUse">
      <stop stop-color="#1A1A1A" />
      <stop offset="0.0001" stop-color="#242424" />
      <stop offset="1" />
    </linearGradient>
    <linearGradient id="paint8_linear_739_10503" x1="1.84876" y1="21.4401" x2="5.77573" y2="21.9501"
      gradientUnits="userSpaceOnUse">
      <stop stop-color="#1A1A1A" />
      <stop offset="0.0001" stop-color="#242424" />
      <stop offset="1" />
    </linearGradient>
    <linearGradient id="paint9_linear_739_10503" x1="13.0669" y1="16.0159" x2="13.0669" y2="19.6028"
      gradientUnits="userSpaceOnUse">
      <stop stop-color="#1A1A1A" />
      <stop offset="0.0001" stop-color="#242424" />
      <stop offset="1" />
    </linearGradient>
    <linearGradient id="paint10_linear_739_10503" x1="26.4656" y1="26.9685" x2="26.4656"
      y2="30.6137" gradientUnits="userSpaceOnUse">
      <stop stop-color="#1A1A1A" />
      <stop offset="0.0001" stop-color="#242424" />
      <stop offset="1" />
    </linearGradient>
    <linearGradient id="paint11_linear_739_10503" x1="18.2184" y1="28.0632" x2="18.2184"
      y2="30.8417" gradientUnits="userSpaceOnUse">
      <stop stop-color="#1A1A1A" />
      <stop offset="0.0001" stop-color="#242424" />
      <stop offset="1" />
    </linearGradient>
    <linearGradient id="paint12_linear_739_10503" x1="8.56592" y1="26.0051" x2="8.56592" y2="27.801"
      gradientUnits="userSpaceOnUse">
      <stop stop-color="#1A1A1A" />
      <stop offset="0.0001" stop-color="#242424" />
      <stop offset="1" />
    </linearGradient>
    <linearGradient id="paint13_linear_739_10503" x1="32.319" y1="21.0186" x2="32.319" y2="23.3187"
      gradientUnits="userSpaceOnUse">
      <stop stop-color="#1A1A1A" />
      <stop offset="0.0001" stop-color="#242424" />
      <stop offset="1" />
    </linearGradient>
    <linearGradient id="paint14_linear_739_10503" x1="9.04944" y1="9.51293" x2="12.9098"
      y2="9.54931" gradientUnits="userSpaceOnUse">
      <stop stop-color="#1A1A1A" />
      <stop offset="0.0001" stop-color="#242424" />
      <stop offset="1" />
    </linearGradient>
    <linearGradient id="paint15_linear_739_10503" x1="25.195" y1="16.0298" x2="25.195" y2="18.033"
      gradientUnits="userSpaceOnUse">
      <stop stop-color="#1A1A1A" />
      <stop offset="0.0001" stop-color="#242424" />
      <stop offset="1" />
    </linearGradient>
    <linearGradient id="paint16_linear_739_10503" x1="5.33338" y1="8.04761" x2="5.33338"
      y2="10.0542" gradientUnits="userSpaceOnUse">
      <stop stop-color="#1A1A1A" />
      <stop offset="0.0001" stop-color="#242424" />
      <stop offset="1" />
    </linearGradient>
    <clipPath id="clip0_739_10503">
      <rect width="37" height="37" rx="18.5" fill="white" />
    </clipPath>
    <clipPath id="clip1_739_10503">
      <rect width="37" height="37" fill="white" />
    </clipPath>
  </defs>
</svg>
  