<svg width="302" height="409" viewBox="0 0 302 409" fill="none" xmlns="http://www.w3.org/2000/svg">
  <g clip-path="url(#clip0_766_42046)">
    <mask id="mask0_766_42046" style="mask-type:luminance" maskUnits="userSpaceOnUse" x="0" y="0"
      width="302" height="409">
      <path
        d="M288.762 0H13.2382C5.92692 0 0 6.83947 0 15.2764V393.724C0 402.161 5.92692 409 13.2382 409H288.762C296.073 409 302 402.161 302 393.724V15.2764C302 6.83947 296.073 0 288.762 0Z"
        fill="white" />
    </mask>
    <g mask="url(#mask0_766_42046)">
      <path d="M491.193 320.453H-205.961V473.877H491.193V320.453Z" fill="#001F2B" />
      <path d="M325.88 0H-25.8398V329.498H325.88V0Z" fill="#001F2B" />
      <path style="mix-blend-mode:screen"
        d="M146.031 373.29C232.759 373.29 303.066 364.544 303.066 353.755C303.066 342.966 232.759 334.22 146.031 334.22C59.3035 334.22 -11.0032 342.966 -11.0032 353.755C-11.0032 364.544 59.3035 373.29 146.031 373.29Z"
        fill="url(#paint0_radial_766_42046)" />
      <path style="mix-blend-mode:screen" opacity="0.5"
        d="M148.134 364.574C207.971 364.574 256.478 358.873 256.478 351.84C256.478 344.807 207.971 339.105 148.134 339.105C88.2969 339.105 39.7896 344.807 39.7896 351.84C39.7896 358.873 88.2969 364.574 148.134 364.574Z"
        fill="url(#paint1_radial_766_42046)" />
      <path style="mix-blend-mode:screen" fill-rule="evenodd" clip-rule="evenodd"
        d="M156.974 188.969C156.974 190.088 156.187 190.996 155.218 190.996C154.249 190.996 153.462 190.088 153.462 188.969C153.462 187.851 154.249 186.943 155.218 186.943C156.187 186.943 156.974 187.851 156.974 188.969Z"
        fill="url(#paint2_radial_766_42046)" />
      <path style="mix-blend-mode:screen" fill-rule="evenodd" clip-rule="evenodd"
        d="M161.633 264.507C161.633 265.625 160.846 266.533 159.877 266.533C158.908 266.533 158.122 265.625 158.122 264.507C158.122 263.388 158.908 262.48 159.877 262.48C160.846 262.48 161.633 263.388 161.633 264.507Z"
        fill="url(#paint3_radial_766_42046)" />
      <path style="mix-blend-mode:screen"
        d="M151.266 214.996C151.616 214.996 151.899 214.669 151.899 214.266C151.899 213.862 151.616 213.535 151.266 213.535C150.917 213.535 150.633 213.862 150.633 214.266C150.633 214.669 150.917 214.996 151.266 214.996Z"
        fill="url(#paint4_radial_766_42046)" />
      <path style="mix-blend-mode:screen"
        d="M152.078 163.745C152.527 163.745 152.89 163.325 152.89 162.808C152.89 162.29 152.527 161.871 152.078 161.871C151.63 161.871 151.267 162.29 151.267 162.808C151.267 163.325 151.63 163.745 152.078 163.745Z"
        fill="url(#paint5_radial_766_42046)" />
      <path style="mix-blend-mode:screen"
        d="M151.266 192.948C151.715 192.948 152.078 192.528 152.078 192.011C152.078 191.494 151.715 191.074 151.266 191.074C150.818 191.074 150.455 191.494 150.455 192.011C150.455 192.528 150.818 192.948 151.266 192.948Z"
        fill="url(#paint6_radial_766_42046)" />
      <path style="mix-blend-mode:screen"
        d="M150.626 263.92C151.075 263.92 151.438 263.501 151.438 262.984C151.438 262.466 151.075 262.047 150.626 262.047C150.178 262.047 149.814 262.466 149.814 262.984C149.814 263.501 150.178 263.92 150.626 263.92Z"
        fill="url(#paint7_radial_766_42046)" />
      <path style="mix-blend-mode:screen"
        d="M164.834 135.598C165.282 135.598 165.645 135.179 165.645 134.661C165.645 134.144 165.282 133.725 164.834 133.725C164.385 133.725 164.022 134.144 164.022 134.661C164.022 135.179 164.385 135.598 164.834 135.598Z"
        fill="url(#paint8_radial_766_42046)" />
      <path style="mix-blend-mode:screen" opacity="0.2" fill-rule="evenodd" clip-rule="evenodd"
        d="M155.218 156.123C155.218 159.817 152.625 162.808 149.425 162.808C146.224 162.808 143.632 159.817 143.632 156.123C143.632 152.43 146.224 149.438 149.425 149.438C152.625 149.438 155.218 152.43 155.218 156.123Z"
        fill="url(#paint9_radial_766_42046)" />
      <path style="mix-blend-mode:screen" opacity="0.4"
        d="M165.989 278.083C172.753 278.083 178.236 271.755 178.236 263.95C178.236 256.144 172.753 249.816 165.989 249.816C159.224 249.816 153.741 256.144 153.741 263.95C153.741 271.755 159.224 278.083 165.989 278.083Z"
        fill="url(#paint10_radial_766_42046)" />
      <path style="mix-blend-mode:screen" opacity="0.41" fill-rule="evenodd" clip-rule="evenodd"
        d="M141.061 218.561C141.061 220.934 139.394 222.857 137.338 222.857C135.282 222.857 133.615 220.934 133.615 218.561C133.615 216.189 135.282 214.266 137.338 214.266C139.394 214.266 141.061 216.189 141.061 218.561Z"
        fill="url(#paint11_radial_766_42046)" />
      <path style="mix-blend-mode:screen" opacity="0.5" fill-rule="evenodd" clip-rule="evenodd"
        d="M143.864 200.144C143.864 201.39 142.988 202.401 141.908 202.401C140.828 202.401 139.952 201.39 139.952 200.144C139.952 198.898 140.828 197.887 141.908 197.887C142.988 197.887 143.864 198.898 143.864 200.144Z"
        fill="url(#paint12_radial_766_42046)" />
      <path style="mix-blend-mode:screen" fill-rule="evenodd" clip-rule="evenodd"
        d="M145.795 84.1226C145.809 83.2642 146.425 82.5834 147.168 82.5999C147.912 82.6164 148.502 83.3262 148.488 84.1845C148.474 85.0428 147.859 85.7237 147.115 85.7072C146.371 85.6907 145.781 84.9809 145.795 84.1226Z"
        fill="url(#paint13_radial_766_42046)" />
      <path style="mix-blend-mode:screen" fill-rule="evenodd" clip-rule="evenodd"
        d="M150.018 64.799C150.022 64.4895 150.247 64.2419 150.515 64.2502C150.783 64.2585 150.998 64.5143 150.991 64.8238C150.984 65.1333 150.762 65.3809 150.494 65.3726C150.226 65.3685 150.011 65.1127 150.018 64.799Z"
        fill="url(#paint14_radial_766_42046)" />
      <path style="mix-blend-mode:screen" fill-rule="evenodd" clip-rule="evenodd"
        d="M148.588 104.269C148.595 103.873 148.877 103.559 149.221 103.568C149.564 103.576 149.836 103.902 149.829 104.298C149.821 104.694 149.539 105.008 149.196 104.999C148.852 104.991 148.581 104.665 148.588 104.269Z"
        fill="url(#paint15_radial_766_42046)" />
      <path style="mix-blend-mode:screen" fill-rule="evenodd" clip-rule="evenodd"
        d="M149.593 81.8745C149.6 81.4784 149.883 81.1648 150.226 81.173C150.569 81.1813 150.841 81.5073 150.834 81.9034C150.827 82.2996 150.544 82.6132 150.201 82.6049C149.858 82.5966 149.586 82.2707 149.593 81.8745Z"
        fill="url(#paint16_radial_766_42046)" />
      <path style="mix-blend-mode:screen" fill-rule="evenodd" clip-rule="evenodd"
        d="M138.429 125.649C138.436 125.253 138.719 124.939 139.062 124.947C139.405 124.956 139.677 125.282 139.67 125.678C139.663 126.074 139.38 126.388 139.037 126.379C138.693 126.371 138.422 126.045 138.429 125.649Z"
        fill="url(#paint17_radial_766_42046)" />
      <path style="mix-blend-mode:screen" opacity="0.2" fill-rule="evenodd" clip-rule="evenodd"
        d="M146.711 109.361C146.761 106.526 148.788 104.277 151.245 104.331C153.702 104.389 155.651 106.729 155.604 109.563C155.554 112.398 153.527 114.647 151.07 114.594C148.613 114.536 146.664 112.196 146.711 109.361Z"
        fill="url(#paint18_radial_766_42046)" />
      <path style="mix-blend-mode:screen" opacity="0.41" fill-rule="evenodd" clip-rule="evenodd"
        d="M158.393 61.6917C158.425 59.8719 159.727 58.4235 161.308 58.4607C162.885 58.4978 164.14 59.9998 164.108 61.8238C164.075 63.6436 162.774 65.092 161.193 65.0548C159.616 65.0177 158.361 63.5156 158.393 61.6917Z"
        fill="url(#paint19_radial_766_42046)" />
      <path style="mix-blend-mode:screen" opacity="0.5" fill-rule="evenodd" clip-rule="evenodd"
        d="M156.001 75.7756C156.019 74.8182 156.702 74.059 157.531 74.0755C158.361 74.092 159.019 74.8843 159.005 75.8416C158.987 76.799 158.304 77.5583 157.474 77.5417C156.645 77.5211 155.987 76.7329 156.001 75.7756Z"
        fill="url(#paint20_radial_766_42046)" />
      <path style="mix-blend-mode:screen" opacity="0.5" fill-rule="evenodd" clip-rule="evenodd"
        d="M144.919 290.135C144.919 291.381 144.043 292.392 142.963 292.392C141.883 292.392 141.007 291.381 141.007 290.135C141.007 288.889 141.883 287.878 142.963 287.878C144.043 287.878 144.919 288.889 144.919 290.135Z"
        fill="url(#paint21_radial_766_42046)" />
      <path style="mix-blend-mode:screen" fill-rule="evenodd" clip-rule="evenodd"
        d="M111.538 233.087C111.538 234.205 110.751 235.113 109.782 235.113C108.813 235.113 108.026 234.205 108.026 233.087C108.026 231.968 108.813 231.061 109.782 231.061C110.751 231.061 111.538 231.968 111.538 233.087Z"
        fill="url(#paint22_radial_766_42046)" />
      <path style="mix-blend-mode:screen" fill-rule="evenodd" clip-rule="evenodd"
        d="M116.197 308.62C116.197 309.738 115.411 310.646 114.442 310.646C113.472 310.646 112.686 309.738 112.686 308.62C112.686 307.502 113.472 306.594 114.442 306.594C115.411 306.594 116.197 307.502 116.197 308.62Z"
        fill="url(#paint23_radial_766_42046)" />
      <path style="mix-blend-mode:screen"
        d="M105.834 259.113C106.184 259.113 106.467 258.786 106.467 258.383C106.467 257.979 106.184 257.652 105.834 257.652C105.485 257.652 105.201 257.979 105.201 258.383C105.201 258.786 105.485 259.113 105.834 259.113Z"
        fill="url(#paint24_radial_766_42046)" />
      <path style="mix-blend-mode:screen"
        d="M106.643 207.862C107.091 207.862 107.454 207.442 107.454 206.925C107.454 206.408 107.091 205.988 106.643 205.988C106.194 205.988 105.831 206.408 105.831 206.925C105.831 207.442 106.194 207.862 106.643 207.862Z"
        fill="url(#paint25_radial_766_42046)" />
      <path style="mix-blend-mode:screen"
        d="M105.834 237.065C106.282 237.065 106.646 236.645 106.646 236.128C106.646 235.611 106.282 235.191 105.834 235.191C105.386 235.191 105.022 235.611 105.022 236.128C105.022 236.645 105.386 237.065 105.834 237.065Z"
        fill="url(#paint26_radial_766_42046)" />
      <path style="mix-blend-mode:screen"
        d="M105.19 308.037C105.639 308.037 106.002 307.618 106.002 307.101C106.002 306.583 105.639 306.164 105.19 306.164C104.742 306.164 104.379 306.583 104.379 307.101C104.379 307.618 104.742 308.037 105.19 308.037Z"
        fill="url(#paint27_radial_766_42046)" />
      <path style="mix-blend-mode:screen"
        d="M119.401 179.71C119.85 179.71 120.213 179.291 120.213 178.774C120.213 178.256 119.85 177.837 119.401 177.837C118.953 177.837 118.59 178.256 118.59 178.774C118.59 179.291 118.953 179.71 119.401 179.71Z"
        fill="url(#paint28_radial_766_42046)" />
      <path style="mix-blend-mode:screen" opacity="0.2" fill-rule="evenodd" clip-rule="evenodd"
        d="M109.782 200.241C109.782 203.934 107.189 206.926 103.989 206.926C100.788 206.926 98.1958 203.934 98.1958 200.241C98.1958 196.547 100.788 193.556 103.989 193.556C107.189 193.556 109.782 196.547 109.782 200.241Z"
        fill="url(#paint29_radial_766_42046)" />
      <path style="mix-blend-mode:screen" opacity="0.4"
        d="M120.553 322.2C127.317 322.2 132.8 315.873 132.8 308.067C132.8 300.261 127.317 293.934 120.553 293.934C113.789 293.934 108.305 300.261 108.305 308.067C108.305 315.873 113.789 322.2 120.553 322.2Z"
        fill="url(#paint30_radial_766_42046)" />
      <path style="mix-blend-mode:screen" opacity="0.41" fill-rule="evenodd" clip-rule="evenodd"
        d="M95.6248 262.679C95.6248 265.051 93.9584 266.974 91.9023 266.974C89.8461 266.974 88.1797 265.051 88.1797 262.679C88.1797 260.306 89.8461 258.383 91.9023 258.383C93.9584 258.383 95.6248 260.306 95.6248 262.679Z"
        fill="url(#paint31_radial_766_42046)" />
      <path style="mix-blend-mode:screen" opacity="0.5" fill-rule="evenodd" clip-rule="evenodd"
        d="M98.4282 244.261C98.4282 245.507 97.5521 246.518 96.4721 246.518C95.3922 246.518 94.5161 245.507 94.5161 244.261C94.5161 243.015 95.3922 242.004 96.4721 242.004C97.5521 242.004 98.4282 243.015 98.4282 244.261Z"
        fill="url(#paint32_radial_766_42046)" />
      <path style="mix-blend-mode:screen" fill-rule="evenodd" clip-rule="evenodd"
        d="M100.359 128.24C100.374 127.381 100.989 126.701 101.733 126.717C102.476 126.734 103.066 127.443 103.052 128.302C103.038 129.16 102.423 129.841 101.679 129.824C100.935 129.808 100.345 129.098 100.359 128.24Z"
        fill="url(#paint33_radial_766_42046)" />
      <path style="mix-blend-mode:screen" fill-rule="evenodd" clip-rule="evenodd"
        d="M104.582 108.916C104.586 108.607 104.811 108.359 105.08 108.367C105.348 108.376 105.562 108.631 105.555 108.941C105.548 109.25 105.326 109.498 105.058 109.49C104.79 109.486 104.575 109.23 104.582 108.916Z"
        fill="url(#paint34_radial_766_42046)" />
      <path style="mix-blend-mode:screen" fill-rule="evenodd" clip-rule="evenodd"
        d="M103.152 148.386C103.16 147.99 103.442 147.676 103.785 147.685C104.129 147.693 104.401 148.019 104.393 148.415C104.386 148.811 104.104 149.125 103.76 149.117C103.417 149.108 103.145 148.782 103.152 148.386Z"
        fill="url(#paint35_radial_766_42046)" />
      <path style="mix-blend-mode:screen" fill-rule="evenodd" clip-rule="evenodd"
        d="M104.157 125.992C104.164 125.596 104.447 125.282 104.79 125.29C105.133 125.298 105.405 125.624 105.398 126.021C105.391 126.417 105.108 126.73 104.765 126.722C104.422 126.714 104.15 126.388 104.157 125.992Z"
        fill="url(#paint36_radial_766_42046)" />
      <path style="mix-blend-mode:screen" fill-rule="evenodd" clip-rule="evenodd"
        d="M92.9931 169.766C93.0002 169.37 93.2827 169.056 93.626 169.065C93.9693 169.073 94.2411 169.399 94.2339 169.795C94.2268 170.191 93.9443 170.505 93.601 170.497C93.2577 170.488 92.9859 170.162 92.9931 169.766Z"
        fill="url(#paint37_radial_766_42046)" />
      <path style="mix-blend-mode:screen" opacity="0.2" fill-rule="evenodd" clip-rule="evenodd"
        d="M101.275 153.475C101.325 150.64 103.353 148.391 105.809 148.444C108.266 148.502 110.215 150.842 110.168 153.677C110.118 156.512 108.091 158.761 105.634 158.707C103.177 158.649 101.228 156.309 101.275 153.475Z"
        fill="url(#paint38_radial_766_42046)" />
      <path style="mix-blend-mode:screen" opacity="0.41" fill-rule="evenodd" clip-rule="evenodd"
        d="M112.957 105.809C112.99 103.989 114.291 102.541 115.872 102.578C117.449 102.615 118.704 104.117 118.672 105.941C118.64 107.761 117.338 109.209 115.757 109.172C114.18 109.135 112.925 107.633 112.957 105.809Z"
        fill="url(#paint39_radial_766_42046)" />
      <path style="mix-blend-mode:screen" opacity="0.5" fill-rule="evenodd" clip-rule="evenodd"
        d="M110.569 119.893C110.587 118.935 111.27 118.176 112.099 118.193C112.929 118.209 113.587 119.001 113.573 119.959C113.555 120.916 112.872 121.675 112.042 121.659C111.213 121.638 110.555 120.85 110.569 119.893Z"
        fill="url(#paint40_radial_766_42046)" />
      <path style="mix-blend-mode:screen" opacity="0.5" fill-rule="evenodd" clip-rule="evenodd"
        d="M99.4831 334.252C99.4831 335.499 98.607 336.51 97.5271 336.51C96.4472 336.51 95.571 335.499 95.571 334.252C95.571 333.006 96.4472 331.995 97.5271 331.995C98.607 331.995 99.4831 333.006 99.4831 334.252Z"
        fill="url(#paint41_radial_766_42046)" />
      <path style="mix-blend-mode:screen"
        d="M154.049 150.817C191.148 150.817 221.223 83.294 221.223 0.000579834C221.223 -83.2928 191.148 -150.815 154.049 -150.815C116.949 -150.815 86.8743 -83.2928 86.8743 0.000579834C86.8743 83.294 116.949 150.817 154.049 150.817Z"
        fill="url(#paint42_radial_766_42046)" />
      <path style="mix-blend-mode:screen"
        d="M153.412 154.584C291.407 154.584 403.274 85.3746 403.274 0.000488281C403.274 -85.3736 291.407 -154.583 153.412 -154.583C15.4166 -154.583 -96.4507 -85.3736 -96.4507 0.000488281C-96.4507 85.3746 15.4166 154.584 153.412 154.584Z"
        fill="url(#paint43_radial_766_42046)" />
    </g>
    <mask id="mask1_766_42046" style="mask-type:luminance" maskUnits="userSpaceOnUse" x="0" y="227"
      width="302" height="322">
      <path
        d="M30.6874 487.017C80.2682 556.57 174.327 568.43 240.774 513.508C307.221 458.586 320.894 357.679 271.313 288.126C221.732 218.573 127.673 206.713 61.2262 261.635C-5.2207 316.557 -18.8934 417.464 30.6874 487.017Z"
        fill="white" />
    </mask>
    <g mask="url(#mask1_766_42046)">
      <path d="M164.443 336.919C170.556 335.582 176.841 334.677 183.236 334.276" stroke="white"
        stroke-width="12.56" stroke-linecap="round" stroke-linejoin="round" />
      <path
        d="M48.2094 507.43C108.428 566.535 203.133 560.6 259.738 494.173C316.343 427.746 313.414 325.983 253.195 266.878C192.976 207.772 98.2714 213.708 41.6662 280.135C-14.939 346.561 -12.0095 448.325 48.2094 507.43Z"
        fill="#3B76DB" />
      <path
        d="M286.447 315.263C280.693 389.855 223.814 451.113 152.735 455.568C81.6548 460.023 21.4607 406.102 11.4404 332.499C4.23938 352.42 0.546851 374.065 1.19354 396.529C3.74894 485.296 72.7822 553.052 155.392 547.875C238.002 542.698 302.892 466.548 300.337 377.781C299.69 355.317 294.765 334.144 286.447 315.263Z"
        fill="#3062B8" />
      <path
        d="M253.342 306.448C243.021 342.556 196.805 360.831 149.373 364.418C101.875 366.815 54.8074 354.421 42.4466 319.665C29.85 285.539 74.7891 233.928 145.456 229.465C216.125 225.07 263.899 270.836 253.279 306.452L253.342 306.448Z"
        fill="#458AED" />
    </g>
    <mask id="mask2_766_42046" style="mask-type:luminance" maskUnits="userSpaceOnUse" x="0" y="227"
      width="302" height="322">
      <path
        d="M30.6874 487.017C80.2682 556.57 174.327 568.43 240.774 513.508C307.221 458.586 320.894 357.679 271.313 288.126C221.732 218.573 127.673 206.713 61.2262 261.635C-5.2207 316.557 -18.8934 417.464 30.6874 487.017Z"
        fill="white" />
    </mask>
    <g mask="url(#mask2_766_42046)">
      <path d="M164.443 336.919C170.556 335.582 176.841 334.677 183.236 334.276" stroke="white"
        stroke-width="12.56" stroke-linecap="round" stroke-linejoin="round" />
      <path
        d="M48.2094 507.43C108.428 566.535 203.133 560.6 259.738 494.173C316.343 427.746 313.414 325.983 253.195 266.878C192.976 207.772 98.2714 213.708 41.6662 280.135C-14.939 346.561 -12.0095 448.325 48.2094 507.43Z"
        fill="#3B76DB" />
      <path
        d="M286.447 315.263C280.693 389.855 223.814 451.113 152.735 455.568C81.6548 460.023 21.4607 406.102 11.4404 332.499C4.23938 352.42 0.546851 374.065 1.19354 396.529C3.74894 485.296 72.7822 553.052 155.392 547.875C238.002 542.698 302.892 466.548 300.337 377.781C299.69 355.317 294.765 334.144 286.447 315.263Z"
        fill="#3062B8" />
      <path
        d="M253.342 306.448C243.021 342.556 196.805 360.831 149.373 364.418C101.875 366.815 54.8074 354.421 42.4466 319.665C29.85 285.539 74.7891 233.928 145.456 229.465C216.125 225.07 263.899 270.836 253.279 306.452L253.342 306.448Z"
        fill="#458AED" />
    </g>
    <mask id="mask3_766_42046" style="mask-type:luminance" maskUnits="userSpaceOnUse" x="0" y="227"
      width="302" height="322">
      <path
        d="M30.6869 487.017C80.2677 556.57 174.327 568.43 240.774 513.508C307.221 458.586 320.893 357.679 271.313 288.126C221.732 218.573 127.673 206.713 61.2258 261.635C-5.22119 316.557 -18.8939 417.464 30.6869 487.017Z"
        fill="white" />
    </mask>
    <g mask="url(#mask3_766_42046)">
      <path
        d="M48.2089 507.431C108.428 566.536 203.133 560.601 259.738 494.174C316.343 427.747 313.413 325.983 253.194 266.878C192.976 207.773 98.2709 213.709 41.6657 280.136C-14.9395 346.562 -12.01 448.326 48.2089 507.431Z"
        fill="black" fill-opacity="0.5" />
    </g>
    <rect width="302" height="409" rx="6" fill="black" fill-opacity="0.6" />
    <path
      d="M73.5389 114.081H69.1912L69.1678 111.937H72.9646C73.6053 111.937 74.1482 111.843 74.5935 111.655C75.0467 111.46 75.3904 111.183 75.6248 110.823C75.8592 110.456 75.9764 110.015 75.9764 109.499C75.9764 108.929 75.867 108.464 75.6482 108.104C75.4295 107.745 75.0935 107.483 74.6404 107.319C74.1951 107.155 73.6248 107.073 72.9295 107.073H70.0818V121.792H67.1404V104.729H72.9295C73.867 104.729 74.7029 104.819 75.4373 104.999C76.1795 105.179 76.8084 105.46 77.324 105.843C77.8475 106.218 78.242 106.694 78.5076 107.272C78.781 107.851 78.9178 108.538 78.9178 109.335C78.9178 110.038 78.7498 110.683 78.4139 111.269C78.0779 111.847 77.5818 112.319 76.9256 112.687C76.2693 113.054 75.4529 113.272 74.4764 113.343L73.5389 114.081ZM73.41 121.792H68.2654L69.5896 119.46H73.41C74.074 119.46 74.6287 119.351 75.074 119.132C75.5193 118.905 75.8514 118.597 76.0701 118.206C76.2967 117.808 76.41 117.343 76.41 116.812C76.41 116.257 76.3123 115.776 76.117 115.37C75.9217 114.956 75.6131 114.64 75.1912 114.421C74.7693 114.194 74.2185 114.081 73.5389 114.081H70.2342L70.2576 111.937H74.5584L75.2264 112.745C76.1639 112.776 76.9334 112.983 77.535 113.366C78.1443 113.749 78.5975 114.245 78.8943 114.854C79.1912 115.464 79.3396 116.12 79.3396 116.823C79.3396 117.909 79.1014 118.819 78.6248 119.554C78.156 120.288 77.4803 120.847 76.5975 121.229C75.7146 121.604 74.6521 121.792 73.41 121.792ZM85.0467 109.112V121.792H82.2107V109.112H85.0467ZM82.0232 105.784C82.0232 105.354 82.1639 104.999 82.4451 104.718C82.7342 104.429 83.1326 104.284 83.6404 104.284C84.1404 104.284 84.535 104.429 84.824 104.718C85.1131 104.999 85.2576 105.354 85.2576 105.784C85.2576 106.206 85.1131 106.558 84.824 106.839C84.535 107.12 84.1404 107.261 83.6404 107.261C83.1326 107.261 82.7342 107.12 82.4451 106.839C82.1639 106.558 82.0232 106.206 82.0232 105.784ZM96.2615 109.112H98.8279V121.44C98.8279 122.581 98.5857 123.55 98.1014 124.347C97.617 125.144 96.9412 125.749 96.074 126.163C95.2068 126.585 94.2029 126.796 93.0623 126.796C92.5779 126.796 92.0389 126.726 91.4451 126.585C90.8592 126.444 90.2889 126.218 89.7342 125.905C89.1873 125.601 88.7303 125.198 88.3631 124.698L89.6873 123.034C90.1404 123.573 90.6404 123.968 91.1873 124.218C91.7342 124.468 92.3084 124.593 92.91 124.593C93.5584 124.593 94.1092 124.472 94.5623 124.229C95.0232 123.995 95.3787 123.647 95.6287 123.187C95.8787 122.726 96.0037 122.163 96.0037 121.499V111.983L96.2615 109.112ZM87.6482 115.593V115.347C87.6482 114.386 87.7654 113.511 87.9998 112.722C88.2342 111.925 88.5701 111.241 89.0076 110.671C89.4451 110.093 89.9764 109.651 90.6014 109.347C91.2264 109.034 91.9334 108.878 92.7225 108.878C93.5428 108.878 94.242 109.026 94.8201 109.323C95.406 109.62 95.8943 110.046 96.285 110.601C96.6756 111.147 96.9803 111.804 97.199 112.569C97.4256 113.327 97.5935 114.171 97.7029 115.101V115.886C97.6014 116.792 97.4295 117.62 97.1873 118.37C96.9451 119.12 96.6248 119.769 96.2264 120.315C95.8279 120.862 95.3357 121.284 94.7498 121.581C94.1717 121.878 93.4881 122.026 92.699 122.026C91.9256 122.026 91.2264 121.866 90.6014 121.546C89.9842 121.226 89.4529 120.776 89.0076 120.198C88.5701 119.62 88.2342 118.94 87.9998 118.159C87.7654 117.37 87.6482 116.515 87.6482 115.593ZM90.4725 115.347V115.593C90.4725 116.171 90.5271 116.71 90.6365 117.21C90.7537 117.71 90.9295 118.151 91.1639 118.534C91.406 118.909 91.7107 119.206 92.0779 119.425C92.4529 119.636 92.8943 119.741 93.4021 119.741C94.0662 119.741 94.6092 119.601 95.031 119.319C95.4607 119.038 95.7889 118.659 96.0154 118.183C96.2498 117.698 96.4139 117.159 96.5076 116.565V114.444C96.4607 113.983 96.3631 113.554 96.2146 113.155C96.074 112.757 95.8826 112.409 95.6404 112.112C95.3982 111.808 95.0935 111.573 94.7264 111.409C94.3592 111.237 93.9256 111.151 93.4256 111.151C92.9178 111.151 92.4764 111.261 92.1014 111.479C91.7264 111.698 91.4178 111.999 91.1756 112.382C90.9412 112.765 90.7654 113.21 90.6482 113.718C90.531 114.226 90.4725 114.769 90.4725 115.347ZM114.847 118.358C114.847 118.077 114.777 117.823 114.637 117.597C114.496 117.362 114.226 117.151 113.828 116.964C113.437 116.776 112.859 116.604 112.094 116.448C111.422 116.3 110.804 116.124 110.242 115.921C109.687 115.71 109.211 115.456 108.812 115.159C108.414 114.862 108.105 114.511 107.887 114.104C107.668 113.698 107.558 113.229 107.558 112.698C107.558 112.183 107.672 111.694 107.898 111.233C108.125 110.772 108.449 110.366 108.871 110.015C109.293 109.663 109.804 109.386 110.406 109.183C111.015 108.979 111.695 108.878 112.445 108.878C113.508 108.878 114.418 109.058 115.176 109.417C115.941 109.769 116.527 110.249 116.933 110.858C117.34 111.46 117.543 112.14 117.543 112.897H114.719C114.719 112.562 114.633 112.249 114.461 111.96C114.297 111.663 114.047 111.425 113.711 111.245C113.375 111.058 112.953 110.964 112.445 110.964C111.961 110.964 111.558 111.042 111.238 111.198C110.926 111.347 110.691 111.542 110.535 111.784C110.387 112.026 110.312 112.292 110.312 112.581C110.312 112.792 110.351 112.983 110.429 113.155C110.515 113.319 110.656 113.472 110.851 113.612C111.047 113.745 111.312 113.87 111.648 113.987C111.992 114.104 112.422 114.218 112.937 114.327C113.906 114.53 114.738 114.792 115.433 115.112C116.137 115.425 116.676 115.831 117.051 116.331C117.426 116.823 117.613 117.448 117.613 118.206C117.613 118.769 117.492 119.284 117.25 119.753C117.015 120.214 116.672 120.616 116.219 120.96C115.765 121.296 115.222 121.558 114.59 121.745C113.965 121.933 113.262 122.026 112.48 122.026C111.332 122.026 110.359 121.823 109.562 121.417C108.765 121.003 108.16 120.476 107.746 119.835C107.34 119.187 107.137 118.515 107.137 117.819H109.867C109.898 118.343 110.043 118.761 110.301 119.073C110.566 119.378 110.894 119.601 111.285 119.741C111.683 119.874 112.094 119.94 112.515 119.94C113.023 119.94 113.449 119.874 113.793 119.741C114.137 119.601 114.398 119.413 114.578 119.179C114.758 118.937 114.847 118.663 114.847 118.358ZM127.715 118.804V109.112H130.551V121.792H127.879L127.715 118.804ZM128.113 116.167L129.062 116.144C129.062 116.995 128.969 117.78 128.781 118.499C128.594 119.21 128.304 119.831 127.914 120.362C127.523 120.886 127.023 121.296 126.414 121.593C125.804 121.882 125.074 122.026 124.222 122.026C123.605 122.026 123.039 121.937 122.523 121.757C122.008 121.577 121.562 121.3 121.187 120.925C120.82 120.55 120.535 120.062 120.332 119.46C120.129 118.858 120.027 118.14 120.027 117.304V109.112H122.851V117.327C122.851 117.788 122.906 118.175 123.015 118.487C123.125 118.792 123.273 119.038 123.461 119.226C123.648 119.413 123.867 119.546 124.117 119.624C124.367 119.702 124.633 119.741 124.914 119.741C125.719 119.741 126.351 119.585 126.812 119.272C127.281 118.952 127.613 118.522 127.808 117.983C128.012 117.444 128.113 116.839 128.113 116.167ZM136.281 111.526V121.792H133.457V109.112H136.152L136.281 111.526ZM140.16 109.03L140.137 111.655C139.965 111.624 139.777 111.601 139.574 111.585C139.379 111.569 139.183 111.562 138.988 111.562C138.504 111.562 138.078 111.632 137.711 111.772C137.344 111.905 137.035 112.101 136.785 112.358C136.543 112.608 136.355 112.913 136.222 113.272C136.09 113.632 136.012 114.034 135.988 114.479L135.344 114.526C135.344 113.729 135.422 112.991 135.578 112.312C135.734 111.632 135.969 111.034 136.281 110.519C136.601 110.003 137 109.601 137.476 109.312C137.961 109.022 138.519 108.878 139.152 108.878C139.324 108.878 139.508 108.894 139.703 108.925C139.906 108.956 140.058 108.991 140.16 109.03ZM144.765 111.55V126.667H141.941V109.112H144.543L144.765 111.55ZM153.027 115.335V115.581C153.027 116.503 152.918 117.358 152.699 118.147C152.488 118.929 152.172 119.612 151.75 120.198C151.336 120.776 150.824 121.226 150.215 121.546C149.605 121.866 148.902 122.026 148.105 122.026C147.316 122.026 146.625 121.882 146.031 121.593C145.445 121.296 144.949 120.878 144.543 120.339C144.137 119.8 143.808 119.167 143.558 118.44C143.316 117.706 143.144 116.901 143.043 116.026V115.077C143.144 114.147 143.316 113.304 143.558 112.546C143.808 111.788 144.137 111.136 144.543 110.589C144.949 110.042 145.445 109.62 146.031 109.323C146.617 109.026 147.301 108.878 148.082 108.878C148.879 108.878 149.586 109.034 150.203 109.347C150.82 109.651 151.34 110.089 151.762 110.659C152.183 111.222 152.5 111.901 152.711 112.698C152.922 113.487 153.027 114.366 153.027 115.335ZM150.203 115.581V115.335C150.203 114.749 150.148 114.206 150.039 113.706C149.929 113.198 149.758 112.753 149.523 112.37C149.289 111.987 148.988 111.69 148.621 111.479C148.262 111.261 147.828 111.151 147.32 111.151C146.82 111.151 146.39 111.237 146.031 111.409C145.672 111.573 145.371 111.804 145.129 112.101C144.887 112.397 144.699 112.745 144.566 113.144C144.433 113.534 144.34 113.96 144.285 114.421V116.694C144.379 117.257 144.539 117.772 144.765 118.241C144.992 118.71 145.312 119.085 145.726 119.366C146.148 119.64 146.687 119.776 147.344 119.776C147.851 119.776 148.285 119.667 148.644 119.448C149.004 119.229 149.297 118.929 149.523 118.546C149.758 118.155 149.929 117.706 150.039 117.198C150.148 116.69 150.203 116.151 150.203 115.581ZM158.265 111.526V121.792H155.441V109.112H158.137L158.265 111.526ZM162.144 109.03L162.121 111.655C161.949 111.624 161.762 111.601 161.558 111.585C161.363 111.569 161.168 111.562 160.972 111.562C160.488 111.562 160.062 111.632 159.695 111.772C159.328 111.905 159.019 112.101 158.769 112.358C158.527 112.608 158.34 112.913 158.207 113.272C158.074 113.632 157.996 114.034 157.972 114.479L157.328 114.526C157.328 113.729 157.406 112.991 157.562 112.312C157.719 111.632 157.953 111.034 158.265 110.519C158.586 110.003 158.984 109.601 159.461 109.312C159.945 109.022 160.504 108.878 161.137 108.878C161.308 108.878 161.492 108.894 161.687 108.925C161.89 108.956 162.043 108.991 162.144 109.03ZM166.937 109.112V121.792H164.101V109.112H166.937ZM163.914 105.784C163.914 105.354 164.054 104.999 164.336 104.718C164.625 104.429 165.023 104.284 165.531 104.284C166.031 104.284 166.426 104.429 166.715 104.718C167.004 104.999 167.148 105.354 167.148 105.784C167.148 106.206 167.004 106.558 166.715 106.839C166.426 107.12 166.031 107.261 165.531 107.261C165.023 107.261 164.625 107.12 164.336 106.839C164.054 106.558 163.914 106.206 163.914 105.784ZM177.144 118.358C177.144 118.077 177.074 117.823 176.933 117.597C176.793 117.362 176.523 117.151 176.125 116.964C175.734 116.776 175.156 116.604 174.39 116.448C173.719 116.3 173.101 116.124 172.539 115.921C171.984 115.71 171.508 115.456 171.109 115.159C170.711 114.862 170.402 114.511 170.183 114.104C169.965 113.698 169.855 113.229 169.855 112.698C169.855 112.183 169.969 111.694 170.195 111.233C170.422 110.772 170.746 110.366 171.168 110.015C171.59 109.663 172.101 109.386 172.703 109.183C173.312 108.979 173.992 108.878 174.742 108.878C175.804 108.878 176.715 109.058 177.472 109.417C178.238 109.769 178.824 110.249 179.23 110.858C179.637 111.46 179.84 112.14 179.84 112.897H177.015C177.015 112.562 176.929 112.249 176.758 111.96C176.594 111.663 176.344 111.425 176.008 111.245C175.672 111.058 175.25 110.964 174.742 110.964C174.258 110.964 173.855 111.042 173.535 111.198C173.222 111.347 172.988 111.542 172.832 111.784C172.683 112.026 172.609 112.292 172.609 112.581C172.609 112.792 172.648 112.983 172.726 113.155C172.812 113.319 172.953 113.472 173.148 113.612C173.344 113.745 173.609 113.87 173.945 113.987C174.289 114.104 174.719 114.218 175.234 114.327C176.203 114.53 177.035 114.792 177.73 115.112C178.433 115.425 178.972 115.831 179.347 116.331C179.722 116.823 179.91 117.448 179.91 118.206C179.91 118.769 179.789 119.284 179.547 119.753C179.312 120.214 178.969 120.616 178.515 120.96C178.062 121.296 177.519 121.558 176.887 121.745C176.262 121.933 175.558 122.026 174.777 122.026C173.629 122.026 172.656 121.823 171.859 121.417C171.062 121.003 170.457 120.476 170.043 119.835C169.637 119.187 169.433 118.515 169.433 117.819H172.164C172.195 118.343 172.34 118.761 172.597 119.073C172.863 119.378 173.191 119.601 173.582 119.741C173.98 119.874 174.39 119.94 174.812 119.94C175.32 119.94 175.746 119.874 176.09 119.741C176.433 119.601 176.695 119.413 176.875 119.179C177.054 118.937 177.144 118.663 177.144 118.358ZM187.972 122.026C187.035 122.026 186.187 121.874 185.429 121.569C184.679 121.257 184.039 120.823 183.508 120.269C182.984 119.714 182.582 119.062 182.301 118.312C182.019 117.562 181.879 116.753 181.879 115.886V115.417C181.879 114.425 182.023 113.526 182.312 112.722C182.601 111.917 183.004 111.229 183.519 110.659C184.035 110.081 184.644 109.64 185.347 109.335C186.051 109.03 186.812 108.878 187.633 108.878C188.539 108.878 189.332 109.03 190.012 109.335C190.691 109.64 191.254 110.069 191.699 110.624C192.152 111.171 192.488 111.823 192.707 112.581C192.933 113.339 193.047 114.175 193.047 115.089V116.296H183.25V114.269H190.258V114.046C190.242 113.538 190.14 113.062 189.953 112.616C189.773 112.171 189.496 111.812 189.121 111.538C188.746 111.265 188.246 111.128 187.621 111.128C187.152 111.128 186.734 111.229 186.367 111.433C186.008 111.628 185.707 111.913 185.465 112.288C185.222 112.663 185.035 113.116 184.902 113.647C184.777 114.171 184.715 114.761 184.715 115.417V115.886C184.715 116.44 184.789 116.956 184.937 117.433C185.094 117.901 185.32 118.312 185.617 118.663C185.914 119.015 186.273 119.292 186.695 119.495C187.117 119.69 187.597 119.788 188.137 119.788C188.816 119.788 189.422 119.651 189.953 119.378C190.484 119.104 190.945 118.718 191.336 118.218L192.824 119.659C192.551 120.058 192.195 120.44 191.758 120.808C191.32 121.167 190.785 121.46 190.152 121.687C189.527 121.913 188.801 122.026 187.972 122.026ZM197.898 119.073L197.887 121.089C197.887 121.886 197.687 122.706 197.289 123.55C196.89 124.394 196.363 125.089 195.707 125.636L194.195 124.757C194.414 124.405 194.613 124.05 194.793 123.69C194.972 123.331 195.117 122.948 195.226 122.542C195.336 122.136 195.39 121.687 195.39 121.194V119.073H197.898ZM213.273 114.081H208.926L208.902 111.937H212.699C213.34 111.937 213.883 111.843 214.328 111.655C214.781 111.46 215.125 111.183 215.359 110.823C215.594 110.456 215.711 110.015 215.711 109.499C215.711 108.929 215.601 108.464 215.383 108.104C215.164 107.745 214.828 107.483 214.375 107.319C213.929 107.155 213.359 107.073 212.664 107.073H209.816V121.792H206.875V104.729H212.664C213.601 104.729 214.437 104.819 215.172 104.999C215.914 105.179 216.543 105.46 217.058 105.843C217.582 106.218 217.976 106.694 218.242 107.272C218.515 107.851 218.652 108.538 218.652 109.335C218.652 110.038 218.484 110.683 218.148 111.269C217.812 111.847 217.316 112.319 216.66 112.687C216.004 113.054 215.187 113.272 214.211 113.343L213.273 114.081ZM213.144 121.792H208L209.324 119.46H213.144C213.808 119.46 214.363 119.351 214.808 119.132C215.254 118.905 215.586 118.597 215.804 118.206C216.031 117.808 216.144 117.343 216.144 116.812C216.144 116.257 216.047 115.776 215.851 115.37C215.656 114.956 215.347 114.64 214.926 114.421C214.504 114.194 213.953 114.081 213.273 114.081H209.969L209.992 111.937H214.293L214.961 112.745C215.898 112.776 216.668 112.983 217.269 113.366C217.879 113.749 218.332 114.245 218.629 114.854C218.926 115.464 219.074 116.12 219.074 116.823C219.074 117.909 218.836 118.819 218.359 119.554C217.89 120.288 217.215 120.847 216.332 121.229C215.449 121.604 214.387 121.792 213.144 121.792ZM224.781 109.112V121.792H221.945V109.112H224.781ZM221.758 105.784C221.758 105.354 221.898 104.999 222.179 104.718C222.469 104.429 222.867 104.284 223.375 104.284C223.875 104.284 224.269 104.429 224.558 104.718C224.847 104.999 224.992 105.354 224.992 105.784C224.992 106.206 224.847 106.558 224.558 106.839C224.269 107.12 223.875 107.261 223.375 107.261C222.867 107.261 222.469 107.12 222.179 106.839C221.898 106.558 221.758 106.206 221.758 105.784ZM235.996 109.112H238.562V121.44C238.562 122.581 238.32 123.55 237.836 124.347C237.351 125.144 236.676 125.749 235.808 126.163C234.941 126.585 233.937 126.796 232.797 126.796C232.312 126.796 231.773 126.726 231.179 126.585C230.594 126.444 230.023 126.218 229.469 125.905C228.922 125.601 228.465 125.198 228.097 124.698L229.422 123.034C229.875 123.573 230.375 123.968 230.922 124.218C231.469 124.468 232.043 124.593 232.644 124.593C233.293 124.593 233.844 124.472 234.297 124.229C234.758 123.995 235.113 123.647 235.363 123.187C235.613 122.726 235.738 122.163 235.738 121.499V111.983L235.996 109.112ZM227.383 115.593V115.347C227.383 114.386 227.5 113.511 227.734 112.722C227.969 111.925 228.304 111.241 228.742 110.671C229.179 110.093 229.711 109.651 230.336 109.347C230.961 109.034 231.668 108.878 232.457 108.878C233.277 108.878 233.976 109.026 234.554 109.323C235.14 109.62 235.629 110.046 236.019 110.601C236.41 111.147 236.715 111.804 236.933 112.569C237.16 113.327 237.328 114.171 237.437 115.101V115.886C237.336 116.792 237.164 117.62 236.922 118.37C236.679 119.12 236.359 119.769 235.961 120.315C235.562 120.862 235.07 121.284 234.484 121.581C233.906 121.878 233.222 122.026 232.433 122.026C231.66 122.026 230.961 121.866 230.336 121.546C229.719 121.226 229.187 120.776 228.742 120.198C228.304 119.62 227.969 118.94 227.734 118.159C227.5 117.37 227.383 116.515 227.383 115.593ZM230.207 115.347V115.593C230.207 116.171 230.262 116.71 230.371 117.21C230.488 117.71 230.664 118.151 230.898 118.534C231.14 118.909 231.445 119.206 231.812 119.425C232.187 119.636 232.629 119.741 233.137 119.741C233.801 119.741 234.344 119.601 234.765 119.319C235.195 119.038 235.523 118.659 235.75 118.183C235.984 117.698 236.148 117.159 236.242 116.565V114.444C236.195 113.983 236.097 113.554 235.949 113.155C235.808 112.757 235.617 112.409 235.375 112.112C235.133 111.808 234.828 111.573 234.461 111.409C234.094 111.237 233.66 111.151 233.16 111.151C232.652 111.151 232.211 111.261 231.836 111.479C231.461 111.698 231.152 111.999 230.91 112.382C230.676 112.765 230.5 113.21 230.383 113.718C230.265 114.226 230.207 114.769 230.207 115.347ZM89.1951 155.776C89.656 155.776 90.0701 155.687 90.4373 155.507C90.8123 155.319 91.1131 155.062 91.3396 154.733C91.574 154.405 91.7029 154.026 91.7264 153.597H94.3865C94.3709 154.417 94.1287 155.163 93.66 155.835C93.1912 156.507 92.5701 157.042 91.7967 157.44C91.0232 157.831 90.1678 158.026 89.2303 158.026C88.2615 158.026 87.4178 157.862 86.699 157.534C85.9803 157.198 85.3826 156.737 84.906 156.151C84.4295 155.565 84.0701 154.89 83.8279 154.124C83.5935 153.358 83.4764 152.538 83.4764 151.663V151.253C83.4764 150.378 83.5935 149.558 83.8279 148.792C84.0701 148.019 84.4295 147.339 84.906 146.753C85.3826 146.167 85.9803 145.71 86.699 145.382C87.4178 145.046 88.2576 144.878 89.2185 144.878C90.2342 144.878 91.1248 145.081 91.8904 145.487C92.656 145.886 93.2576 146.444 93.6951 147.163C94.1404 147.874 94.3709 148.702 94.3865 149.647H91.7264C91.7029 149.179 91.5857 148.757 91.3748 148.382C91.1717 147.999 90.8826 147.694 90.5076 147.468C90.1404 147.241 89.699 147.128 89.1834 147.128C88.6131 147.128 88.1404 147.245 87.7654 147.479C87.3904 147.706 87.0975 148.019 86.8865 148.417C86.6756 148.808 86.5232 149.249 86.4295 149.741C86.3435 150.226 86.3006 150.729 86.3006 151.253V151.663C86.3006 152.187 86.3435 152.694 86.4295 153.187C86.5154 153.679 86.6639 154.12 86.8748 154.511C87.0935 154.894 87.3904 155.202 87.7654 155.437C88.1404 155.663 88.617 155.776 89.1951 155.776ZM99.3435 139.792V157.792H96.531V139.792H99.3435ZM98.8514 150.983L97.9373 150.972C97.9451 150.097 98.0662 149.288 98.3006 148.546C98.5428 147.804 98.8787 147.159 99.3084 146.612C99.7459 146.058 100.269 145.632 100.879 145.335C101.488 145.03 102.164 144.878 102.906 144.878C103.531 144.878 104.094 144.964 104.594 145.136C105.101 145.308 105.539 145.585 105.906 145.968C106.273 146.343 106.551 146.835 106.738 147.444C106.933 148.046 107.031 148.78 107.031 149.647V157.792H104.195V149.624C104.195 149.015 104.105 148.53 103.926 148.171C103.754 147.812 103.5 147.554 103.164 147.397C102.828 147.233 102.418 147.151 101.933 147.151C101.426 147.151 100.976 147.253 100.586 147.456C100.203 147.659 99.8826 147.937 99.6248 148.288C99.367 148.64 99.1717 149.046 99.0389 149.507C98.9139 149.968 98.8514 150.46 98.8514 150.983ZM117.039 155.249V149.202C117.039 148.749 116.957 148.358 116.793 148.03C116.629 147.702 116.379 147.448 116.043 147.269C115.715 147.089 115.301 146.999 114.801 146.999C114.34 146.999 113.941 147.077 113.605 147.233C113.269 147.39 113.008 147.601 112.82 147.866C112.633 148.132 112.539 148.433 112.539 148.769H109.726C109.726 148.269 109.847 147.784 110.09 147.315C110.332 146.847 110.683 146.429 111.144 146.062C111.605 145.694 112.156 145.405 112.797 145.194C113.437 144.983 114.156 144.878 114.953 144.878C115.906 144.878 116.75 145.038 117.484 145.358C118.226 145.679 118.808 146.163 119.23 146.812C119.66 147.452 119.875 148.257 119.875 149.226V154.862C119.875 155.44 119.914 155.96 119.992 156.421C120.078 156.874 120.199 157.269 120.355 157.604V157.792H117.461C117.328 157.487 117.222 157.101 117.144 156.632C117.074 156.155 117.039 155.694 117.039 155.249ZM117.449 150.081L117.472 151.827H115.445C114.922 151.827 114.461 151.878 114.062 151.979C113.664 152.073 113.332 152.214 113.066 152.401C112.801 152.589 112.601 152.815 112.469 153.081C112.336 153.347 112.269 153.647 112.269 153.983C112.269 154.319 112.347 154.628 112.504 154.909C112.66 155.183 112.887 155.397 113.183 155.554C113.488 155.71 113.855 155.788 114.285 155.788C114.863 155.788 115.367 155.671 115.797 155.437C116.234 155.194 116.578 154.901 116.828 154.558C117.078 154.206 117.211 153.874 117.226 153.562L118.14 154.815C118.047 155.136 117.887 155.479 117.66 155.847C117.433 156.214 117.137 156.565 116.769 156.901C116.41 157.229 115.976 157.499 115.469 157.71C114.969 157.921 114.39 158.026 113.734 158.026C112.906 158.026 112.168 157.862 111.519 157.534C110.871 157.198 110.363 156.749 109.996 156.187C109.629 155.616 109.445 154.972 109.445 154.253C109.445 153.581 109.57 152.987 109.82 152.472C110.078 151.948 110.453 151.511 110.945 151.159C111.445 150.808 112.054 150.542 112.773 150.362C113.492 150.175 114.312 150.081 115.234 150.081H117.449ZM125.851 139.792V157.792H123.015V139.792H125.851ZM131.969 139.792V157.792H129.133V139.792H131.969ZM140.652 158.026C139.715 158.026 138.867 157.874 138.109 157.569C137.359 157.257 136.719 156.823 136.187 156.269C135.664 155.714 135.262 155.062 134.98 154.312C134.699 153.562 134.558 152.753 134.558 151.886V151.417C134.558 150.425 134.703 149.526 134.992 148.722C135.281 147.917 135.683 147.229 136.199 146.659C136.715 146.081 137.324 145.64 138.027 145.335C138.73 145.03 139.492 144.878 140.312 144.878C141.219 144.878 142.012 145.03 142.691 145.335C143.371 145.64 143.933 146.069 144.379 146.624C144.832 147.171 145.168 147.823 145.387 148.581C145.613 149.339 145.726 150.175 145.726 151.089V152.296H135.929V150.269H142.937V150.046C142.922 149.538 142.82 149.062 142.633 148.616C142.453 148.171 142.176 147.812 141.801 147.538C141.426 147.265 140.926 147.128 140.301 147.128C139.832 147.128 139.414 147.229 139.047 147.433C138.687 147.628 138.387 147.913 138.144 148.288C137.902 148.663 137.715 149.116 137.582 149.647C137.457 150.171 137.394 150.761 137.394 151.417V151.886C137.394 152.44 137.469 152.956 137.617 153.433C137.773 153.901 138 154.312 138.297 154.663C138.594 155.015 138.953 155.292 139.375 155.495C139.797 155.69 140.277 155.788 140.816 155.788C141.496 155.788 142.101 155.651 142.633 155.378C143.164 155.104 143.625 154.718 144.015 154.218L145.504 155.659C145.23 156.058 144.875 156.44 144.437 156.808C144 157.167 143.465 157.46 142.832 157.687C142.207 157.913 141.48 158.026 140.652 158.026ZM150.73 147.819V157.792H147.906V145.112H150.566L150.73 147.819ZM150.226 150.983L149.312 150.972C149.32 150.073 149.445 149.249 149.687 148.499C149.937 147.749 150.281 147.104 150.719 146.565C151.164 146.026 151.695 145.612 152.312 145.323C152.929 145.026 153.617 144.878 154.375 144.878C154.984 144.878 155.535 144.964 156.027 145.136C156.527 145.3 156.953 145.569 157.304 145.944C157.664 146.319 157.937 146.808 158.125 147.409C158.312 148.003 158.406 148.733 158.406 149.601V157.792H155.57V149.589C155.57 148.979 155.48 148.499 155.301 148.147C155.129 147.788 154.875 147.534 154.539 147.386C154.211 147.229 153.801 147.151 153.308 147.151C152.824 147.151 152.39 147.253 152.008 147.456C151.625 147.659 151.301 147.937 151.035 148.288C150.777 148.64 150.578 149.046 150.437 149.507C150.297 149.968 150.226 150.46 150.226 150.983ZM169.41 145.112H171.976V157.44C171.976 158.581 171.734 159.55 171.25 160.347C170.765 161.144 170.09 161.749 169.222 162.163C168.355 162.585 167.351 162.796 166.211 162.796C165.726 162.796 165.187 162.726 164.594 162.585C164.008 162.444 163.437 162.218 162.883 161.905C162.336 161.601 161.879 161.198 161.512 160.698L162.836 159.034C163.289 159.573 163.789 159.968 164.336 160.218C164.883 160.468 165.457 160.593 166.058 160.593C166.707 160.593 167.258 160.472 167.711 160.229C168.172 159.995 168.527 159.647 168.777 159.187C169.027 158.726 169.152 158.163 169.152 157.499V147.983L169.41 145.112ZM160.797 151.593V151.347C160.797 150.386 160.914 149.511 161.148 148.722C161.383 147.925 161.719 147.241 162.156 146.671C162.594 146.093 163.125 145.651 163.75 145.347C164.375 145.034 165.082 144.878 165.871 144.878C166.691 144.878 167.39 145.026 167.969 145.323C168.554 145.62 169.043 146.046 169.433 146.601C169.824 147.147 170.129 147.804 170.347 148.569C170.574 149.327 170.742 150.171 170.851 151.101V151.886C170.75 152.792 170.578 153.62 170.336 154.37C170.094 155.12 169.773 155.769 169.375 156.315C168.976 156.862 168.484 157.284 167.898 157.581C167.32 157.878 166.637 158.026 165.847 158.026C165.074 158.026 164.375 157.866 163.75 157.546C163.133 157.226 162.601 156.776 162.156 156.198C161.719 155.62 161.383 154.94 161.148 154.159C160.914 153.37 160.797 152.515 160.797 151.593ZM163.621 151.347V151.593C163.621 152.171 163.676 152.71 163.785 153.21C163.902 153.71 164.078 154.151 164.312 154.534C164.554 154.909 164.859 155.206 165.226 155.425C165.601 155.636 166.043 155.741 166.551 155.741C167.215 155.741 167.758 155.601 168.179 155.319C168.609 155.038 168.937 154.659 169.164 154.183C169.398 153.698 169.562 153.159 169.656 152.565V150.444C169.609 149.983 169.512 149.554 169.363 149.155C169.222 148.757 169.031 148.409 168.789 148.112C168.547 147.808 168.242 147.573 167.875 147.409C167.508 147.237 167.074 147.151 166.574 147.151C166.066 147.151 165.625 147.261 165.25 147.479C164.875 147.698 164.566 147.999 164.324 148.382C164.09 148.765 163.914 149.21 163.797 149.718C163.679 150.226 163.621 150.769 163.621 151.347ZM180.496 158.026C179.558 158.026 178.711 157.874 177.953 157.569C177.203 157.257 176.562 156.823 176.031 156.269C175.508 155.714 175.105 155.062 174.824 154.312C174.543 153.562 174.402 152.753 174.402 151.886V151.417C174.402 150.425 174.547 149.526 174.836 148.722C175.125 147.917 175.527 147.229 176.043 146.659C176.558 146.081 177.168 145.64 177.871 145.335C178.574 145.03 179.336 144.878 180.156 144.878C181.062 144.878 181.855 145.03 182.535 145.335C183.215 145.64 183.777 146.069 184.222 146.624C184.676 147.171 185.012 147.823 185.23 148.581C185.457 149.339 185.57 150.175 185.57 151.089V152.296H175.773V150.269H182.781V150.046C182.765 149.538 182.664 149.062 182.476 148.616C182.297 148.171 182.019 147.812 181.644 147.538C181.269 147.265 180.769 147.128 180.144 147.128C179.676 147.128 179.258 147.229 178.89 147.433C178.531 147.628 178.23 147.913 177.988 148.288C177.746 148.663 177.558 149.116 177.426 149.647C177.301 150.171 177.238 150.761 177.238 151.417V151.886C177.238 152.44 177.312 152.956 177.461 153.433C177.617 153.901 177.844 154.312 178.14 154.663C178.437 155.015 178.797 155.292 179.219 155.495C179.64 155.69 180.121 155.788 180.66 155.788C181.34 155.788 181.945 155.651 182.476 155.378C183.008 155.104 183.469 154.718 183.859 154.218L185.347 155.659C185.074 156.058 184.719 156.44 184.281 156.808C183.844 157.167 183.308 157.46 182.676 157.687C182.051 157.913 181.324 158.026 180.496 158.026ZM197.57 157.792H194.746V143.894C194.746 142.948 194.922 142.155 195.273 141.515C195.633 140.866 196.144 140.378 196.808 140.05C197.472 139.714 198.258 139.546 199.164 139.546C199.445 139.546 199.722 139.565 199.996 139.604C200.269 139.636 200.535 139.687 200.793 139.757L200.722 141.937C200.566 141.897 200.394 141.87 200.207 141.854C200.027 141.839 199.832 141.831 199.621 141.831C199.191 141.831 198.82 141.913 198.508 142.077C198.203 142.233 197.969 142.464 197.804 142.769C197.648 143.073 197.57 143.448 197.57 143.894V157.792ZM200.183 145.112V147.175H192.801V145.112H200.183ZM201.695 151.593V151.323C201.695 150.409 201.828 149.562 202.094 148.78C202.359 147.991 202.742 147.308 203.242 146.729C203.75 146.144 204.367 145.69 205.094 145.37C205.828 145.042 206.656 144.878 207.578 144.878C208.508 144.878 209.336 145.042 210.062 145.37C210.797 145.69 211.418 146.144 211.926 146.729C212.433 147.308 212.82 147.991 213.086 148.78C213.351 149.562 213.484 150.409 213.484 151.323V151.593C213.484 152.507 213.351 153.354 213.086 154.136C212.82 154.917 212.433 155.601 211.926 156.187C211.418 156.765 210.801 157.218 210.074 157.546C209.347 157.866 208.523 158.026 207.601 158.026C206.672 158.026 205.84 157.866 205.105 157.546C204.379 157.218 203.762 156.765 203.254 156.187C202.746 155.601 202.359 154.917 202.094 154.136C201.828 153.354 201.695 152.507 201.695 151.593ZM204.519 151.323V151.593C204.519 152.163 204.578 152.702 204.695 153.21C204.812 153.718 204.996 154.163 205.246 154.546C205.496 154.929 205.816 155.229 206.207 155.448C206.597 155.667 207.062 155.776 207.601 155.776C208.125 155.776 208.578 155.667 208.961 155.448C209.351 155.229 209.672 154.929 209.922 154.546C210.172 154.163 210.355 153.718 210.472 153.21C210.597 152.702 210.66 152.163 210.66 151.593V151.323C210.66 150.761 210.597 150.229 210.472 149.729C210.355 149.222 210.168 148.772 209.91 148.382C209.66 147.991 209.34 147.687 208.949 147.468C208.566 147.241 208.109 147.128 207.578 147.128C207.047 147.128 206.586 147.241 206.195 147.468C205.812 147.687 205.496 147.991 205.246 148.382C204.996 148.772 204.812 149.222 204.695 149.729C204.578 150.229 204.519 150.761 204.519 151.323ZM218.687 147.526V157.792H215.863V145.112H218.558L218.687 147.526ZM222.566 145.03L222.543 147.655C222.371 147.624 222.183 147.601 221.98 147.585C221.785 147.569 221.59 147.562 221.394 147.562C220.91 147.562 220.484 147.632 220.117 147.772C219.75 147.905 219.441 148.101 219.191 148.358C218.949 148.608 218.762 148.913 218.629 149.272C218.496 149.632 218.418 150.034 218.394 150.479L217.75 150.526C217.75 149.729 217.828 148.991 217.984 148.312C218.14 147.632 218.375 147.034 218.687 146.519C219.008 146.003 219.406 145.601 219.883 145.312C220.367 145.022 220.926 144.878 221.558 144.878C221.73 144.878 221.914 144.894 222.109 144.925C222.312 144.956 222.465 144.991 222.566 145.03ZM135.402 192.409L138.847 181.112H141.871L136.785 195.726C136.668 196.038 136.515 196.378 136.328 196.745C136.14 197.112 135.894 197.46 135.59 197.788C135.293 198.124 134.922 198.394 134.476 198.597C134.031 198.808 133.492 198.913 132.859 198.913C132.609 198.913 132.367 198.89 132.133 198.843C131.906 198.804 131.691 198.761 131.488 198.714L131.476 196.558C131.554 196.565 131.648 196.573 131.758 196.581C131.875 196.589 131.969 196.593 132.039 196.593C132.508 196.593 132.898 196.534 133.211 196.417C133.523 196.308 133.777 196.128 133.972 195.878C134.176 195.628 134.347 195.292 134.488 194.87L135.402 192.409ZM133.457 181.112L136.469 190.604L136.972 193.581L135.015 194.085L130.41 181.112H133.457ZM142.762 187.593V187.323C142.762 186.409 142.894 185.562 143.16 184.78C143.426 183.991 143.808 183.308 144.308 182.729C144.816 182.144 145.433 181.69 146.16 181.37C146.894 181.042 147.722 180.878 148.644 180.878C149.574 180.878 150.402 181.042 151.129 181.37C151.863 181.69 152.484 182.144 152.992 182.729C153.5 183.308 153.887 183.991 154.152 184.78C154.418 185.562 154.551 186.409 154.551 187.323V187.593C154.551 188.507 154.418 189.354 154.152 190.136C153.887 190.917 153.5 191.601 152.992 192.187C152.484 192.765 151.867 193.218 151.14 193.546C150.414 193.866 149.59 194.026 148.668 194.026C147.738 194.026 146.906 193.866 146.172 193.546C145.445 193.218 144.828 192.765 144.32 192.187C143.812 191.601 143.426 190.917 143.16 190.136C142.894 189.354 142.762 188.507 142.762 187.593ZM145.586 187.323V187.593C145.586 188.163 145.644 188.702 145.762 189.21C145.879 189.718 146.062 190.163 146.312 190.546C146.562 190.929 146.883 191.229 147.273 191.448C147.664 191.667 148.129 191.776 148.668 191.776C149.191 191.776 149.644 191.667 150.027 191.448C150.418 191.229 150.738 190.929 150.988 190.546C151.238 190.163 151.422 189.718 151.539 189.21C151.664 188.702 151.726 188.163 151.726 187.593V187.323C151.726 186.761 151.664 186.229 151.539 185.729C151.422 185.222 151.234 184.772 150.976 184.382C150.726 183.991 150.406 183.687 150.015 183.468C149.633 183.241 149.176 183.128 148.644 183.128C148.113 183.128 147.652 183.241 147.262 183.468C146.879 183.687 146.562 183.991 146.312 184.382C146.062 184.772 145.879 185.222 145.762 185.729C145.644 186.229 145.586 186.761 145.586 187.323ZM164.547 190.804V181.112H167.383V193.792H164.711L164.547 190.804ZM164.945 188.167L165.894 188.144C165.894 188.995 165.801 189.78 165.613 190.499C165.426 191.21 165.137 191.831 164.746 192.362C164.355 192.886 163.855 193.296 163.246 193.593C162.637 193.882 161.906 194.026 161.054 194.026C160.437 194.026 159.871 193.937 159.355 193.757C158.84 193.577 158.394 193.3 158.019 192.925C157.652 192.55 157.367 192.062 157.164 191.46C156.961 190.858 156.859 190.14 156.859 189.304V181.112H159.683V189.327C159.683 189.788 159.738 190.175 159.847 190.487C159.957 190.792 160.105 191.038 160.293 191.226C160.48 191.413 160.699 191.546 160.949 191.624C161.199 191.702 161.465 191.741 161.746 191.741C162.551 191.741 163.183 191.585 163.644 191.272C164.113 190.952 164.445 190.522 164.64 189.983C164.844 189.444 164.945 188.839 164.945 188.167ZM173.535 176.729L173.254 188.765H170.84L170.547 176.729H173.535ZM170.465 192.456C170.465 192.026 170.605 191.667 170.887 191.378C171.176 191.081 171.574 190.933 172.082 190.933C172.582 190.933 172.976 191.081 173.265 191.378C173.554 191.667 173.699 192.026 173.699 192.456C173.699 192.87 173.554 193.226 173.265 193.522C172.976 193.812 172.582 193.956 172.082 193.956C171.574 193.956 171.176 193.812 170.887 193.522C170.605 193.226 170.465 192.87 170.465 192.456Z"
      fill="white" />
    <path
      d="M230.913 248.862C235.116 253.119 247.427 258.658 251.407 265.732C268.049 265.286 272.592 270.922 274.265 277.326C278.593 293.968 221.342 328.561 146.391 354.587C71.4395 380.612 7.17181 388.236 2.84343 371.594C1.13554 365.058 8.94547 355.759 23.5749 345.314C23.7536 345.197 23.0258 334.973 25.8518 320.032C-34.6593 349.66 -73.0117 379.258 -68.5452 396.383C-61.95 421.776 36.1509 410.162 150.526 370.429C264.912 330.712 352.267 277.917 345.671 252.525C341.227 235.473 295.114 235.214 230.931 248.85L230.913 248.862Z"
      fill="white" fill-opacity="0.5" />
    <g filter="url(#filter0_d_766_42046)">
      <g clip-path="url(#clip1_766_42046)">
        <rect x="70" y="268" width="162.78" height="44.7896" rx="8" fill="#242424" />
        <path
          d="M106.965 288.919H105.414C105.355 288.588 105.244 288.296 105.081 288.044C104.919 287.792 104.72 287.579 104.485 287.403C104.249 287.227 103.986 287.095 103.694 287.005C103.406 286.916 103.099 286.871 102.774 286.871C102.188 286.871 101.662 287.018 101.198 287.313C100.738 287.608 100.373 288.041 100.105 288.611C99.8395 289.181 99.7069 289.877 99.7069 290.699C99.7069 291.528 99.8395 292.227 100.105 292.797C100.373 293.367 100.739 293.798 101.203 294.09C101.667 294.381 102.189 294.527 102.769 294.527C103.091 294.527 103.396 294.484 103.684 294.398C103.976 294.309 104.239 294.178 104.475 294.005C104.71 293.833 104.909 293.622 105.071 293.374C105.237 293.122 105.351 292.834 105.414 292.509L106.965 292.514C106.883 293.014 106.722 293.475 106.483 293.896C106.248 294.313 105.945 294.675 105.573 294.98C105.205 295.281 104.785 295.515 104.311 295.681C103.837 295.846 103.32 295.929 102.759 295.929C101.878 295.929 101.092 295.72 100.403 295.303C99.7135 294.882 99.17 294.28 98.7722 293.498C98.3778 292.716 98.1806 291.783 98.1806 290.699C98.1806 289.612 98.3795 288.679 98.7772 287.9C99.1749 287.118 99.7185 286.518 100.408 286.1C101.097 285.679 101.881 285.469 102.759 285.469C103.3 285.469 103.803 285.547 104.271 285.703C104.741 285.855 105.164 286.081 105.539 286.379C105.913 286.674 106.223 287.035 106.468 287.463C106.714 287.887 106.879 288.372 106.965 288.919ZM118.048 290.699C118.048 291.786 117.849 292.721 117.452 293.503C117.054 294.282 116.509 294.882 115.816 295.303C115.126 295.72 114.343 295.929 113.464 295.929C112.583 295.929 111.796 295.72 111.103 295.303C110.413 294.882 109.87 294.28 109.472 293.498C109.074 292.716 108.876 291.783 108.876 290.699C108.876 289.612 109.074 288.679 109.472 287.9C109.87 287.118 110.413 286.518 111.103 286.1C111.796 285.679 112.583 285.469 113.464 285.469C114.343 285.469 115.126 285.679 115.816 286.1C116.509 286.518 117.054 287.118 117.452 287.9C117.849 288.679 118.048 289.612 118.048 290.699ZM116.527 290.699C116.527 289.871 116.393 289.173 116.124 288.606C115.859 288.036 115.494 287.605 115.03 287.313C114.57 287.018 114.048 286.871 113.464 286.871C112.878 286.871 112.354 287.018 111.893 287.313C111.433 287.605 111.068 288.036 110.8 288.606C110.534 289.173 110.402 289.871 110.402 290.699C110.402 291.528 110.534 292.227 110.8 292.797C111.068 293.364 111.433 293.795 111.893 294.09C112.354 294.381 112.878 294.527 113.464 294.527C114.048 294.527 114.57 294.381 115.03 294.09C115.494 293.795 115.859 293.364 116.124 292.797C116.393 292.227 116.527 291.528 116.527 290.699ZM120.363 285.608H122.228L125.469 293.523H125.589L128.83 285.608H130.694V295.79H129.233V288.422H129.138L126.135 295.775H124.922L121.92 288.417H121.825V295.79H120.363V285.608ZM134.864 285.608V295.79H133.328V285.608H134.864ZM145.719 285.608V295.79H144.307L139.132 288.323H139.038V295.79H137.501V285.608H138.923L144.104 293.085H144.198V285.608H145.719ZM155.251 288.825C155.155 288.523 155.026 288.253 154.863 288.014C154.704 287.773 154.513 287.567 154.291 287.398C154.069 287.226 153.816 287.095 153.531 287.005C153.249 286.916 152.939 286.871 152.601 286.871C152.028 286.871 151.511 287.018 151.05 287.313C150.589 287.608 150.225 288.041 149.956 288.611C149.691 289.178 149.558 289.872 149.558 290.694C149.558 291.519 149.693 292.217 149.961 292.787C150.23 293.357 150.598 293.79 151.065 294.085C151.532 294.38 152.064 294.527 152.661 294.527C153.214 294.527 153.696 294.415 154.107 294.189C154.522 293.964 154.842 293.646 155.067 293.235C155.296 292.82 155.41 292.333 155.41 291.773L155.808 291.848H152.894V290.58H156.897V291.738C156.897 292.593 156.714 293.336 156.35 293.965C155.988 294.592 155.488 295.076 154.848 295.417C154.212 295.759 153.483 295.929 152.661 295.929C151.739 295.929 150.931 295.717 150.235 295.293C149.542 294.869 149.002 294.267 148.614 293.488C148.226 292.706 148.032 291.778 148.032 290.704C148.032 289.892 148.145 289.163 148.37 288.517C148.596 287.87 148.912 287.322 149.32 286.871C149.731 286.417 150.213 286.071 150.767 285.832C151.323 285.59 151.932 285.469 152.591 285.469C153.141 285.469 153.653 285.55 154.127 285.713C154.605 285.875 155.029 286.105 155.4 286.404C155.775 286.702 156.085 287.057 156.33 287.468C156.575 287.875 156.741 288.328 156.827 288.825H155.251ZM168.905 288.283C168.852 287.812 168.633 287.448 168.249 287.189C167.864 286.927 167.38 286.796 166.797 286.796C166.379 286.796 166.018 286.863 165.713 286.995C165.408 287.125 165.171 287.304 165.002 287.532C164.837 287.758 164.754 288.014 164.754 288.303C164.754 288.545 164.81 288.754 164.923 288.929C165.039 289.105 165.19 289.252 165.375 289.372C165.564 289.488 165.766 289.585 165.982 289.665C166.197 289.741 166.404 289.804 166.603 289.854L167.597 290.112C167.922 290.192 168.255 290.3 168.597 290.436C168.938 290.572 169.255 290.751 169.546 290.973C169.838 291.195 170.073 291.47 170.252 291.798C170.435 292.126 170.526 292.519 170.526 292.976C170.526 293.553 170.377 294.065 170.078 294.512C169.783 294.96 169.354 295.313 168.791 295.571C168.231 295.83 167.553 295.959 166.757 295.959C165.995 295.959 165.335 295.838 164.779 295.596C164.222 295.354 163.786 295.011 163.471 294.567C163.156 294.12 162.982 293.589 162.949 292.976H164.49C164.52 293.344 164.639 293.651 164.848 293.896C165.06 294.138 165.33 294.318 165.659 294.438C165.99 294.554 166.353 294.612 166.747 294.612C167.181 294.612 167.568 294.544 167.906 294.408C168.247 294.269 168.516 294.076 168.711 293.831C168.907 293.583 169.004 293.293 169.004 292.961C169.004 292.66 168.918 292.413 168.746 292.22C168.577 292.028 168.347 291.869 168.055 291.743C167.766 291.617 167.44 291.506 167.075 291.41L165.872 291.082C165.057 290.86 164.411 290.533 163.933 290.103C163.459 289.672 163.222 289.102 163.222 288.392C163.222 287.806 163.382 287.294 163.7 286.856C164.018 286.419 164.449 286.079 164.992 285.837C165.536 285.592 166.149 285.469 166.832 285.469C167.521 285.469 168.129 285.59 168.656 285.832C169.187 286.074 169.604 286.407 169.909 286.831C170.214 287.252 170.373 287.736 170.387 288.283H168.905ZM181.606 290.699C181.606 291.786 181.407 292.721 181.009 293.503C180.612 294.282 180.066 294.882 179.374 295.303C178.684 295.72 177.9 295.929 177.022 295.929C176.141 295.929 175.353 295.72 174.661 295.303C173.971 294.882 173.428 294.28 173.03 293.498C172.632 292.716 172.433 291.783 172.433 290.699C172.433 289.612 172.632 288.679 173.03 287.9C173.428 287.118 173.971 286.518 174.661 286.1C175.353 285.679 176.141 285.469 177.022 285.469C177.9 285.469 178.684 285.679 179.374 286.1C180.066 286.518 180.612 287.118 181.009 287.9C181.407 288.679 181.606 289.612 181.606 290.699ZM180.085 290.699C180.085 289.871 179.95 289.173 179.682 288.606C179.417 288.036 179.052 287.605 178.588 287.313C178.127 287.018 177.605 286.871 177.022 286.871C176.435 286.871 175.912 287.018 175.451 287.313C174.99 287.605 174.626 288.036 174.357 288.606C174.092 289.173 173.96 289.871 173.96 290.699C173.96 291.528 174.092 292.227 174.357 292.797C174.626 293.364 174.99 293.795 175.451 294.09C175.912 294.381 176.435 294.527 177.022 294.527C177.605 294.527 178.127 294.381 178.588 294.09C179.052 293.795 179.417 293.364 179.682 292.797C179.95 292.227 180.085 291.528 180.085 290.699ZM192.766 290.699C192.766 291.786 192.567 292.721 192.169 293.503C191.771 294.282 191.226 294.882 190.533 295.303C189.844 295.72 189.06 295.929 188.182 295.929C187.3 295.929 186.513 295.72 185.82 295.303C185.131 294.882 184.587 294.28 184.19 293.498C183.792 292.716 183.593 291.783 183.593 290.699C183.593 289.612 183.792 288.679 184.19 287.9C184.587 287.118 185.131 286.518 185.82 286.1C186.513 285.679 187.3 285.469 188.182 285.469C189.06 285.469 189.844 285.679 190.533 286.1C191.226 286.518 191.771 287.118 192.169 287.9C192.567 288.679 192.766 289.612 192.766 290.699ZM191.244 290.699C191.244 289.871 191.11 289.173 190.842 288.606C190.577 288.036 190.212 287.605 189.748 287.313C189.287 287.018 188.765 286.871 188.182 286.871C187.595 286.871 187.072 287.018 186.611 287.313C186.15 287.605 185.786 288.036 185.517 288.606C185.252 289.173 185.119 289.871 185.119 290.699C185.119 291.528 185.252 292.227 185.517 292.797C185.786 293.364 186.15 293.795 186.611 294.09C187.072 294.381 187.595 294.527 188.182 294.527C188.765 294.527 189.287 294.381 189.748 294.09C190.212 293.795 190.577 293.364 190.842 292.797C191.11 292.227 191.244 291.528 191.244 290.699ZM203.299 285.608V295.79H201.887L196.712 288.323H196.617V295.79H195.081V285.608H196.503L201.683 293.085H201.778V285.608H203.299Z"
          fill="white" />
      </g>
    </g>
  </g>
  <defs>
    <filter id="filter0_d_766_42046" x="60" y="264" width="182.78" height="64.79"
      filterUnits="userSpaceOnUse" color-interpolation-filters="sRGB">
      <feFlood flood-opacity="0" result="BackgroundImageFix" />
      <feColorMatrix in="SourceAlpha" type="matrix"
        values="0 0 0 0 0 0 0 0 0 0 0 0 0 0 0 0 0 0 127 0" result="hardAlpha" />
      <feMorphology radius="8" operator="erode" in="SourceAlpha"
        result="effect1_dropShadow_766_42046" />
      <feOffset dy="6" />
      <feGaussianBlur stdDeviation="9" />
      <feColorMatrix type="matrix"
        values="0 0 0 0 0.298039 0 0 0 0 0.305882 0 0 0 0 0.392157 0 0 0 0.56 0" />
      <feBlend mode="normal" in2="BackgroundImageFix" result="effect1_dropShadow_766_42046" />
      <feBlend mode="normal" in="SourceGraphic" in2="effect1_dropShadow_766_42046" result="shape" />
    </filter>
    <radialGradient id="paint0_radial_766_42046" cx="0" cy="0" r="1" gradientUnits="userSpaceOnUse"
      gradientTransform="translate(145.682 354.773) rotate(-90) scale(19.4831 157.075)">
      <stop stop-color="#004763" />
      <stop offset="0.19" stop-color="#003549" />
      <stop offset="0.55" stop-color="#001821" />
      <stop offset="0.83" stop-color="#000609" />
      <stop offset="1" />
    </radialGradient>
    <radialGradient id="paint1_radial_766_42046" cx="0" cy="0" r="1" gradientUnits="userSpaceOnUse"
      gradientTransform="translate(148.635 351.842) rotate(-90) scale(12.6773 108.29)">
      <stop offset="0.68" stop-color="#009474" />
      <stop offset="0.74" stop-color="#006859" />
      <stop offset="0.8" stop-color="#004040" />
      <stop offset="0.85" stop-color="#002830" />
      <stop offset="0.89" stop-color="#001F2B" />
      <stop offset="0.99" />
    </radialGradient>
    <radialGradient id="paint2_radial_766_42046" cx="0" cy="0" r="1" gradientUnits="userSpaceOnUse"
      gradientTransform="translate(155.218 188.969) scale(1.75579 2.02612)">
      <stop offset="0.02" stop-color="#4A70B7" />
      <stop offset="0.35" stop-color="#496EB4" />
      <stop offset="0.5" stop-color="#466AAD" />
      <stop offset="0.61" stop-color="#4162A1" />
      <stop offset="0.7" stop-color="#39578F" />
      <stop offset="0.78" stop-color="#304977" />
      <stop offset="0.85" stop-color="#24375B" />
      <stop offset="0.92" stop-color="#172239" />
      <stop offset="0.97" stop-color="#070B12" />
      <stop offset="1" />
    </radialGradient>
    <radialGradient id="paint3_radial_766_42046" cx="0" cy="0" r="1" gradientUnits="userSpaceOnUse"
      gradientTransform="translate(159.877 264.507) scale(1.75578 2.02612)">
      <stop offset="0.02" stop-color="#4A70B7" />
      <stop offset="0.35" stop-color="#496EB4" />
      <stop offset="0.5" stop-color="#466AAD" />
      <stop offset="0.61" stop-color="#4162A1" />
      <stop offset="0.7" stop-color="#39578F" />
      <stop offset="0.78" stop-color="#304977" />
      <stop offset="0.85" stop-color="#24375B" />
      <stop offset="0.92" stop-color="#172239" />
      <stop offset="0.97" stop-color="#070B12" />
      <stop offset="1" />
    </radialGradient>
    <radialGradient id="paint4_radial_766_42046" cx="0" cy="0" r="1" gradientUnits="userSpaceOnUse"
      gradientTransform="translate(151.266 214.266) scale(0.63294 0.730389)">
      <stop offset="0.02" stop-color="#4A70B7" />
      <stop offset="0.35" stop-color="#496EB4" />
      <stop offset="0.5" stop-color="#466AAD" />
      <stop offset="0.61" stop-color="#4162A1" />
      <stop offset="0.7" stop-color="#39578F" />
      <stop offset="0.78" stop-color="#304977" />
      <stop offset="0.85" stop-color="#24375B" />
      <stop offset="0.92" stop-color="#172239" />
      <stop offset="0.97" stop-color="#070B12" />
      <stop offset="1" />
    </radialGradient>
    <radialGradient id="paint5_radial_766_42046" cx="0" cy="0" r="1" gradientUnits="userSpaceOnUse"
      gradientTransform="translate(152.078 162.808) scale(0.811749 0.936715)">
      <stop offset="0.02" stop-color="#614A96" />
      <stop offset="0.37" stop-color="#5F4893" />
      <stop offset="0.52" stop-color="#5A458C" />
      <stop offset="0.64" stop-color="#523F80" />
      <stop offset="0.73" stop-color="#47366E" />
      <stop offset="0.82" stop-color="#382A56" />
      <stop offset="0.89" stop-color="#251C3A" />
      <stop offset="0.96" stop-color="#100C18" />
      <stop offset="1" />
    </radialGradient>
    <radialGradient id="paint6_radial_766_42046" cx="0" cy="0" r="1" gradientUnits="userSpaceOnUse"
      gradientTransform="translate(151.266 192.011) scale(0.811738 0.936715)">
      <stop offset="0.02" stop-color="#614A96" />
      <stop offset="0.37" stop-color="#5F4893" />
      <stop offset="0.52" stop-color="#5A458C" />
      <stop offset="0.64" stop-color="#523F80" />
      <stop offset="0.73" stop-color="#47366E" />
      <stop offset="0.82" stop-color="#382A56" />
      <stop offset="0.89" stop-color="#251C3A" />
      <stop offset="0.96" stop-color="#100C18" />
      <stop offset="1" />
    </radialGradient>
    <radialGradient id="paint7_radial_766_42046" cx="0" cy="0" r="1" gradientUnits="userSpaceOnUse"
      gradientTransform="translate(150.626 262.984) scale(0.811749 0.936715)">
      <stop offset="0.02" stop-color="#614A96" />
      <stop offset="0.37" stop-color="#5F4893" />
      <stop offset="0.52" stop-color="#5A458C" />
      <stop offset="0.64" stop-color="#523F80" />
      <stop offset="0.73" stop-color="#47366E" />
      <stop offset="0.82" stop-color="#382A56" />
      <stop offset="0.89" stop-color="#251C3A" />
      <stop offset="0.96" stop-color="#100C18" />
      <stop offset="1" />
    </radialGradient>
    <radialGradient id="paint8_radial_766_42046" cx="0" cy="0" r="1" gradientUnits="userSpaceOnUse"
      gradientTransform="translate(164.834 134.661) scale(0.811749 0.936728)">
      <stop offset="0.02" stop-color="#614A96" />
      <stop offset="0.37" stop-color="#5F4893" />
      <stop offset="0.52" stop-color="#5A458C" />
      <stop offset="0.64" stop-color="#523F80" />
      <stop offset="0.73" stop-color="#47366E" />
      <stop offset="0.82" stop-color="#382A56" />
      <stop offset="0.89" stop-color="#251C3A" />
      <stop offset="0.96" stop-color="#100C18" />
      <stop offset="1" />
    </radialGradient>
    <radialGradient id="paint9_radial_766_42046" cx="0" cy="0" r="1" gradientUnits="userSpaceOnUse"
      gradientTransform="translate(149.425 156.123) scale(5.79305 6.68497)">
      <stop offset="0.02" stop-color="#4C427C" />
      <stop offset="0.2" stop-color="#493F78" />
      <stop offset="0.38" stop-color="#42396C" />
      <stop offset="0.55" stop-color="#362E58" />
      <stop offset="0.72" stop-color="#24203C" />
      <stop offset="0.9" stop-color="#0F0D18" />
      <stop offset="1" />
    </radialGradient>
    <radialGradient id="paint10_radial_766_42046" cx="0" cy="0" r="1" gradientUnits="userSpaceOnUse"
      gradientTransform="translate(165.989 263.95) scale(12.2476 14.1333)">
      <stop offset="0.02" stop-color="#4C427C" />
      <stop offset="0.22" stop-color="#3B3360" />
      <stop offset="0.75" stop-color="#100E1B" />
      <stop offset="1" />
    </radialGradient>
    <radialGradient id="paint11_radial_766_42046" cx="0" cy="0" r="1" gradientUnits="userSpaceOnUse"
      gradientTransform="translate(137.338 218.561) scale(3.72257 4.29571)">
      <stop offset="0.02" stop-color="#4C427C" />
      <stop offset="0.2" stop-color="#493F78" />
      <stop offset="0.38" stop-color="#42396C" />
      <stop offset="0.55" stop-color="#362E58" />
      <stop offset="0.72" stop-color="#24203C" />
      <stop offset="0.9" stop-color="#0F0D18" />
      <stop offset="1" />
    </radialGradient>
    <radialGradient id="paint12_radial_766_42046" cx="0" cy="0" r="1" gradientUnits="userSpaceOnUse"
      gradientTransform="translate(141.904 200.144) scale(1.95605 2.25721)">
      <stop offset="0.02" stop-color="#4C427C" />
      <stop offset="0.2" stop-color="#493F78" />
      <stop offset="0.38" stop-color="#42396C" />
      <stop offset="0.55" stop-color="#362E58" />
      <stop offset="0.72" stop-color="#24203C" />
      <stop offset="0.9" stop-color="#0F0D18" />
      <stop offset="1" />
    </radialGradient>
    <radialGradient id="paint13_radial_766_42046" cx="0" cy="0" r="1" gradientUnits="userSpaceOnUse"
      gradientTransform="translate(147.127 84.1224) rotate(-178.696) scale(1.34823 1.55559)">
      <stop offset="0.02" stop-color="#4A70B7" />
      <stop offset="0.35" stop-color="#496EB4" />
      <stop offset="0.5" stop-color="#466AAD" />
      <stop offset="0.61" stop-color="#4162A1" />
      <stop offset="0.7" stop-color="#39578F" />
      <stop offset="0.78" stop-color="#304977" />
      <stop offset="0.85" stop-color="#24375B" />
      <stop offset="0.92" stop-color="#172239" />
      <stop offset="0.97" stop-color="#070B12" />
      <stop offset="1" />
    </radialGradient>
    <radialGradient id="paint14_radial_766_42046" cx="0" cy="0" r="1" gradientUnits="userSpaceOnUse"
      gradientTransform="translate(150.49 64.7809) rotate(-178.696) scale(0.486367 0.561177)">
      <stop offset="0.02" stop-color="#4A70B7" />
      <stop offset="0.35" stop-color="#496EB4" />
      <stop offset="0.5" stop-color="#466AAD" />
      <stop offset="0.61" stop-color="#4162A1" />
      <stop offset="0.7" stop-color="#39578F" />
      <stop offset="0.78" stop-color="#304977" />
      <stop offset="0.85" stop-color="#24375B" />
      <stop offset="0.92" stop-color="#172239" />
      <stop offset="0.97" stop-color="#070B12" />
      <stop offset="1" />
    </radialGradient>
    <radialGradient id="paint15_radial_766_42046" cx="0" cy="0" r="1" gradientUnits="userSpaceOnUse"
      gradientTransform="translate(149.193 104.254) rotate(-178.696) scale(0.622262 0.717962)">
      <stop offset="0.02" stop-color="#614A96" />
      <stop offset="0.37" stop-color="#5F4893" />
      <stop offset="0.52" stop-color="#5A458C" />
      <stop offset="0.64" stop-color="#523F80" />
      <stop offset="0.73" stop-color="#47366E" />
      <stop offset="0.82" stop-color="#382A56" />
      <stop offset="0.89" stop-color="#251C3A" />
      <stop offset="0.96" stop-color="#100C18" />
      <stop offset="1" />
    </radialGradient>
    <radialGradient id="paint16_radial_766_42046" cx="0" cy="0" r="1" gradientUnits="userSpaceOnUse"
      gradientTransform="translate(150.199 81.8613) rotate(-178.696) scale(0.622262 0.717962)">
      <stop offset="0.02" stop-color="#614A96" />
      <stop offset="0.37" stop-color="#5F4893" />
      <stop offset="0.52" stop-color="#5A458C" />
      <stop offset="0.64" stop-color="#523F80" />
      <stop offset="0.73" stop-color="#47366E" />
      <stop offset="0.82" stop-color="#382A56" />
      <stop offset="0.89" stop-color="#251C3A" />
      <stop offset="0.96" stop-color="#100C18" />
      <stop offset="1" />
    </radialGradient>
    <radialGradient id="paint17_radial_766_42046" cx="0" cy="0" r="1" gradientUnits="userSpaceOnUse"
      gradientTransform="translate(139.035 125.634) rotate(-178.696) scale(0.622251 0.717962)">
      <stop offset="0.02" stop-color="#614A96" />
      <stop offset="0.37" stop-color="#5F4893" />
      <stop offset="0.52" stop-color="#5A458C" />
      <stop offset="0.64" stop-color="#523F80" />
      <stop offset="0.73" stop-color="#47366E" />
      <stop offset="0.82" stop-color="#382A56" />
      <stop offset="0.89" stop-color="#251C3A" />
      <stop offset="0.96" stop-color="#100C18" />
      <stop offset="1" />
    </radialGradient>
    <radialGradient id="paint18_radial_766_42046" cx="0" cy="0" r="1" gradientUnits="userSpaceOnUse"
      gradientTransform="translate(151.14 109.433) rotate(-178.696) scale(4.4452 5.12893)">
      <stop offset="0.02" stop-color="#4C427C" />
      <stop offset="0.2" stop-color="#493F78" />
      <stop offset="0.38" stop-color="#42396C" />
      <stop offset="0.55" stop-color="#362E58" />
      <stop offset="0.72" stop-color="#24203C" />
      <stop offset="0.9" stop-color="#0F0D18" />
      <stop offset="1" />
    </radialGradient>
    <radialGradient id="paint19_radial_766_42046" cx="0" cy="0" r="1" gradientUnits="userSpaceOnUse"
      gradientTransform="translate(161.237 61.7277) rotate(-178.696) scale(2.85737 3.29687)">
      <stop offset="0.02" stop-color="#4C427C" />
      <stop offset="0.2" stop-color="#493F78" />
      <stop offset="0.38" stop-color="#42396C" />
      <stop offset="0.55" stop-color="#362E58" />
      <stop offset="0.72" stop-color="#24203C" />
      <stop offset="0.9" stop-color="#0F0D18" />
      <stop offset="1" />
    </radialGradient>
    <radialGradient id="paint20_radial_766_42046" cx="0" cy="0" r="1" gradientUnits="userSpaceOnUse"
      gradientTransform="translate(157.488 75.7826) rotate(-178.696) scale(1.50199 1.73303)">
      <stop offset="0.02" stop-color="#4C427C" />
      <stop offset="0.2" stop-color="#493F78" />
      <stop offset="0.38" stop-color="#42396C" />
      <stop offset="0.55" stop-color="#362E58" />
      <stop offset="0.72" stop-color="#24203C" />
      <stop offset="0.9" stop-color="#0F0D18" />
      <stop offset="1" />
    </radialGradient>
    <radialGradient id="paint21_radial_766_42046" cx="0" cy="0" r="1" gradientUnits="userSpaceOnUse"
      gradientTransform="translate(142.963 290.135) scale(1.95604 2.25722)">
      <stop offset="0.02" stop-color="#4C427C" />
      <stop offset="0.2" stop-color="#493F78" />
      <stop offset="0.38" stop-color="#42396C" />
      <stop offset="0.55" stop-color="#362E58" />
      <stop offset="0.72" stop-color="#24203C" />
      <stop offset="0.9" stop-color="#0F0D18" />
      <stop offset="1" />
    </radialGradient>
    <radialGradient id="paint22_radial_766_42046" cx="0" cy="0" r="1" gradientUnits="userSpaceOnUse"
      gradientTransform="translate(109.782 233.087) scale(0.178798 0.206326)">
      <stop offset="0.02" stop-color="#4A70B7" />
      <stop offset="0.35" stop-color="#496EB4" />
      <stop offset="0.5" stop-color="#466AAD" />
      <stop offset="0.61" stop-color="#4162A1" />
      <stop offset="0.7" stop-color="#39578F" />
      <stop offset="0.78" stop-color="#304977" />
      <stop offset="0.85" stop-color="#24375B" />
      <stop offset="0.92" stop-color="#172239" />
      <stop offset="0.97" stop-color="#070B12" />
      <stop offset="1" />
    </radialGradient>
    <radialGradient id="paint23_radial_766_42046" cx="0" cy="0" r="1" gradientUnits="userSpaceOnUse"
      gradientTransform="translate(114.442 308.62) scale(1.75579 2.02614)">
      <stop offset="0.02" stop-color="#4A70B7" />
      <stop offset="0.35" stop-color="#496EB4" />
      <stop offset="0.5" stop-color="#466AAD" />
      <stop offset="0.61" stop-color="#4162A1" />
      <stop offset="0.7" stop-color="#39578F" />
      <stop offset="0.78" stop-color="#304977" />
      <stop offset="0.85" stop-color="#24375B" />
      <stop offset="0.92" stop-color="#172239" />
      <stop offset="0.97" stop-color="#070B12" />
      <stop offset="1" />
    </radialGradient>
    <radialGradient id="paint24_radial_766_42046" cx="0" cy="0" r="1" gradientUnits="userSpaceOnUse"
      gradientTransform="translate(105.834 258.383) scale(0.63294 0.730402)">
      <stop offset="0.02" stop-color="#4A70B7" />
      <stop offset="0.35" stop-color="#496EB4" />
      <stop offset="0.5" stop-color="#466AAD" />
      <stop offset="0.61" stop-color="#4162A1" />
      <stop offset="0.7" stop-color="#39578F" />
      <stop offset="0.78" stop-color="#304977" />
      <stop offset="0.85" stop-color="#24375B" />
      <stop offset="0.92" stop-color="#172239" />
      <stop offset="0.97" stop-color="#070B12" />
      <stop offset="1" />
    </radialGradient>
    <radialGradient id="paint25_radial_766_42046" cx="0" cy="0" r="1" gradientUnits="userSpaceOnUse"
      gradientTransform="translate(106.643 206.925) scale(0.178799 0.206328)">
      <stop offset="0.02" stop-color="#614A96" />
      <stop offset="0.37" stop-color="#5F4893" />
      <stop offset="0.52" stop-color="#5A458C" />
      <stop offset="0.64" stop-color="#523F80" />
      <stop offset="0.73" stop-color="#47366E" />
      <stop offset="0.82" stop-color="#382A56" />
      <stop offset="0.89" stop-color="#251C3A" />
      <stop offset="0.96" stop-color="#100C18" />
      <stop offset="1" />
    </radialGradient>
    <radialGradient id="paint26_radial_766_42046" cx="0" cy="0" r="1" gradientUnits="userSpaceOnUse"
      gradientTransform="translate(105.834 236.128) scale(0.811738 0.936715)">
      <stop offset="0.02" stop-color="#614A96" />
      <stop offset="0.37" stop-color="#5F4893" />
      <stop offset="0.52" stop-color="#5A458C" />
      <stop offset="0.64" stop-color="#523F80" />
      <stop offset="0.73" stop-color="#47366E" />
      <stop offset="0.82" stop-color="#382A56" />
      <stop offset="0.89" stop-color="#251C3A" />
      <stop offset="0.96" stop-color="#100C18" />
      <stop offset="1" />
    </radialGradient>
    <radialGradient id="paint27_radial_766_42046" cx="0" cy="0" r="1" gradientUnits="userSpaceOnUse"
      gradientTransform="translate(105.19 307.101) scale(0.811749 0.936703)">
      <stop offset="0.02" stop-color="#614A96" />
      <stop offset="0.37" stop-color="#5F4893" />
      <stop offset="0.52" stop-color="#5A458C" />
      <stop offset="0.64" stop-color="#523F80" />
      <stop offset="0.73" stop-color="#47366E" />
      <stop offset="0.82" stop-color="#382A56" />
      <stop offset="0.89" stop-color="#251C3A" />
      <stop offset="0.96" stop-color="#100C18" />
      <stop offset="1" />
    </radialGradient>
    <radialGradient id="paint28_radial_766_42046" cx="0" cy="0" r="1" gradientUnits="userSpaceOnUse"
      gradientTransform="translate(119.401 178.774) scale(0.811738 0.936715)">
      <stop offset="0.02" stop-color="#614A96" />
      <stop offset="0.37" stop-color="#5F4893" />
      <stop offset="0.52" stop-color="#5A458C" />
      <stop offset="0.64" stop-color="#523F80" />
      <stop offset="0.73" stop-color="#47366E" />
      <stop offset="0.82" stop-color="#382A56" />
      <stop offset="0.89" stop-color="#251C3A" />
      <stop offset="0.96" stop-color="#100C18" />
      <stop offset="1" />
    </radialGradient>
    <radialGradient id="paint29_radial_766_42046" cx="0" cy="0" r="1" gradientUnits="userSpaceOnUse"
      gradientTransform="translate(103.989 200.241) scale(5.79305 6.68497)">
      <stop offset="0.02" stop-color="#4C427C" />
      <stop offset="0.2" stop-color="#493F78" />
      <stop offset="0.38" stop-color="#42396C" />
      <stop offset="0.55" stop-color="#362E58" />
      <stop offset="0.72" stop-color="#24203C" />
      <stop offset="0.9" stop-color="#0F0D18" />
      <stop offset="1" />
    </radialGradient>
    <radialGradient id="paint30_radial_766_42046" cx="0" cy="0" r="1" gradientUnits="userSpaceOnUse"
      gradientTransform="translate(120.553 308.067) scale(12.2476 14.1333)">
      <stop offset="0.02" stop-color="#4C427C" />
      <stop offset="0.22" stop-color="#3B3360" />
      <stop offset="0.75" stop-color="#100E1B" />
      <stop offset="1" />
    </radialGradient>
    <radialGradient id="paint31_radial_766_42046" cx="0" cy="0" r="1" gradientUnits="userSpaceOnUse"
      gradientTransform="translate(91.9023 262.679) scale(3.72257 4.29571)">
      <stop offset="0.02" stop-color="#4C427C" />
      <stop offset="0.2" stop-color="#493F78" />
      <stop offset="0.38" stop-color="#42396C" />
      <stop offset="0.55" stop-color="#362E58" />
      <stop offset="0.72" stop-color="#24203C" />
      <stop offset="0.9" stop-color="#0F0D18" />
      <stop offset="1" />
    </radialGradient>
    <radialGradient id="paint32_radial_766_42046" cx="0" cy="0" r="1" gradientUnits="userSpaceOnUse"
      gradientTransform="translate(96.4686 244.261) scale(1.95605 2.25721)">
      <stop offset="0.02" stop-color="#4C427C" />
      <stop offset="0.2" stop-color="#493F78" />
      <stop offset="0.38" stop-color="#42396C" />
      <stop offset="0.55" stop-color="#362E58" />
      <stop offset="0.72" stop-color="#24203C" />
      <stop offset="0.9" stop-color="#0F0D18" />
      <stop offset="1" />
    </radialGradient>
    <radialGradient id="paint33_radial_766_42046" cx="0" cy="0" r="1" gradientUnits="userSpaceOnUse"
      gradientTransform="translate(101.69 128.238) rotate(-178.696) scale(1.34823 1.55559)">
      <stop offset="0.02" stop-color="#4A70B7" />
      <stop offset="0.35" stop-color="#496EB4" />
      <stop offset="0.5" stop-color="#466AAD" />
      <stop offset="0.61" stop-color="#4162A1" />
      <stop offset="0.7" stop-color="#39578F" />
      <stop offset="0.78" stop-color="#304977" />
      <stop offset="0.85" stop-color="#24375B" />
      <stop offset="0.92" stop-color="#172239" />
      <stop offset="0.97" stop-color="#070B12" />
      <stop offset="1" />
    </radialGradient>
    <radialGradient id="paint34_radial_766_42046" cx="0" cy="0" r="1" gradientUnits="userSpaceOnUse"
      gradientTransform="translate(105.054 108.896) rotate(-178.696) scale(0.486367 0.561177)">
      <stop offset="0.02" stop-color="#4A70B7" />
      <stop offset="0.35" stop-color="#496EB4" />
      <stop offset="0.5" stop-color="#466AAD" />
      <stop offset="0.61" stop-color="#4162A1" />
      <stop offset="0.7" stop-color="#39578F" />
      <stop offset="0.78" stop-color="#304977" />
      <stop offset="0.85" stop-color="#24375B" />
      <stop offset="0.92" stop-color="#172239" />
      <stop offset="0.97" stop-color="#070B12" />
      <stop offset="1" />
    </radialGradient>
    <radialGradient id="paint35_radial_766_42046" cx="0" cy="0" r="1" gradientUnits="userSpaceOnUse"
      gradientTransform="translate(103.757 148.369) rotate(-178.696) scale(0.622262 0.717962)">
      <stop offset="0.02" stop-color="#614A96" />
      <stop offset="0.37" stop-color="#5F4893" />
      <stop offset="0.52" stop-color="#5A458C" />
      <stop offset="0.64" stop-color="#523F80" />
      <stop offset="0.73" stop-color="#47366E" />
      <stop offset="0.82" stop-color="#382A56" />
      <stop offset="0.89" stop-color="#251C3A" />
      <stop offset="0.96" stop-color="#100C18" />
      <stop offset="1" />
    </radialGradient>
    <radialGradient id="paint36_radial_766_42046" cx="0" cy="0" r="1" gradientUnits="userSpaceOnUse"
      gradientTransform="translate(104.762 125.972) rotate(-178.696) scale(0.622262 0.717975)">
      <stop offset="0.02" stop-color="#614A96" />
      <stop offset="0.37" stop-color="#5F4893" />
      <stop offset="0.52" stop-color="#5A458C" />
      <stop offset="0.64" stop-color="#523F80" />
      <stop offset="0.73" stop-color="#47366E" />
      <stop offset="0.82" stop-color="#382A56" />
      <stop offset="0.89" stop-color="#251C3A" />
      <stop offset="0.96" stop-color="#100C18" />
      <stop offset="1" />
    </radialGradient>
    <radialGradient id="paint37_radial_766_42046" cx="0" cy="0" r="1" gradientUnits="userSpaceOnUse"
      gradientTransform="translate(93.5985 169.749) rotate(-178.696) scale(0.622251 0.717975)">
      <stop offset="0.02" stop-color="#614A96" />
      <stop offset="0.37" stop-color="#5F4893" />
      <stop offset="0.52" stop-color="#5A458C" />
      <stop offset="0.64" stop-color="#523F80" />
      <stop offset="0.73" stop-color="#47366E" />
      <stop offset="0.82" stop-color="#382A56" />
      <stop offset="0.89" stop-color="#251C3A" />
      <stop offset="0.96" stop-color="#100C18" />
      <stop offset="1" />
    </radialGradient>
    <radialGradient id="paint38_radial_766_42046" cx="0" cy="0" r="1" gradientUnits="userSpaceOnUse"
      gradientTransform="translate(105.703 153.548) rotate(-178.696) scale(4.4452 5.12893)">
      <stop offset="0.02" stop-color="#4C427C" />
      <stop offset="0.2" stop-color="#493F78" />
      <stop offset="0.38" stop-color="#42396C" />
      <stop offset="0.55" stop-color="#362E58" />
      <stop offset="0.72" stop-color="#24203C" />
      <stop offset="0.9" stop-color="#0F0D18" />
      <stop offset="1" />
    </radialGradient>
    <radialGradient id="paint39_radial_766_42046" cx="0" cy="0" r="1" gradientUnits="userSpaceOnUse"
      gradientTransform="translate(115.8 105.843) rotate(-178.696) scale(2.85737 3.29687)">
      <stop offset="0.02" stop-color="#4C427C" />
      <stop offset="0.2" stop-color="#493F78" />
      <stop offset="0.38" stop-color="#42396C" />
      <stop offset="0.55" stop-color="#362E58" />
      <stop offset="0.72" stop-color="#24203C" />
      <stop offset="0.9" stop-color="#0F0D18" />
      <stop offset="1" />
    </radialGradient>
    <radialGradient id="paint40_radial_766_42046" cx="0" cy="0" r="1" gradientUnits="userSpaceOnUse"
      gradientTransform="translate(112.051 119.898) rotate(-178.696) scale(1.502 1.73302)">
      <stop offset="0.02" stop-color="#4C427C" />
      <stop offset="0.2" stop-color="#493F78" />
      <stop offset="0.38" stop-color="#42396C" />
      <stop offset="0.55" stop-color="#362E58" />
      <stop offset="0.72" stop-color="#24203C" />
      <stop offset="0.9" stop-color="#0F0D18" />
      <stop offset="1" />
    </radialGradient>
    <radialGradient id="paint41_radial_766_42046" cx="0" cy="0" r="1" gradientUnits="userSpaceOnUse"
      gradientTransform="translate(97.5271 334.252) scale(1.95605 2.25719)">
      <stop offset="0.02" stop-color="#4C427C" />
      <stop offset="0.2" stop-color="#493F78" />
      <stop offset="0.38" stop-color="#42396C" />
      <stop offset="0.55" stop-color="#362E58" />
      <stop offset="0.72" stop-color="#24203C" />
      <stop offset="0.9" stop-color="#0F0D18" />
      <stop offset="1" />
    </radialGradient>
    <radialGradient id="paint42_radial_766_42046" cx="0" cy="0" r="1" gradientUnits="userSpaceOnUse"
      gradientTransform="translate(151.633 -3.05096) rotate(-90) scale(151.089 67.4491)">
      <stop stop-color="#625AB9" />
      <stop offset="0.2" stop-color="#443F81" />
      <stop offset="0.39" stop-color="#2C2853" />
      <stop offset="0.57" stop-color="#18162E" />
      <stop offset="0.73" stop-color="#0B0A15" />
      <stop offset="0.88" stop-color="#020205" />
      <stop offset="1" />
    </radialGradient>
    <radialGradient id="paint43_radial_766_42046" cx="0" cy="0" r="1" gradientUnits="userSpaceOnUse"
      gradientTransform="translate(153.178 0.171353) rotate(-90) scale(154.569 249.934)">
      <stop stop-color="#625AB9" />
      <stop offset="0.2" stop-color="#443F81" />
      <stop offset="0.39" stop-color="#2C2853" />
      <stop offset="0.57" stop-color="#18162E" />
      <stop offset="0.73" stop-color="#0B0A15" />
      <stop offset="0.88" stop-color="#020205" />
      <stop offset="1" />
    </radialGradient>
    <clipPath id="clip0_766_42046">
      <rect width="302" height="409" fill="white" />
    </clipPath>
    <clipPath id="clip1_766_42046">
      <rect x="70" y="268" width="162.78" height="44.7896" rx="8" fill="white" />
    </clipPath>
  </defs>
</svg>
  